{"glyphs":{"0":{"ha":760,"x_min":136,"x_max":624,"o":"m 244 854 q 228 816 244 832 q 190 800 212 800 q 152 816 168 800 q 136 854 136 832 q 152 893 136 877 q 190 909 168 909 q 228 893 212 909 q 244 854 244 877 m 434 854 q 418 816 434 832 q 380 800 402 800 q 341 816 357 800 q 326 854 326 832 q 341 893 326 877 q 380 909 357 909 q 418 893 402 909 q 434 854 434 877 m 624 854 q 608 816 624 832 q 570 800 592 800 q 531 816 547 800 q 515 854 515 832 q 531 893 515 877 q 570 909 547 909 q 608 893 592 909 q 624 854 624 877 m 244 665 q 228 626 244 642 q 190 610 212 610 q 152 626 168 610 q 136 665 136 642 q 152 703 136 687 q 190 719 168 719 q 228 703 212 719 q 244 665 244 687 m 624 665 q 608 626 624 642 q 570 610 592 610 q 531 626 547 610 q 515 665 515 642 q 531 703 515 687 q 570 719 547 719 q 608 703 592 719 q 624 665 624 687 m 244 475 q 228 436 244 452 q 190 420 212 420 q 152 436 168 420 q 136 475 136 452 q 152 513 136 497 q 190 529 168 529 q 228 513 212 529 q 244 475 244 497 m 624 475 q 608 436 624 452 q 570 420 592 420 q 531 436 547 420 q 515 475 515 452 q 531 513 515 497 q 570 529 547 529 q 608 513 592 529 q 624 475 624 497 m 244 285 q 228 247 244 262 q 190 231 212 231 q 152 247 168 231 q 136 285 136 262 q 152 323 136 307 q 190 339 168 339 q 228 323 212 339 q 244 285 244 307 m 624 285 q 608 247 624 262 q 570 231 592 231 q 531 247 547 231 q 515 285 515 262 q 531 323 515 307 q 570 339 547 339 q 608 323 592 339 q 624 285 624 307 m 244 95 q 228 57 244 73 q 190 41 212 41 q 152 57 168 41 q 136 95 136 73 q 152 133 136 117 q 190 149 168 149 q 228 133 212 149 q 244 95 244 117 m 434 95 q 418 57 434 73 q 380 41 402 41 q 341 57 357 41 q 326 95 326 73 q 341 133 326 117 q 380 149 357 149 q 418 133 402 149 q 434 95 434 117 m 624 95 q 608 57 624 73 q 570 41 592 41 q 531 57 547 41 q 515 95 515 73 q 531 133 515 117 q 570 149 547 149 q 608 133 592 149 q 624 95 624 117 z "},"1":{"ha":760,"x_min":136,"x_max":624,"o":"m 434 854 q 418 816 434 832 q 380 800 402 800 q 341 816 357 800 q 326 854 326 832 q 341 893 326 877 q 380 909 357 909 q 418 893 402 909 q 434 854 434 877 m 244 665 q 228 626 244 642 q 190 610 212 610 q 152 626 168 610 q 136 665 136 642 q 152 703 136 687 q 190 719 168 719 q 228 703 212 719 q 244 665 244 687 m 434 665 q 418 626 434 642 q 380 610 402 610 q 341 626 357 610 q 326 665 326 642 q 341 703 326 687 q 380 719 357 719 q 418 703 402 719 q 434 665 434 687 m 434 475 q 418 436 434 452 q 380 420 402 420 q 341 436 357 420 q 326 475 326 452 q 341 513 326 497 q 380 529 357 529 q 418 513 402 529 q 434 475 434 497 m 434 285 q 418 247 434 262 q 380 231 402 231 q 341 247 357 231 q 326 285 326 262 q 341 323 326 307 q 380 339 357 339 q 418 323 402 339 q 434 285 434 307 m 244 95 q 228 57 244 73 q 190 41 212 41 q 152 57 168 41 q 136 95 136 73 q 152 133 136 117 q 190 149 168 149 q 228 133 212 149 q 244 95 244 117 m 434 95 q 418 57 434 73 q 380 41 402 41 q 341 57 357 41 q 326 95 326 73 q 341 133 326 117 q 380 149 357 149 q 418 133 402 149 q 434 95 434 117 m 624 95 q 608 57 624 73 q 570 41 592 41 q 531 57 547 41 q 515 95 515 73 q 531 133 515 117 q 570 149 547 149 q 608 133 592 149 q 624 95 624 117 z "},"2":{"ha":760,"x_min":136,"x_max":624,"o":"m 434 854 q 418 816 434 832 q 380 800 402 800 q 341 816 357 800 q 326 854 326 832 q 341 893 326 877 q 380 909 357 909 q 418 893 402 909 q 434 854 434 877 m 624 854 q 608 816 624 832 q 570 800 592 800 q 531 816 547 800 q 515 854 515 832 q 531 893 515 877 q 570 909 547 909 q 608 893 592 909 q 624 854 624 877 m 244 665 q 228 626 244 642 q 190 610 212 610 q 152 626 168 610 q 136 665 136 642 q 152 703 136 687 q 190 719 168 719 q 228 703 212 719 q 244 665 244 687 m 624 665 q 608 626 624 642 q 570 610 592 610 q 531 626 547 610 q 515 665 515 642 q 531 703 515 687 q 570 719 547 719 q 608 703 592 719 q 624 665 624 687 m 434 475 q 418 436 434 452 q 380 420 402 420 q 341 436 357 420 q 326 475 326 452 q 341 513 326 497 q 380 529 357 529 q 418 513 402 529 q 434 475 434 497 m 244 285 q 228 247 244 262 q 190 231 212 231 q 152 247 168 231 q 136 285 136 262 q 152 323 136 307 q 190 339 168 339 q 228 323 212 339 q 244 285 244 307 m 244 95 q 228 57 244 73 q 190 41 212 41 q 152 57 168 41 q 136 95 136 73 q 152 133 136 117 q 190 149 168 149 q 228 133 212 149 q 244 95 244 117 m 434 95 q 418 57 434 73 q 380 41 402 41 q 341 57 357 41 q 326 95 326 73 q 341 133 326 117 q 380 149 357 149 q 418 133 402 149 q 434 95 434 117 m 624 95 q 608 57 624 73 q 570 41 592 41 q 531 57 547 41 q 515 95 515 73 q 531 133 515 117 q 570 149 547 149 q 608 133 592 149 q 624 95 624 117 z "},"3":{"ha":760,"x_min":136,"x_max":624,"o":"m 244 854 q 228 816 244 832 q 190 800 212 800 q 152 816 168 800 q 136 854 136 832 q 152 893 136 877 q 190 909 168 909 q 228 893 212 909 q 244 854 244 877 m 434 854 q 418 816 434 832 q 380 800 402 800 q 341 816 357 800 q 326 854 326 832 q 341 893 326 877 q 380 909 357 909 q 418 893 402 909 q 434 854 434 877 m 624 665 q 608 626 624 642 q 570 610 592 610 q 531 626 547 610 q 515 665 515 642 q 531 703 515 687 q 570 719 547 719 q 608 703 592 719 q 624 665 624 687 m 244 475 q 228 436 244 452 q 190 420 212 420 q 152 436 168 420 q 136 475 136 452 q 152 513 136 497 q 190 529 168 529 q 228 513 212 529 q 244 475 244 497 m 434 475 q 418 436 434 452 q 380 420 402 420 q 341 436 357 420 q 326 475 326 452 q 341 513 326 497 q 380 529 357 529 q 418 513 402 529 q 434 475 434 497 m 624 475 q 608 436 624 452 q 570 420 592 420 q 531 436 547 420 q 515 475 515 452 q 531 513 515 497 q 570 529 547 529 q 608 513 592 529 q 624 475 624 497 m 624 285 q 608 247 624 262 q 570 231 592 231 q 531 247 547 231 q 515 285 515 262 q 531 323 515 307 q 570 339 547 339 q 608 323 592 339 q 624 285 624 307 m 244 95 q 228 57 244 73 q 190 41 212 41 q 152 57 168 41 q 136 95 136 73 q 152 133 136 117 q 190 149 168 149 q 228 133 212 149 q 244 95 244 117 m 434 95 q 418 57 434 73 q 380 41 402 41 q 341 57 357 41 q 326 95 326 73 q 341 133 326 117 q 380 149 357 149 q 418 133 402 149 q 434 95 434 117 z "},"4":{"ha":760,"x_min":136,"x_max":624,"o":"m 244 854 q 228 816 244 832 q 190 800 212 800 q 152 816 168 800 q 136 854 136 832 q 152 893 136 877 q 190 909 168 909 q 228 893 212 909 q 244 854 244 877 m 624 854 q 608 816 624 832 q 570 800 592 800 q 531 816 547 800 q 515 854 515 832 q 531 893 515 877 q 570 909 547 909 q 608 893 592 909 q 624 854 624 877 m 244 665 q 228 626 244 642 q 190 610 212 610 q 152 626 168 610 q 136 665 136 642 q 152 703 136 687 q 190 719 168 719 q 228 703 212 719 q 244 665 244 687 m 624 665 q 608 626 624 642 q 570 610 592 610 q 531 626 547 610 q 515 665 515 642 q 531 703 515 687 q 570 719 547 719 q 608 703 592 719 q 624 665 624 687 m 244 475 q 228 436 244 452 q 190 420 212 420 q 152 436 168 420 q 136 475 136 452 q 152 513 136 497 q 190 529 168 529 q 228 513 212 529 q 244 475 244 497 m 434 475 q 418 436 434 452 q 380 420 402 420 q 341 436 357 420 q 326 475 326 452 q 341 513 326 497 q 380 529 357 529 q 418 513 402 529 q 434 475 434 497 m 624 475 q 608 436 624 452 q 570 420 592 420 q 531 436 547 420 q 515 475 515 452 q 531 513 515 497 q 570 529 547 529 q 608 513 592 529 q 624 475 624 497 m 624 285 q 608 247 624 262 q 570 231 592 231 q 531 247 547 231 q 515 285 515 262 q 531 323 515 307 q 570 339 547 339 q 608 323 592 339 q 624 285 624 307 m 624 95 q 608 57 624 73 q 570 41 592 41 q 531 57 547 41 q 515 95 515 73 q 531 133 515 117 q 570 149 547 149 q 608 133 592 149 q 624 95 624 117 z "},"5":{"ha":760,"x_min":136,"x_max":624,"o":"m 244 854 q 228 816 244 832 q 190 800 212 800 q 152 816 168 800 q 136 854 136 832 q 152 893 136 877 q 190 909 168 909 q 228 893 212 909 q 244 854 244 877 m 434 854 q 418 816 434 832 q 380 800 402 800 q 341 816 357 800 q 326 854 326 832 q 341 893 326 877 q 380 909 357 909 q 418 893 402 909 q 434 854 434 877 m 624 854 q 608 816 624 832 q 570 800 592 800 q 531 816 547 800 q 515 854 515 832 q 531 893 515 877 q 570 909 547 909 q 608 893 592 909 q 624 854 624 877 m 244 665 q 228 626 244 642 q 190 610 212 610 q 152 626 168 610 q 136 665 136 642 q 152 703 136 687 q 190 719 168 719 q 228 703 212 719 q 244 665 244 687 m 244 475 q 228 436 244 452 q 190 420 212 420 q 152 436 168 420 q 136 475 136 452 q 152 513 136 497 q 190 529 168 529 q 228 513 212 529 q 244 475 244 497 m 434 475 q 418 436 434 452 q 380 420 402 420 q 341 436 357 420 q 326 475 326 452 q 341 513 326 497 q 380 529 357 529 q 418 513 402 529 q 434 475 434 497 m 624 475 q 608 436 624 452 q 570 420 592 420 q 531 436 547 420 q 515 475 515 452 q 531 513 515 497 q 570 529 547 529 q 608 513 592 529 q 624 475 624 497 m 624 285 q 608 247 624 262 q 570 231 592 231 q 531 247 547 231 q 515 285 515 262 q 531 323 515 307 q 570 339 547 339 q 608 323 592 339 q 624 285 624 307 m 244 95 q 228 57 244 73 q 190 41 212 41 q 152 57 168 41 q 136 95 136 73 q 152 133 136 117 q 190 149 168 149 q 228 133 212 149 q 244 95 244 117 m 434 95 q 418 57 434 73 q 380 41 402 41 q 341 57 357 41 q 326 95 326 73 q 341 133 326 117 q 380 149 357 149 q 418 133 402 149 q 434 95 434 117 z "},"6":{"ha":760,"x_min":136,"x_max":624,"o":"m 434 854 q 418 816 434 832 q 380 800 402 800 q 341 816 357 800 q 326 854 326 832 q 341 893 326 877 q 380 909 357 909 q 418 893 402 909 q 434 854 434 877 m 624 854 q 608 816 624 832 q 570 800 592 800 q 531 816 547 800 q 515 854 515 832 q 531 893 515 877 q 570 909 547 909 q 608 893 592 909 q 624 854 624 877 m 244 665 q 228 626 244 642 q 190 610 212 610 q 152 626 168 610 q 136 665 136 642 q 152 703 136 687 q 190 719 168 719 q 228 703 212 719 q 244 665 244 687 m 244 475 q 228 436 244 452 q 190 420 212 420 q 152 436 168 420 q 136 475 136 452 q 152 513 136 497 q 190 529 168 529 q 228 513 212 529 q 244 475 244 497 m 434 475 q 418 436 434 452 q 380 420 402 420 q 341 436 357 420 q 326 475 326 452 q 341 513 326 497 q 380 529 357 529 q 418 513 402 529 q 434 475 434 497 m 624 475 q 608 436 624 452 q 570 420 592 420 q 531 436 547 420 q 515 475 515 452 q 531 513 515 497 q 570 529 547 529 q 608 513 592 529 q 624 475 624 497 m 244 285 q 228 247 244 262 q 190 231 212 231 q 152 247 168 231 q 136 285 136 262 q 152 323 136 307 q 190 339 168 339 q 228 323 212 339 q 244 285 244 307 m 624 285 q 608 247 624 262 q 570 231 592 231 q 531 247 547 231 q 515 285 515 262 q 531 323 515 307 q 570 339 547 339 q 608 323 592 339 q 624 285 624 307 m 244 95 q 228 57 244 73 q 190 41 212 41 q 152 57 168 41 q 136 95 136 73 q 152 133 136 117 q 190 149 168 149 q 228 133 212 149 q 244 95 244 117 m 434 95 q 418 57 434 73 q 380 41 402 41 q 341 57 357 41 q 326 95 326 73 q 341 133 326 117 q 380 149 357 149 q 418 133 402 149 q 434 95 434 117 m 624 95 q 608 57 624 73 q 570 41 592 41 q 531 57 547 41 q 515 95 515 73 q 531 133 515 117 q 570 149 547 149 q 608 133 592 149 q 624 95 624 117 z "},"7":{"ha":760,"x_min":136,"x_max":624,"o":"m 244 854 q 228 816 244 832 q 190 800 212 800 q 152 816 168 800 q 136 854 136 832 q 152 893 136 877 q 190 909 168 909 q 228 893 212 909 q 244 854 244 877 m 434 854 q 418 816 434 832 q 380 800 402 800 q 341 816 357 800 q 326 854 326 832 q 341 893 326 877 q 380 909 357 909 q 418 893 402 909 q 434 854 434 877 m 624 854 q 608 816 624 832 q 570 800 592 800 q 531 816 547 800 q 515 854 515 832 q 531 893 515 877 q 570 909 547 909 q 608 893 592 909 q 624 854 624 877 m 624 665 q 608 626 624 642 q 570 610 592 610 q 531 626 547 610 q 515 665 515 642 q 531 703 515 687 q 570 719 547 719 q 608 703 592 719 q 624 665 624 687 m 434 475 q 418 436 434 452 q 380 420 402 420 q 341 436 357 420 q 326 475 326 452 q 341 513 326 497 q 380 529 357 529 q 418 513 402 529 q 434 475 434 497 m 434 285 q 418 247 434 262 q 380 231 402 231 q 341 247 357 231 q 326 285 326 262 q 341 323 326 307 q 380 339 357 339 q 418 323 402 339 q 434 285 434 307 m 434 95 q 418 57 434 73 q 380 41 402 41 q 341 57 357 41 q 326 95 326 73 q 341 133 326 117 q 380 149 357 149 q 418 133 402 149 q 434 95 434 117 z "},"8":{"ha":760,"x_min":136,"x_max":624,"o":"m 244 854 q 228 816 244 832 q 190 800 212 800 q 152 816 168 800 q 136 854 136 832 q 152 893 136 877 q 190 909 168 909 q 228 893 212 909 q 244 854 244 877 m 434 854 q 418 816 434 832 q 380 800 402 800 q 341 816 357 800 q 326 854 326 832 q 341 893 326 877 q 380 909 357 909 q 418 893 402 909 q 434 854 434 877 m 624 854 q 608 816 624 832 q 570 800 592 800 q 531 816 547 800 q 515 854 515 832 q 531 893 515 877 q 570 909 547 909 q 608 893 592 909 q 624 854 624 877 m 244 665 q 228 626 244 642 q 190 610 212 610 q 152 626 168 610 q 136 665 136 642 q 152 703 136 687 q 190 719 168 719 q 228 703 212 719 q 244 665 244 687 m 624 665 q 608 626 624 642 q 570 610 592 610 q 531 626 547 610 q 515 665 515 642 q 531 703 515 687 q 570 719 547 719 q 608 703 592 719 q 624 665 624 687 m 434 475 q 418 436 434 452 q 380 420 402 420 q 341 436 357 420 q 326 475 326 452 q 341 513 326 497 q 380 529 357 529 q 418 513 402 529 q 434 475 434 497 m 244 285 q 228 247 244 262 q 190 231 212 231 q 152 247 168 231 q 136 285 136 262 q 152 323 136 307 q 190 339 168 339 q 228 323 212 339 q 244 285 244 307 m 624 285 q 608 247 624 262 q 570 231 592 231 q 531 247 547 231 q 515 285 515 262 q 531 323 515 307 q 570 339 547 339 q 608 323 592 339 q 624 285 624 307 m 244 95 q 228 57 244 73 q 190 41 212 41 q 152 57 168 41 q 136 95 136 73 q 152 133 136 117 q 190 149 168 149 q 228 133 212 149 q 244 95 244 117 m 434 95 q 418 57 434 73 q 380 41 402 41 q 341 57 357 41 q 326 95 326 73 q 341 133 326 117 q 380 149 357 149 q 418 133 402 149 q 434 95 434 117 m 624 95 q 608 57 624 73 q 570 41 592 41 q 531 57 547 41 q 515 95 515 73 q 531 133 515 117 q 570 149 547 149 q 608 133 592 149 q 624 95 624 117 z "},"9":{"ha":760,"x_min":136,"x_max":624,"o":"m 244 854 q 228 816 244 832 q 190 800 212 800 q 152 816 168 800 q 136 854 136 832 q 152 893 136 877 q 190 909 168 909 q 228 893 212 909 q 244 854 244 877 m 434 854 q 418 816 434 832 q 380 800 402 800 q 341 816 357 800 q 326 854 326 832 q 341 893 326 877 q 380 909 357 909 q 418 893 402 909 q 434 854 434 877 m 624 854 q 608 816 624 832 q 570 800 592 800 q 531 816 547 800 q 515 854 515 832 q 531 893 515 877 q 570 909 547 909 q 608 893 592 909 q 624 854 624 877 m 244 665 q 228 626 244 642 q 190 610 212 610 q 152 626 168 610 q 136 665 136 642 q 152 703 136 687 q 190 719 168 719 q 228 703 212 719 q 244 665 244 687 m 624 665 q 608 626 624 642 q 570 610 592 610 q 531 626 547 610 q 515 665 515 642 q 531 703 515 687 q 570 719 547 719 q 608 703 592 719 q 624 665 624 687 m 244 475 q 228 436 244 452 q 190 420 212 420 q 152 436 168 420 q 136 475 136 452 q 152 513 136 497 q 190 529 168 529 q 228 513 212 529 q 244 475 244 497 m 434 475 q 418 436 434 452 q 380 420 402 420 q 341 436 357 420 q 326 475 326 452 q 341 513 326 497 q 380 529 357 529 q 418 513 402 529 q 434 475 434 497 m 624 475 q 608 436 624 452 q 570 420 592 420 q 531 436 547 420 q 515 475 515 452 q 531 513 515 497 q 570 529 547 529 q 608 513 592 529 q 624 475 624 497 m 624 285 q 608 247 624 262 q 570 231 592 231 q 531 247 547 231 q 515 285 515 262 q 531 323 515 307 q 570 339 547 339 q 608 323 592 339 q 624 285 624 307 m 244 95 q 228 57 244 73 q 190 41 212 41 q 152 57 168 41 q 136 95 136 73 q 152 133 136 117 q 190 149 168 149 q 228 133 212 149 q 244 95 244 117 m 434 95 q 418 57 434 73 q 380 41 402 41 q 341 57 357 41 q 326 95 326 73 q 341 133 326 117 q 380 149 357 149 q 418 133 402 149 q 434 95 434 117 z "},"\u0000":{"ha":760,"x_min":136,"x_max":624,"o":"m 190 800 q 152 816 168 800 q 136 854 136 832 q 152 893 136 877 q 190 909 168 909 q 228 893 212 909 q 244 854 244 877 q 228 816 244 832 q 190 800 212 800 m 380 800 q 341 816 357 800 q 326 854 326 832 q 341 893 326 877 q 380 909 357 909 q 418 893 402 909 q 434 854 434 877 q 418 816 434 832 q 380 800 402 800 m 570 800 q 531 816 547 800 q 515 854 515 832 q 531 893 515 877 q 570 909 547 909 q 608 893 592 909 q 624 854 624 877 q 608 816 624 832 q 570 800 592 800 m 190 610 q 152 626 168 610 q 136 665 136 642 q 152 703 136 687 q 190 719 168 719 q 228 703 212 719 q 244 665 244 687 q 228 626 244 642 q 190 610 212 610 m 380 610 q 341 626 357 610 q 326 665 326 642 q 341 703 326 687 q 380 719 357 719 q 418 703 402 719 q 434 665 434 687 q 418 626 434 642 q 380 610 402 610 m 570 610 q 531 626 547 610 q 515 665 515 642 q 531 703 515 687 q 570 719 547 719 q 608 703 592 719 q 624 665 624 687 q 608 626 624 642 q 570 610 592 610 m 190 420 q 152 436 168 420 q 136 475 136 452 q 152 513 136 497 q 190 529 168 529 q 228 513 212 529 q 244 475 244 497 q 228 436 244 452 q 190 420 212 420 m 380 420 q 341 436 357 420 q 326 475 326 452 q 341 513 326 497 q 380 529 357 529 q 418 513 402 529 q 434 475 434 497 q 418 436 434 452 q 380 420 402 420 m 570 420 q 531 436 547 420 q 515 475 515 452 q 531 513 515 497 q 570 529 547 529 q 608 513 592 529 q 624 475 624 497 q 608 436 624 452 q 570 420 592 420 m 190 231 q 152 247 168 231 q 136 285 136 262 q 152 323 136 307 q 190 339 168 339 q 228 323 212 339 q 244 285 244 307 q 228 247 244 262 q 190 231 212 231 m 380 231 q 341 247 357 231 q 326 285 326 262 q 341 323 326 307 q 380 339 357 339 q 418 323 402 339 q 434 285 434 307 q 418 247 434 262 q 380 231 402 231 m 570 231 q 531 247 547 231 q 515 285 515 262 q 531 323 515 307 q 570 339 547 339 q 608 323 592 339 q 624 285 624 307 q 608 247 624 262 q 570 231 592 231 m 190 41 q 152 57 168 41 q 136 95 136 73 q 152 133 136 117 q 190 149 168 149 q 228 133 212 149 q 244 95 244 117 q 228 57 244 73 q 190 41 212 41 m 380 41 q 341 57 357 41 q 326 95 326 73 q 341 133 326 117 q 380 149 357 149 q 418 133 402 149 q 434 95 434 117 q 418 57 434 73 q 380 41 402 41 m 570 41 q 531 57 547 41 q 515 95 515 73 q 531 133 515 117 q 570 149 547 149 q 608 133 592 149 q 624 95 624 117 q 608 57 624 73 q 570 41 592 41 z "},"\u001d":{"ha":760,"x_min":136,"x_max":624,"o":"m 190 800 q 152 816 168 800 q 136 854 136 832 q 152 893 136 877 q 190 909 168 909 q 228 893 212 909 q 244 854 244 877 q 228 816 244 832 q 190 800 212 800 m 380 800 q 341 816 357 800 q 326 854 326 832 q 341 893 326 877 q 380 909 357 909 q 418 893 402 909 q 434 854 434 877 q 418 816 434 832 q 380 800 402 800 m 570 800 q 531 816 547 800 q 515 854 515 832 q 531 893 515 877 q 570 909 547 909 q 608 893 592 909 q 624 854 624 877 q 608 816 624 832 q 570 800 592 800 m 190 610 q 152 626 168 610 q 136 665 136 642 q 152 703 136 687 q 190 719 168 719 q 228 703 212 719 q 244 665 244 687 q 228 626 244 642 q 190 610 212 610 m 380 610 q 341 626 357 610 q 326 665 326 642 q 341 703 326 687 q 380 719 357 719 q 418 703 402 719 q 434 665 434 687 q 418 626 434 642 q 380 610 402 610 m 570 610 q 531 626 547 610 q 515 665 515 642 q 531 703 515 687 q 570 719 547 719 q 608 703 592 719 q 624 665 624 687 q 608 626 624 642 q 570 610 592 610 m 190 420 q 152 436 168 420 q 136 475 136 452 q 152 513 136 497 q 190 529 168 529 q 228 513 212 529 q 244 475 244 497 q 228 436 244 452 q 190 420 212 420 m 380 420 q 341 436 357 420 q 326 475 326 452 q 341 513 326 497 q 380 529 357 529 q 418 513 402 529 q 434 475 434 497 q 418 436 434 452 q 380 420 402 420 m 570 420 q 531 436 547 420 q 515 475 515 452 q 531 513 515 497 q 570 529 547 529 q 608 513 592 529 q 624 475 624 497 q 608 436 624 452 q 570 420 592 420 m 190 231 q 152 247 168 231 q 136 285 136 262 q 152 323 136 307 q 190 339 168 339 q 228 323 212 339 q 244 285 244 307 q 228 247 244 262 q 190 231 212 231 m 380 231 q 341 247 357 231 q 326 285 326 262 q 341 323 326 307 q 380 339 357 339 q 418 323 402 339 q 434 285 434 307 q 418 247 434 262 q 380 231 402 231 m 570 231 q 531 247 547 231 q 515 285 515 262 q 531 323 515 307 q 570 339 547 339 q 608 323 592 339 q 624 285 624 307 q 608 247 624 262 q 570 231 592 231 m 190 41 q 152 57 168 41 q 136 95 136 73 q 152 133 136 117 q 190 149 168 149 q 228 133 212 149 q 244 95 244 117 q 228 57 244 73 q 190 41 212 41 m 380 41 q 341 57 357 41 q 326 95 326 73 q 341 133 326 117 q 380 149 357 149 q 418 133 402 149 q 434 95 434 117 q 418 57 434 73 q 380 41 402 41 m 570 41 q 531 57 547 41 q 515 95 515 73 q 531 133 515 117 q 570 149 547 149 q 608 133 592 149 q 624 95 624 117 q 608 57 624 73 q 570 41 592 41 z "}," ":{"ha":760,"x_min":0,"x_max":0,"o":""}," ":{"ha":760,"x_min":0,"x_max":0,"o":""},"!":{"ha":760,"x_min":326,"x_max":434,"o":"m 380 800 q 341 816 357 800 q 326 854 326 832 q 341 893 326 877 q 380 909 357 909 q 418 893 402 909 q 434 854 434 877 q 418 816 434 832 q 380 800 402 800 m 380 610 q 341 626 357 610 q 326 665 326 642 q 341 703 326 687 q 380 719 357 719 q 418 703 402 719 q 434 665 434 687 q 418 626 434 642 q 380 610 402 610 m 380 420 q 341 436 357 420 q 326 475 326 452 q 341 513 326 497 q 380 529 357 529 q 418 513 402 529 q 434 475 434 497 q 418 436 434 452 q 380 420 402 420 m 380 41 q 341 57 357 41 q 326 95 326 73 q 341 133 326 117 q 380 149 357 149 q 418 133 402 149 q 434 95 434 117 q 418 57 434 73 q 380 41 402 41 z "},"\"":{"ha":760,"x_min":136,"x_max":624,"o":"m 190 800 q 152 816 168 800 q 136 854 136 832 q 152 893 136 877 q 190 909 168 909 q 228 893 212 909 q 244 854 244 877 q 228 816 244 832 q 190 800 212 800 m 570 800 q 531 816 547 800 q 515 854 515 832 q 531 893 515 877 q 570 909 547 909 q 608 893 592 909 q 624 854 624 877 q 608 816 624 832 q 570 800 592 800 m 190 610 q 152 626 168 610 q 136 665 136 642 q 152 703 136 687 q 190 719 168 719 q 228 703 212 719 q 244 665 244 687 q 228 626 244 642 q 190 610 212 610 m 570 610 q 531 626 547 610 q 515 665 515 642 q 531 703 515 687 q 570 719 547 719 q 608 703 592 719 q 624 665 624 687 q 608 626 624 642 q 570 610 592 610 z "},"#":{"ha":760,"x_min":136,"x_max":624,"o":"m 244 854 q 228 816 244 832 q 190 800 212 800 q 152 816 168 800 q 136 854 136 832 q 152 893 136 877 q 190 909 168 909 q 228 893 212 909 q 244 854 244 877 m 624 854 q 608 816 624 832 q 570 800 592 800 q 531 816 547 800 q 515 854 515 832 q 531 893 515 877 q 570 909 547 909 q 608 893 592 909 q 624 854 624 877 m 244 665 q 228 626 244 642 q 190 610 212 610 q 152 626 168 610 q 136 665 136 642 q 152 703 136 687 q 190 719 168 719 q 228 703 212 719 q 244 665 244 687 m 434 665 q 418 626 434 642 q 380 610 402 610 q 341 626 357 610 q 326 665 326 642 q 341 703 326 687 q 380 719 357 719 q 418 703 402 719 q 434 665 434 687 m 624 665 q 608 626 624 642 q 570 610 592 610 q 531 626 547 610 q 515 665 515 642 q 531 703 515 687 q 570 719 547 719 q 608 703 592 719 q 624 665 624 687 m 244 475 q 228 436 244 452 q 190 420 212 420 q 152 436 168 420 q 136 475 136 452 q 152 513 136 497 q 190 529 168 529 q 228 513 212 529 q 244 475 244 497 m 624 475 q 608 436 624 452 q 570 420 592 420 q 531 436 547 420 q 515 475 515 452 q 531 513 515 497 q 570 529 547 529 q 608 513 592 529 q 624 475 624 497 m 244 285 q 228 247 244 262 q 190 231 212 231 q 152 247 168 231 q 136 285 136 262 q 152 323 136 307 q 190 339 168 339 q 228 323 212 339 q 244 285 244 307 m 434 285 q 418 247 434 262 q 380 231 402 231 q 341 247 357 231 q 326 285 326 262 q 341 323 326 307 q 380 339 357 339 q 418 323 402 339 q 434 285 434 307 m 624 285 q 608 247 624 262 q 570 231 592 231 q 531 247 547 231 q 515 285 515 262 q 531 323 515 307 q 570 339 547 339 q 608 323 592 339 q 624 285 624 307 m 244 95 q 228 57 244 73 q 190 41 212 41 q 152 57 168 41 q 136 95 136 73 q 152 133 136 117 q 190 149 168 149 q 228 133 212 149 q 244 95 244 117 m 624 95 q 608 57 624 73 q 570 41 592 41 q 531 57 547 41 q 515 95 515 73 q 531 133 515 117 q 570 149 547 149 q 608 133 592 149 q 624 95 624 117 z "},"%":{"ha":760,"x_min":136,"x_max":624,"o":"m 244 854 q 228 816 244 832 q 190 800 212 800 q 152 816 168 800 q 136 854 136 832 q 152 893 136 877 q 190 909 168 909 q 228 893 212 909 q 244 854 244 877 m 624 854 q 608 816 624 832 q 570 800 592 800 q 531 816 547 800 q 515 854 515 832 q 531 893 515 877 q 570 909 547 909 q 608 893 592 909 q 624 854 624 877 m 624 665 q 608 626 624 642 q 570 610 592 610 q 531 626 547 610 q 515 665 515 642 q 531 703 515 687 q 570 719 547 719 q 608 703 592 719 q 624 665 624 687 m 434 475 q 418 436 434 452 q 380 420 402 420 q 341 436 357 420 q 326 475 326 452 q 341 513 326 497 q 380 529 357 529 q 418 513 402 529 q 434 475 434 497 m 244 285 q 228 247 244 262 q 190 231 212 231 q 152 247 168 231 q 136 285 136 262 q 152 323 136 307 q 190 339 168 339 q 228 323 212 339 q 244 285 244 307 m 244 95 q 228 57 244 73 q 190 41 212 41 q 152 57 168 41 q 136 95 136 73 q 152 133 136 117 q 190 149 168 149 q 228 133 212 149 q 244 95 244 117 m 624 95 q 608 57 624 73 q 570 41 592 41 q 531 57 547 41 q 515 95 515 73 q 531 133 515 117 q 570 149 547 149 q 608 133 592 149 q 624 95 624 117 z "},"'":{"ha":760,"x_min":326,"x_max":434,"o":"m 434 854 q 418 816 434 832 q 380 800 402 800 q 341 816 357 800 q 326 854 326 832 q 341 893 326 877 q 380 909 357 909 q 418 893 402 909 q 434 854 434 877 m 434 665 q 418 626 434 642 q 380 610 402 610 q 341 626 357 610 q 326 665 326 642 q 341 703 326 687 q 380 719 357 719 q 418 703 402 719 q 434 665 434 687 z "},"(":{"ha":760,"x_min":136,"x_max":434,"o":"m 434 854 q 418 816 434 832 q 380 800 402 800 q 341 816 357 800 q 326 854 326 832 q 341 893 326 877 q 380 909 357 909 q 418 893 402 909 q 434 854 434 877 m 244 665 q 228 626 244 642 q 190 610 212 610 q 152 626 168 610 q 136 665 136 642 q 152 703 136 687 q 190 719 168 719 q 228 703 212 719 q 244 665 244 687 m 244 475 q 228 436 244 452 q 190 420 212 420 q 152 436 168 420 q 136 475 136 452 q 152 513 136 497 q 190 529 168 529 q 228 513 212 529 q 244 475 244 497 m 244 285 q 228 247 244 262 q 190 231 212 231 q 152 247 168 231 q 136 285 136 262 q 152 323 136 307 q 190 339 168 339 q 228 323 212 339 q 244 285 244 307 m 434 95 q 418 57 434 73 q 380 41 402 41 q 341 57 357 41 q 326 95 326 73 q 341 133 326 117 q 380 149 357 149 q 418 133 402 149 q 434 95 434 117 z "},")":{"ha":760,"x_min":326,"x_max":624,"o":"m 434 854 q 418 816 434 832 q 380 800 402 800 q 341 816 357 800 q 326 854 326 832 q 341 893 326 877 q 380 909 357 909 q 418 893 402 909 q 434 854 434 877 m 624 665 q 608 626 624 642 q 570 610 592 610 q 531 626 547 610 q 515 665 515 642 q 531 703 515 687 q 570 719 547 719 q 608 703 592 719 q 624 665 624 687 m 624 475 q 608 436 624 452 q 570 420 592 420 q 531 436 547 420 q 515 475 515 452 q 531 513 515 497 q 570 529 547 529 q 608 513 592 529 q 624 475 624 497 m 624 285 q 608 247 624 262 q 570 231 592 231 q 531 247 547 231 q 515 285 515 262 q 531 323 515 307 q 570 339 547 339 q 608 323 592 339 q 624 285 624 307 m 434 95 q 418 57 434 73 q 380 41 402 41 q 341 57 357 41 q 326 95 326 73 q 341 133 326 117 q 380 149 357 149 q 418 133 402 149 q 434 95 434 117 z "},"*":{"ha":760,"x_min":136,"x_max":624,"o":"m 434 854 q 418 816 434 832 q 380 800 402 800 q 341 816 357 800 q 326 854 326 832 q 341 893 326 877 q 380 909 357 909 q 418 893 402 909 q 434 854 434 877 m 244 665 q 228 626 244 642 q 190 610 212 610 q 152 626 168 610 q 136 665 136 642 q 152 703 136 687 q 190 719 168 719 q 228 703 212 719 q 244 665 244 687 m 624 665 q 608 626 624 642 q 570 610 592 610 q 531 626 547 610 q 515 665 515 642 q 531 703 515 687 q 570 719 547 719 q 608 703 592 719 q 624 665 624 687 m 434 475 q 418 436 434 452 q 380 420 402 420 q 341 436 357 420 q 326 475 326 452 q 341 513 326 497 q 380 529 357 529 q 418 513 402 529 q 434 475 434 497 z "},"+":{"ha":760,"x_min":136,"x_max":624,"o":"m 434 665 q 418 626 434 642 q 380 610 402 610 q 341 626 357 610 q 326 665 326 642 q 341 703 326 687 q 380 719 357 719 q 418 703 402 719 q 434 665 434 687 m 244 475 q 228 436 244 452 q 190 420 212 420 q 152 436 168 420 q 136 475 136 452 q 152 513 136 497 q 190 529 168 529 q 228 513 212 529 q 244 475 244 497 m 434 475 q 418 436 434 452 q 380 420 402 420 q 341 436 357 420 q 326 475 326 452 q 341 513 326 497 q 380 529 357 529 q 418 513 402 529 q 434 475 434 497 m 624 475 q 608 436 624 452 q 570 420 592 420 q 531 436 547 420 q 515 475 515 452 q 531 513 515 497 q 570 529 547 529 q 608 513 592 529 q 624 475 624 497 m 434 285 q 418 247 434 262 q 380 231 402 231 q 341 247 357 231 q 326 285 326 262 q 341 323 326 307 q 380 339 357 339 q 418 323 402 339 q 434 285 434 307 z "},",":{"ha":760,"x_min":326,"x_max":434,"o":"m 434 285 q 418 247 434 262 q 380 231 402 231 q 341 247 357 231 q 326 285 326 262 q 341 323 326 307 q 380 339 357 339 q 418 323 402 339 q 434 285 434 307 m 434 95 q 418 57 434 73 q 380 41 402 41 q 341 57 357 41 q 326 95 326 73 q 341 133 326 117 q 380 149 357 149 q 418 133 402 149 q 434 95 434 117 z "},"-":{"ha":760,"x_min":136,"x_max":624,"o":"m 244 475 q 228 436 244 452 q 190 420 212 420 q 152 436 168 420 q 136 475 136 452 q 152 513 136 497 q 190 529 168 529 q 228 513 212 529 q 244 475 244 497 m 434 475 q 418 436 434 452 q 380 420 402 420 q 341 436 357 420 q 326 475 326 452 q 341 513 326 497 q 380 529 357 529 q 418 513 402 529 q 434 475 434 497 m 624 475 q 608 436 624 452 q 570 420 592 420 q 531 436 547 420 q 515 475 515 452 q 531 513 515 497 q 570 529 547 529 q 608 513 592 529 q 624 475 624 497 z "},"­":{"ha":760,"x_min":136,"x_max":624,"o":"m 244 475 q 228 436 244 452 q 190 420 212 420 q 152 436 168 420 q 136 475 136 452 q 152 513 136 497 q 190 529 168 529 q 228 513 212 529 q 244 475 244 497 m 434 475 q 418 436 434 452 q 380 420 402 420 q 341 436 357 420 q 326 475 326 452 q 341 513 326 497 q 380 529 357 529 q 418 513 402 529 q 434 475 434 497 m 624 475 q 608 436 624 452 q 570 420 592 420 q 531 436 547 420 q 515 475 515 452 q 531 513 515 497 q 570 529 547 529 q 608 513 592 529 q 624 475 624 497 z "},".":{"ha":760,"x_min":326,"x_max":434,"o":"m 434 95 q 418 57 434 73 q 380 41 402 41 q 341 57 357 41 q 326 95 326 73 q 341 133 326 117 q 380 149 357 149 q 418 133 402 149 q 434 95 434 117 z "},"/":{"ha":760,"x_min":136,"x_max":624,"o":"m 624 854 q 608 816 624 832 q 570 800 592 800 q 531 816 547 800 q 515 854 515 832 q 531 893 515 877 q 570 909 547 909 q 608 893 592 909 q 624 854 624 877 m 624 665 q 608 626 624 642 q 570 610 592 610 q 531 626 547 610 q 515 665 515 642 q 531 703 515 687 q 570 719 547 719 q 608 703 592 719 q 624 665 624 687 m 434 475 q 418 436 434 452 q 380 420 402 420 q 341 436 357 420 q 326 475 326 452 q 341 513 326 497 q 380 529 357 529 q 418 513 402 529 q 434 475 434 497 m 244 285 q 228 247 244 262 q 190 231 212 231 q 152 247 168 231 q 136 285 136 262 q 152 323 136 307 q 190 339 168 339 q 228 323 212 339 q 244 285 244 307 m 244 95 q 228 57 244 73 q 190 41 212 41 q 152 57 168 41 q 136 95 136 73 q 152 133 136 117 q 190 149 168 149 q 228 133 212 149 q 244 95 244 117 z "},":":{"ha":760,"x_min":326,"x_max":434,"o":"m 434 665 q 418 626 434 642 q 380 610 402 610 q 341 626 357 610 q 326 665 326 642 q 341 703 326 687 q 380 719 357 719 q 418 703 402 719 q 434 665 434 687 m 434 285 q 418 247 434 262 q 380 231 402 231 q 341 247 357 231 q 326 285 326 262 q 341 323 326 307 q 380 339 357 339 q 418 323 402 339 q 434 285 434 307 z "},";":{"ha":760,"x_min":326,"x_max":434,"o":"m 434 665 q 418 626 434 642 q 380 610 402 610 q 341 626 357 610 q 326 665 326 642 q 341 703 326 687 q 380 719 357 719 q 418 703 402 719 q 434 665 434 687 m 434 285 q 418 247 434 262 q 380 231 402 231 q 341 247 357 231 q 326 285 326 262 q 341 323 326 307 q 380 339 357 339 q 418 323 402 339 q 434 285 434 307 m 434 95 q 418 57 434 73 q 380 41 402 41 q 341 57 357 41 q 326 95 326 73 q 341 133 326 117 q 380 149 357 149 q 418 133 402 149 q 434 95 434 117 z "},"<":{"ha":760,"x_min":136,"x_max":624,"o":"m 624 854 q 608 816 624 832 q 570 800 592 800 q 531 816 547 800 q 515 854 515 832 q 531 893 515 877 q 570 909 547 909 q 608 893 592 909 q 624 854 624 877 m 434 665 q 418 626 434 642 q 380 610 402 610 q 341 626 357 610 q 326 665 326 642 q 341 703 326 687 q 380 719 357 719 q 418 703 402 719 q 434 665 434 687 m 244 475 q 228 436 244 452 q 190 420 212 420 q 152 436 168 420 q 136 475 136 452 q 152 513 136 497 q 190 529 168 529 q 228 513 212 529 q 244 475 244 497 m 434 285 q 418 247 434 262 q 380 231 402 231 q 341 247 357 231 q 326 285 326 262 q 341 323 326 307 q 380 339 357 339 q 418 323 402 339 q 434 285 434 307 m 624 95 q 608 57 624 73 q 570 41 592 41 q 531 57 547 41 q 515 95 515 73 q 531 133 515 117 q 570 149 547 149 q 608 133 592 149 q 624 95 624 117 z "},"=":{"ha":760,"x_min":136,"x_max":624,"o":"m 244 665 q 228 626 244 642 q 190 610 212 610 q 152 626 168 610 q 136 665 136 642 q 152 703 136 687 q 190 719 168 719 q 228 703 212 719 q 244 665 244 687 m 434 665 q 418 626 434 642 q 380 610 402 610 q 341 626 357 610 q 326 665 326 642 q 341 703 326 687 q 380 719 357 719 q 418 703 402 719 q 434 665 434 687 m 624 665 q 608 626 624 642 q 570 610 592 610 q 531 626 547 610 q 515 665 515 642 q 531 703 515 687 q 570 719 547 719 q 608 703 592 719 q 624 665 624 687 m 244 285 q 228 247 244 262 q 190 231 212 231 q 152 247 168 231 q 136 285 136 262 q 152 323 136 307 q 190 339 168 339 q 228 323 212 339 q 244 285 244 307 m 434 285 q 418 247 434 262 q 380 231 402 231 q 341 247 357 231 q 326 285 326 262 q 341 323 326 307 q 380 339 357 339 q 418 323 402 339 q 434 285 434 307 m 624 285 q 608 247 624 262 q 570 231 592 231 q 531 247 547 231 q 515 285 515 262 q 531 323 515 307 q 570 339 547 339 q 608 323 592 339 q 624 285 624 307 z "},">":{"ha":760,"x_min":136,"x_max":624,"o":"m 136 854 q 152 893 136 877 q 190 909 168 909 q 228 893 212 909 q 244 854 244 877 q 228 816 244 832 q 190 800 212 800 q 152 816 168 800 q 136 854 136 832 m 326 665 q 341 703 326 687 q 380 719 357 719 q 418 703 402 719 q 434 665 434 687 q 418 626 434 642 q 380 610 402 610 q 341 626 357 610 q 326 665 326 642 m 515 475 q 531 513 515 497 q 570 529 547 529 q 608 513 592 529 q 624 475 624 497 q 608 436 624 452 q 570 420 592 420 q 531 436 547 420 q 515 475 515 452 m 326 285 q 341 323 326 307 q 380 339 357 339 q 418 323 402 339 q 434 285 434 307 q 418 247 434 262 q 380 231 402 231 q 341 247 357 231 q 326 285 326 262 m 136 95 q 152 133 136 117 q 190 149 168 149 q 228 133 212 149 q 244 95 244 117 q 228 57 244 73 q 190 41 212 41 q 152 57 168 41 q 136 95 136 73 z "},"?":{"ha":760,"x_min":136,"x_max":624,"o":"m 244 854 q 228 816 244 832 q 190 800 212 800 q 152 816 168 800 q 136 854 136 832 q 152 893 136 877 q 190 909 168 909 q 228 893 212 909 q 244 854 244 877 m 434 854 q 418 816 434 832 q 380 800 402 800 q 341 816 357 800 q 326 854 326 832 q 341 893 326 877 q 380 909 357 909 q 418 893 402 909 q 434 854 434 877 m 624 854 q 608 816 624 832 q 570 800 592 800 q 531 816 547 800 q 515 854 515 832 q 531 893 515 877 q 570 909 547 909 q 608 893 592 909 q 624 854 624 877 m 624 665 q 608 626 624 642 q 570 610 592 610 q 531 626 547 610 q 515 665 515 642 q 531 703 515 687 q 570 719 547 719 q 608 703 592 719 q 624 665 624 687 m 434 475 q 418 436 434 452 q 380 420 402 420 q 341 436 357 420 q 326 475 326 452 q 341 513 326 497 q 380 529 357 529 q 418 513 402 529 q 434 475 434 497 m 434 95 q 418 57 434 73 q 380 41 402 41 q 341 57 357 41 q 326 95 326 73 q 341 133 326 117 q 380 149 357 149 q 418 133 402 149 q 434 95 434 117 z "},"@":{"ha":760,"x_min":136,"x_max":624,"o":"m 244 854 q 228 816 244 832 q 190 800 212 800 q 152 816 168 800 q 136 854 136 832 q 152 893 136 877 q 190 909 168 909 q 228 893 212 909 q 244 854 244 877 m 434 854 q 418 816 434 832 q 380 800 402 800 q 341 816 357 800 q 326 854 326 832 q 341 893 326 877 q 380 909 357 909 q 418 893 402 909 q 434 854 434 877 m 624 854 q 608 816 624 832 q 570 800 592 800 q 531 816 547 800 q 515 854 515 832 q 531 893 515 877 q 570 909 547 909 q 608 893 592 909 q 624 854 624 877 m 244 665 q 228 626 244 642 q 190 610 212 610 q 152 626 168 610 q 136 665 136 642 q 152 703 136 687 q 190 719 168 719 q 228 703 212 719 q 244 665 244 687 m 624 665 q 608 626 624 642 q 570 610 592 610 q 531 626 547 610 q 515 665 515 642 q 531 703 515 687 q 570 719 547 719 q 608 703 592 719 q 624 665 624 687 m 244 475 q 228 436 244 452 q 190 420 212 420 q 152 436 168 420 q 136 475 136 452 q 152 513 136 497 q 190 529 168 529 q 228 513 212 529 q 244 475 244 497 m 624 475 q 608 436 624 452 q 570 420 592 420 q 531 436 547 420 q 515 475 515 452 q 531 513 515 497 q 570 529 547 529 q 608 513 592 529 q 624 475 624 497 m 244 285 q 228 247 244 262 q 190 231 212 231 q 152 247 168 231 q 136 285 136 262 q 152 323 136 307 q 190 339 168 339 q 228 323 212 339 q 244 285 244 307 m 244 95 q 228 57 244 73 q 190 41 212 41 q 152 57 168 41 q 136 95 136 73 q 152 133 136 117 q 190 149 168 149 q 228 133 212 149 q 244 95 244 117 m 434 95 q 418 57 434 73 q 380 41 402 41 q 341 57 357 41 q 326 95 326 73 q 341 133 326 117 q 380 149 357 149 q 418 133 402 149 q 434 95 434 117 m 624 95 q 608 57 624 73 q 570 41 592 41 q 531 57 547 41 q 515 95 515 73 q 531 133 515 117 q 570 149 547 149 q 608 133 592 149 q 624 95 624 117 z "},"A":{"ha":760,"x_min":136,"x_max":624,"o":"m 434 854 q 418 816 434 832 q 380 800 402 800 q 341 816 357 800 q 326 854 326 832 q 341 893 326 877 q 380 909 357 909 q 418 893 402 909 q 434 854 434 877 m 244 665 q 228 626 244 642 q 190 610 212 610 q 152 626 168 610 q 136 665 136 642 q 152 703 136 687 q 190 719 168 719 q 228 703 212 719 q 244 665 244 687 m 624 665 q 608 626 624 642 q 570 610 592 610 q 531 626 547 610 q 515 665 515 642 q 531 703 515 687 q 570 719 547 719 q 608 703 592 719 q 624 665 624 687 m 244 475 q 228 436 244 452 q 190 420 212 420 q 152 436 168 420 q 136 475 136 452 q 152 513 136 497 q 190 529 168 529 q 228 513 212 529 q 244 475 244 497 m 434 475 q 418 436 434 452 q 380 420 402 420 q 341 436 357 420 q 326 475 326 452 q 341 513 326 497 q 380 529 357 529 q 418 513 402 529 q 434 475 434 497 m 624 475 q 608 436 624 452 q 570 420 592 420 q 531 436 547 420 q 515 475 515 452 q 531 513 515 497 q 570 529 547 529 q 608 513 592 529 q 624 475 624 497 m 244 285 q 228 247 244 262 q 190 231 212 231 q 152 247 168 231 q 136 285 136 262 q 152 323 136 307 q 190 339 168 339 q 228 323 212 339 q 244 285 244 307 m 624 285 q 608 247 624 262 q 570 231 592 231 q 531 247 547 231 q 515 285 515 262 q 531 323 515 307 q 570 339 547 339 q 608 323 592 339 q 624 285 624 307 m 244 95 q 228 57 244 73 q 190 41 212 41 q 152 57 168 41 q 136 95 136 73 q 152 133 136 117 q 190 149 168 149 q 228 133 212 149 q 244 95 244 117 m 624 95 q 608 57 624 73 q 570 41 592 41 q 531 57 547 41 q 515 95 515 73 q 531 133 515 117 q 570 149 547 149 q 608 133 592 149 q 624 95 624 117 z "},"B":{"ha":760,"x_min":136,"x_max":624,"o":"m 244 854 q 228 816 244 832 q 190 800 212 800 q 152 816 168 800 q 136 854 136 832 q 152 893 136 877 q 190 909 168 909 q 228 893 212 909 q 244 854 244 877 m 434 854 q 418 816 434 832 q 380 800 402 800 q 341 816 357 800 q 326 854 326 832 q 341 893 326 877 q 380 909 357 909 q 418 893 402 909 q 434 854 434 877 m 244 665 q 228 626 244 642 q 190 610 212 610 q 152 626 168 610 q 136 665 136 642 q 152 703 136 687 q 190 719 168 719 q 228 703 212 719 q 244 665 244 687 m 624 665 q 608 626 624 642 q 570 610 592 610 q 531 626 547 610 q 515 665 515 642 q 531 703 515 687 q 570 719 547 719 q 608 703 592 719 q 624 665 624 687 m 244 475 q 228 436 244 452 q 190 420 212 420 q 152 436 168 420 q 136 475 136 452 q 152 513 136 497 q 190 529 168 529 q 228 513 212 529 q 244 475 244 497 m 434 475 q 418 436 434 452 q 380 420 402 420 q 341 436 357 420 q 326 475 326 452 q 341 513 326 497 q 380 529 357 529 q 418 513 402 529 q 434 475 434 497 m 244 285 q 228 247 244 262 q 190 231 212 231 q 152 247 168 231 q 136 285 136 262 q 152 323 136 307 q 190 339 168 339 q 228 323 212 339 q 244 285 244 307 m 624 285 q 608 247 624 262 q 570 231 592 231 q 531 247 547 231 q 515 285 515 262 q 531 323 515 307 q 570 339 547 339 q 608 323 592 339 q 624 285 624 307 m 244 95 q 228 57 244 73 q 190 41 212 41 q 152 57 168 41 q 136 95 136 73 q 152 133 136 117 q 190 149 168 149 q 228 133 212 149 q 244 95 244 117 m 434 95 q 418 57 434 73 q 380 41 402 41 q 341 57 357 41 q 326 95 326 73 q 341 133 326 117 q 380 149 357 149 q 418 133 402 149 q 434 95 434 117 z "},"C":{"ha":760,"x_min":136,"x_max":624,"o":"m 434 854 q 418 816 434 832 q 380 800 402 800 q 341 816 357 800 q 326 854 326 832 q 341 893 326 877 q 380 909 357 909 q 418 893 402 909 q 434 854 434 877 m 624 854 q 608 816 624 832 q 570 800 592 800 q 531 816 547 800 q 515 854 515 832 q 531 893 515 877 q 570 909 547 909 q 608 893 592 909 q 624 854 624 877 m 244 665 q 228 626 244 642 q 190 610 212 610 q 152 626 168 610 q 136 665 136 642 q 152 703 136 687 q 190 719 168 719 q 228 703 212 719 q 244 665 244 687 m 244 475 q 228 436 244 452 q 190 420 212 420 q 152 436 168 420 q 136 475 136 452 q 152 513 136 497 q 190 529 168 529 q 228 513 212 529 q 244 475 244 497 m 244 285 q 228 247 244 262 q 190 231 212 231 q 152 247 168 231 q 136 285 136 262 q 152 323 136 307 q 190 339 168 339 q 228 323 212 339 q 244 285 244 307 m 434 95 q 418 57 434 73 q 380 41 402 41 q 341 57 357 41 q 326 95 326 73 q 341 133 326 117 q 380 149 357 149 q 418 133 402 149 q 434 95 434 117 m 624 95 q 608 57 624 73 q 570 41 592 41 q 531 57 547 41 q 515 95 515 73 q 531 133 515 117 q 570 149 547 149 q 608 133 592 149 q 624 95 624 117 z "},"D":{"ha":760,"x_min":136,"x_max":624,"o":"m 244 854 q 228 816 244 832 q 190 800 212 800 q 152 816 168 800 q 136 854 136 832 q 152 893 136 877 q 190 909 168 909 q 228 893 212 909 q 244 854 244 877 m 434 854 q 418 816 434 832 q 380 800 402 800 q 341 816 357 800 q 326 854 326 832 q 341 893 326 877 q 380 909 357 909 q 418 893 402 909 q 434 854 434 877 m 244 665 q 228 626 244 642 q 190 610 212 610 q 152 626 168 610 q 136 665 136 642 q 152 703 136 687 q 190 719 168 719 q 228 703 212 719 q 244 665 244 687 m 624 665 q 608 626 624 642 q 570 610 592 610 q 531 626 547 610 q 515 665 515 642 q 531 703 515 687 q 570 719 547 719 q 608 703 592 719 q 624 665 624 687 m 244 475 q 228 436 244 452 q 190 420 212 420 q 152 436 168 420 q 136 475 136 452 q 152 513 136 497 q 190 529 168 529 q 228 513 212 529 q 244 475 244 497 m 624 475 q 608 436 624 452 q 570 420 592 420 q 531 436 547 420 q 515 475 515 452 q 531 513 515 497 q 570 529 547 529 q 608 513 592 529 q 624 475 624 497 m 244 285 q 228 247 244 262 q 190 231 212 231 q 152 247 168 231 q 136 285 136 262 q 152 323 136 307 q 190 339 168 339 q 228 323 212 339 q 244 285 244 307 m 624 285 q 608 247 624 262 q 570 231 592 231 q 531 247 547 231 q 515 285 515 262 q 531 323 515 307 q 570 339 547 339 q 608 323 592 339 q 624 285 624 307 m 244 95 q 228 57 244 73 q 190 41 212 41 q 152 57 168 41 q 136 95 136 73 q 152 133 136 117 q 190 149 168 149 q 228 133 212 149 q 244 95 244 117 m 434 95 q 418 57 434 73 q 380 41 402 41 q 341 57 357 41 q 326 95 326 73 q 341 133 326 117 q 380 149 357 149 q 418 133 402 149 q 434 95 434 117 z "},"E":{"ha":760,"x_min":136,"x_max":624,"o":"m 244 854 q 228 816 244 832 q 190 800 212 800 q 152 816 168 800 q 136 854 136 832 q 152 893 136 877 q 190 909 168 909 q 228 893 212 909 q 244 854 244 877 m 434 854 q 418 816 434 832 q 380 800 402 800 q 341 816 357 800 q 326 854 326 832 q 341 893 326 877 q 380 909 357 909 q 418 893 402 909 q 434 854 434 877 m 624 854 q 608 816 624 832 q 570 800 592 800 q 531 816 547 800 q 515 854 515 832 q 531 893 515 877 q 570 909 547 909 q 608 893 592 909 q 624 854 624 877 m 244 665 q 228 626 244 642 q 190 610 212 610 q 152 626 168 610 q 136 665 136 642 q 152 703 136 687 q 190 719 168 719 q 228 703 212 719 q 244 665 244 687 m 244 475 q 228 436 244 452 q 190 420 212 420 q 152 436 168 420 q 136 475 136 452 q 152 513 136 497 q 190 529 168 529 q 228 513 212 529 q 244 475 244 497 m 434 475 q 418 436 434 452 q 380 420 402 420 q 341 436 357 420 q 326 475 326 452 q 341 513 326 497 q 380 529 357 529 q 418 513 402 529 q 434 475 434 497 m 624 475 q 608 436 624 452 q 570 420 592 420 q 531 436 547 420 q 515 475 515 452 q 531 513 515 497 q 570 529 547 529 q 608 513 592 529 q 624 475 624 497 m 244 285 q 228 247 244 262 q 190 231 212 231 q 152 247 168 231 q 136 285 136 262 q 152 323 136 307 q 190 339 168 339 q 228 323 212 339 q 244 285 244 307 m 244 95 q 228 57 244 73 q 190 41 212 41 q 152 57 168 41 q 136 95 136 73 q 152 133 136 117 q 190 149 168 149 q 228 133 212 149 q 244 95 244 117 m 434 95 q 418 57 434 73 q 380 41 402 41 q 341 57 357 41 q 326 95 326 73 q 341 133 326 117 q 380 149 357 149 q 418 133 402 149 q 434 95 434 117 m 624 95 q 608 57 624 73 q 570 41 592 41 q 531 57 547 41 q 515 95 515 73 q 531 133 515 117 q 570 149 547 149 q 608 133 592 149 q 624 95 624 117 z "},"F":{"ha":760,"x_min":136,"x_max":624,"o":"m 244 854 q 228 816 244 832 q 190 800 212 800 q 152 816 168 800 q 136 854 136 832 q 152 893 136 877 q 190 909 168 909 q 228 893 212 909 q 244 854 244 877 m 434 854 q 418 816 434 832 q 380 800 402 800 q 341 816 357 800 q 326 854 326 832 q 341 893 326 877 q 380 909 357 909 q 418 893 402 909 q 434 854 434 877 m 624 854 q 608 816 624 832 q 570 800 592 800 q 531 816 547 800 q 515 854 515 832 q 531 893 515 877 q 570 909 547 909 q 608 893 592 909 q 624 854 624 877 m 244 665 q 228 626 244 642 q 190 610 212 610 q 152 626 168 610 q 136 665 136 642 q 152 703 136 687 q 190 719 168 719 q 228 703 212 719 q 244 665 244 687 m 244 475 q 228 436 244 452 q 190 420 212 420 q 152 436 168 420 q 136 475 136 452 q 152 513 136 497 q 190 529 168 529 q 228 513 212 529 q 244 475 244 497 m 434 475 q 418 436 434 452 q 380 420 402 420 q 341 436 357 420 q 326 475 326 452 q 341 513 326 497 q 380 529 357 529 q 418 513 402 529 q 434 475 434 497 m 624 475 q 608 436 624 452 q 570 420 592 420 q 531 436 547 420 q 515 475 515 452 q 531 513 515 497 q 570 529 547 529 q 608 513 592 529 q 624 475 624 497 m 244 285 q 228 247 244 262 q 190 231 212 231 q 152 247 168 231 q 136 285 136 262 q 152 323 136 307 q 190 339 168 339 q 228 323 212 339 q 244 285 244 307 m 244 95 q 228 57 244 73 q 190 41 212 41 q 152 57 168 41 q 136 95 136 73 q 152 133 136 117 q 190 149 168 149 q 228 133 212 149 q 244 95 244 117 z "},"G":{"ha":760,"x_min":136,"x_max":624,"o":"m 434 854 q 418 816 434 832 q 380 800 402 800 q 341 816 357 800 q 326 854 326 832 q 341 893 326 877 q 380 909 357 909 q 418 893 402 909 q 434 854 434 877 m 624 854 q 608 816 624 832 q 570 800 592 800 q 531 816 547 800 q 515 854 515 832 q 531 893 515 877 q 570 909 547 909 q 608 893 592 909 q 624 854 624 877 m 244 665 q 228 626 244 642 q 190 610 212 610 q 152 626 168 610 q 136 665 136 642 q 152 703 136 687 q 190 719 168 719 q 228 703 212 719 q 244 665 244 687 m 244 475 q 228 436 244 452 q 190 420 212 420 q 152 436 168 420 q 136 475 136 452 q 152 513 136 497 q 190 529 168 529 q 228 513 212 529 q 244 475 244 497 m 624 475 q 608 436 624 452 q 570 420 592 420 q 531 436 547 420 q 515 475 515 452 q 531 513 515 497 q 570 529 547 529 q 608 513 592 529 q 624 475 624 497 m 244 285 q 228 247 244 262 q 190 231 212 231 q 152 247 168 231 q 136 285 136 262 q 152 323 136 307 q 190 339 168 339 q 228 323 212 339 q 244 285 244 307 m 624 285 q 608 247 624 262 q 570 231 592 231 q 531 247 547 231 q 515 285 515 262 q 531 323 515 307 q 570 339 547 339 q 608 323 592 339 q 624 285 624 307 m 434 95 q 418 57 434 73 q 380 41 402 41 q 341 57 357 41 q 326 95 326 73 q 341 133 326 117 q 380 149 357 149 q 418 133 402 149 q 434 95 434 117 m 624 95 q 608 57 624 73 q 570 41 592 41 q 531 57 547 41 q 515 95 515 73 q 531 133 515 117 q 570 149 547 149 q 608 133 592 149 q 624 95 624 117 z "},"H":{"ha":760,"x_min":136,"x_max":624,"o":"m 244 854 q 228 816 244 832 q 190 800 212 800 q 152 816 168 800 q 136 854 136 832 q 152 893 136 877 q 190 909 168 909 q 228 893 212 909 q 244 854 244 877 m 624 854 q 608 816 624 832 q 570 800 592 800 q 531 816 547 800 q 515 854 515 832 q 531 893 515 877 q 570 909 547 909 q 608 893 592 909 q 624 854 624 877 m 244 665 q 228 626 244 642 q 190 610 212 610 q 152 626 168 610 q 136 665 136 642 q 152 703 136 687 q 190 719 168 719 q 228 703 212 719 q 244 665 244 687 m 624 665 q 608 626 624 642 q 570 610 592 610 q 531 626 547 610 q 515 665 515 642 q 531 703 515 687 q 570 719 547 719 q 608 703 592 719 q 624 665 624 687 m 244 475 q 228 436 244 452 q 190 420 212 420 q 152 436 168 420 q 136 475 136 452 q 152 513 136 497 q 190 529 168 529 q 228 513 212 529 q 244 475 244 497 m 434 475 q 418 436 434 452 q 380 420 402 420 q 341 436 357 420 q 326 475 326 452 q 341 513 326 497 q 380 529 357 529 q 418 513 402 529 q 434 475 434 497 m 624 475 q 608 436 624 452 q 570 420 592 420 q 531 436 547 420 q 515 475 515 452 q 531 513 515 497 q 570 529 547 529 q 608 513 592 529 q 624 475 624 497 m 244 285 q 228 247 244 262 q 190 231 212 231 q 152 247 168 231 q 136 285 136 262 q 152 323 136 307 q 190 339 168 339 q 228 323 212 339 q 244 285 244 307 m 624 285 q 608 247 624 262 q 570 231 592 231 q 531 247 547 231 q 515 285 515 262 q 531 323 515 307 q 570 339 547 339 q 608 323 592 339 q 624 285 624 307 m 244 95 q 228 57 244 73 q 190 41 212 41 q 152 57 168 41 q 136 95 136 73 q 152 133 136 117 q 190 149 168 149 q 228 133 212 149 q 244 95 244 117 m 624 95 q 608 57 624 73 q 570 41 592 41 q 531 57 547 41 q 515 95 515 73 q 531 133 515 117 q 570 149 547 149 q 608 133 592 149 q 624 95 624 117 z "},"I":{"ha":760,"x_min":136,"x_max":624,"o":"m 244 854 q 228 816 244 832 q 190 800 212 800 q 152 816 168 800 q 136 854 136 832 q 152 893 136 877 q 190 909 168 909 q 228 893 212 909 q 244 854 244 877 m 434 854 q 418 816 434 832 q 380 800 402 800 q 341 816 357 800 q 326 854 326 832 q 341 893 326 877 q 380 909 357 909 q 418 893 402 909 q 434 854 434 877 m 624 854 q 608 816 624 832 q 570 800 592 800 q 531 816 547 800 q 515 854 515 832 q 531 893 515 877 q 570 909 547 909 q 608 893 592 909 q 624 854 624 877 m 434 665 q 418 626 434 642 q 380 610 402 610 q 341 626 357 610 q 326 665 326 642 q 341 703 326 687 q 380 719 357 719 q 418 703 402 719 q 434 665 434 687 m 434 475 q 418 436 434 452 q 380 420 402 420 q 341 436 357 420 q 326 475 326 452 q 341 513 326 497 q 380 529 357 529 q 418 513 402 529 q 434 475 434 497 m 434 285 q 418 247 434 262 q 380 231 402 231 q 341 247 357 231 q 326 285 326 262 q 341 323 326 307 q 380 339 357 339 q 418 323 402 339 q 434 285 434 307 m 244 95 q 228 57 244 73 q 190 41 212 41 q 152 57 168 41 q 136 95 136 73 q 152 133 136 117 q 190 149 168 149 q 228 133 212 149 q 244 95 244 117 m 434 95 q 418 57 434 73 q 380 41 402 41 q 341 57 357 41 q 326 95 326 73 q 341 133 326 117 q 380 149 357 149 q 418 133 402 149 q 434 95 434 117 m 624 95 q 608 57 624 73 q 570 41 592 41 q 531 57 547 41 q 515 95 515 73 q 531 133 515 117 q 570 149 547 149 q 608 133 592 149 q 624 95 624 117 z "},"J":{"ha":760,"x_min":136,"x_max":624,"o":"m 434 854 q 418 816 434 832 q 380 800 402 800 q 341 816 357 800 q 326 854 326 832 q 341 893 326 877 q 380 909 357 909 q 418 893 402 909 q 434 854 434 877 m 624 854 q 608 816 624 832 q 570 800 592 800 q 531 816 547 800 q 515 854 515 832 q 531 893 515 877 q 570 909 547 909 q 608 893 592 909 q 624 854 624 877 m 624 665 q 608 626 624 642 q 570 610 592 610 q 531 626 547 610 q 515 665 515 642 q 531 703 515 687 q 570 719 547 719 q 608 703 592 719 q 624 665 624 687 m 624 475 q 608 436 624 452 q 570 420 592 420 q 531 436 547 420 q 515 475 515 452 q 531 513 515 497 q 570 529 547 529 q 608 513 592 529 q 624 475 624 497 m 244 285 q 228 247 244 262 q 190 231 212 231 q 152 247 168 231 q 136 285 136 262 q 152 323 136 307 q 190 339 168 339 q 228 323 212 339 q 244 285 244 307 m 624 285 q 608 247 624 262 q 570 231 592 231 q 531 247 547 231 q 515 285 515 262 q 531 323 515 307 q 570 339 547 339 q 608 323 592 339 q 624 285 624 307 m 434 95 q 418 57 434 73 q 380 41 402 41 q 341 57 357 41 q 326 95 326 73 q 341 133 326 117 q 380 149 357 149 q 418 133 402 149 q 434 95 434 117 z "},"K":{"ha":760,"x_min":136,"x_max":624,"o":"m 244 854 q 228 816 244 832 q 190 800 212 800 q 152 816 168 800 q 136 854 136 832 q 152 893 136 877 q 190 909 168 909 q 228 893 212 909 q 244 854 244 877 m 624 854 q 608 816 624 832 q 570 800 592 800 q 531 816 547 800 q 515 854 515 832 q 531 893 515 877 q 570 909 547 909 q 608 893 592 909 q 624 854 624 877 m 244 665 q 228 626 244 642 q 190 610 212 610 q 152 626 168 610 q 136 665 136 642 q 152 703 136 687 q 190 719 168 719 q 228 703 212 719 q 244 665 244 687 m 624 665 q 608 626 624 642 q 570 610 592 610 q 531 626 547 610 q 515 665 515 642 q 531 703 515 687 q 570 719 547 719 q 608 703 592 719 q 624 665 624 687 m 244 475 q 228 436 244 452 q 190 420 212 420 q 152 436 168 420 q 136 475 136 452 q 152 513 136 497 q 190 529 168 529 q 228 513 212 529 q 244 475 244 497 m 434 475 q 418 436 434 452 q 380 420 402 420 q 341 436 357 420 q 326 475 326 452 q 341 513 326 497 q 380 529 357 529 q 418 513 402 529 q 434 475 434 497 m 244 285 q 228 247 244 262 q 190 231 212 231 q 152 247 168 231 q 136 285 136 262 q 152 323 136 307 q 190 339 168 339 q 228 323 212 339 q 244 285 244 307 m 624 285 q 608 247 624 262 q 570 231 592 231 q 531 247 547 231 q 515 285 515 262 q 531 323 515 307 q 570 339 547 339 q 608 323 592 339 q 624 285 624 307 m 244 95 q 228 57 244 73 q 190 41 212 41 q 152 57 168 41 q 136 95 136 73 q 152 133 136 117 q 190 149 168 149 q 228 133 212 149 q 244 95 244 117 m 624 95 q 608 57 624 73 q 570 41 592 41 q 531 57 547 41 q 515 95 515 73 q 531 133 515 117 q 570 149 547 149 q 608 133 592 149 q 624 95 624 117 z "},"L":{"ha":760,"x_min":136,"x_max":624,"o":"m 244 854 q 228 816 244 832 q 190 800 212 800 q 152 816 168 800 q 136 854 136 832 q 152 893 136 877 q 190 909 168 909 q 228 893 212 909 q 244 854 244 877 m 244 665 q 228 626 244 642 q 190 610 212 610 q 152 626 168 610 q 136 665 136 642 q 152 703 136 687 q 190 719 168 719 q 228 703 212 719 q 244 665 244 687 m 244 475 q 228 436 244 452 q 190 420 212 420 q 152 436 168 420 q 136 475 136 452 q 152 513 136 497 q 190 529 168 529 q 228 513 212 529 q 244 475 244 497 m 244 285 q 228 247 244 262 q 190 231 212 231 q 152 247 168 231 q 136 285 136 262 q 152 323 136 307 q 190 339 168 339 q 228 323 212 339 q 244 285 244 307 m 244 95 q 228 57 244 73 q 190 41 212 41 q 152 57 168 41 q 136 95 136 73 q 152 133 136 117 q 190 149 168 149 q 228 133 212 149 q 244 95 244 117 m 434 95 q 418 57 434 73 q 380 41 402 41 q 341 57 357 41 q 326 95 326 73 q 341 133 326 117 q 380 149 357 149 q 418 133 402 149 q 434 95 434 117 m 624 95 q 608 57 624 73 q 570 41 592 41 q 531 57 547 41 q 515 95 515 73 q 531 133 515 117 q 570 149 547 149 q 608 133 592 149 q 624 95 624 117 z "},"M":{"ha":760,"x_min":136,"x_max":624,"o":"m 244 854 q 228 816 244 832 q 190 800 212 800 q 152 816 168 800 q 136 854 136 832 q 152 893 136 877 q 190 909 168 909 q 228 893 212 909 q 244 854 244 877 m 624 854 q 608 816 624 832 q 570 800 592 800 q 531 816 547 800 q 515 854 515 832 q 531 893 515 877 q 570 909 547 909 q 608 893 592 909 q 624 854 624 877 m 244 665 q 228 626 244 642 q 190 610 212 610 q 152 626 168 610 q 136 665 136 642 q 152 703 136 687 q 190 719 168 719 q 228 703 212 719 q 244 665 244 687 m 434 665 q 418 626 434 642 q 380 610 402 610 q 341 626 357 610 q 326 665 326 642 q 341 703 326 687 q 380 719 357 719 q 418 703 402 719 q 434 665 434 687 m 624 665 q 608 626 624 642 q 570 610 592 610 q 531 626 547 610 q 515 665 515 642 q 531 703 515 687 q 570 719 547 719 q 608 703 592 719 q 624 665 624 687 m 244 475 q 228 436 244 452 q 190 420 212 420 q 152 436 168 420 q 136 475 136 452 q 152 513 136 497 q 190 529 168 529 q 228 513 212 529 q 244 475 244 497 m 624 475 q 608 436 624 452 q 570 420 592 420 q 531 436 547 420 q 515 475 515 452 q 531 513 515 497 q 570 529 547 529 q 608 513 592 529 q 624 475 624 497 m 244 285 q 228 247 244 262 q 190 231 212 231 q 152 247 168 231 q 136 285 136 262 q 152 323 136 307 q 190 339 168 339 q 228 323 212 339 q 244 285 244 307 m 624 285 q 608 247 624 262 q 570 231 592 231 q 531 247 547 231 q 515 285 515 262 q 531 323 515 307 q 570 339 547 339 q 608 323 592 339 q 624 285 624 307 m 244 95 q 228 57 244 73 q 190 41 212 41 q 152 57 168 41 q 136 95 136 73 q 152 133 136 117 q 190 149 168 149 q 228 133 212 149 q 244 95 244 117 m 624 95 q 608 57 624 73 q 570 41 592 41 q 531 57 547 41 q 515 95 515 73 q 531 133 515 117 q 570 149 547 149 q 608 133 592 149 q 624 95 624 117 z "},"N":{"ha":760,"x_min":136,"x_max":624,"o":"m 244 854 q 228 816 244 832 q 190 800 212 800 q 152 816 168 800 q 136 854 136 832 q 152 893 136 877 q 190 909 168 909 q 228 893 212 909 q 244 854 244 877 m 434 854 q 418 816 434 832 q 380 800 402 800 q 341 816 357 800 q 326 854 326 832 q 341 893 326 877 q 380 909 357 909 q 418 893 402 909 q 434 854 434 877 m 244 665 q 228 626 244 642 q 190 610 212 610 q 152 626 168 610 q 136 665 136 642 q 152 703 136 687 q 190 719 168 719 q 228 703 212 719 q 244 665 244 687 m 624 665 q 608 626 624 642 q 570 610 592 610 q 531 626 547 610 q 515 665 515 642 q 531 703 515 687 q 570 719 547 719 q 608 703 592 719 q 624 665 624 687 m 244 475 q 228 436 244 452 q 190 420 212 420 q 152 436 168 420 q 136 475 136 452 q 152 513 136 497 q 190 529 168 529 q 228 513 212 529 q 244 475 244 497 m 624 475 q 608 436 624 452 q 570 420 592 420 q 531 436 547 420 q 515 475 515 452 q 531 513 515 497 q 570 529 547 529 q 608 513 592 529 q 624 475 624 497 m 244 285 q 228 247 244 262 q 190 231 212 231 q 152 247 168 231 q 136 285 136 262 q 152 323 136 307 q 190 339 168 339 q 228 323 212 339 q 244 285 244 307 m 624 285 q 608 247 624 262 q 570 231 592 231 q 531 247 547 231 q 515 285 515 262 q 531 323 515 307 q 570 339 547 339 q 608 323 592 339 q 624 285 624 307 m 244 95 q 228 57 244 73 q 190 41 212 41 q 152 57 168 41 q 136 95 136 73 q 152 133 136 117 q 190 149 168 149 q 228 133 212 149 q 244 95 244 117 m 624 95 q 608 57 624 73 q 570 41 592 41 q 531 57 547 41 q 515 95 515 73 q 531 133 515 117 q 570 149 547 149 q 608 133 592 149 q 624 95 624 117 z "},"O":{"ha":760,"x_min":136,"x_max":624,"o":"m 434 854 q 418 816 434 832 q 380 800 402 800 q 341 816 357 800 q 326 854 326 832 q 341 893 326 877 q 380 909 357 909 q 418 893 402 909 q 434 854 434 877 m 244 665 q 228 626 244 642 q 190 610 212 610 q 152 626 168 610 q 136 665 136 642 q 152 703 136 687 q 190 719 168 719 q 228 703 212 719 q 244 665 244 687 m 624 665 q 608 626 624 642 q 570 610 592 610 q 531 626 547 610 q 515 665 515 642 q 531 703 515 687 q 570 719 547 719 q 608 703 592 719 q 624 665 624 687 m 244 475 q 228 436 244 452 q 190 420 212 420 q 152 436 168 420 q 136 475 136 452 q 152 513 136 497 q 190 529 168 529 q 228 513 212 529 q 244 475 244 497 m 624 475 q 608 436 624 452 q 570 420 592 420 q 531 436 547 420 q 515 475 515 452 q 531 513 515 497 q 570 529 547 529 q 608 513 592 529 q 624 475 624 497 m 244 285 q 228 247 244 262 q 190 231 212 231 q 152 247 168 231 q 136 285 136 262 q 152 323 136 307 q 190 339 168 339 q 228 323 212 339 q 244 285 244 307 m 624 285 q 608 247 624 262 q 570 231 592 231 q 531 247 547 231 q 515 285 515 262 q 531 323 515 307 q 570 339 547 339 q 608 323 592 339 q 624 285 624 307 m 434 95 q 418 57 434 73 q 380 41 402 41 q 341 57 357 41 q 326 95 326 73 q 341 133 326 117 q 380 149 357 149 q 418 133 402 149 q 434 95 434 117 z "},"P":{"ha":760,"x_min":136,"x_max":624,"o":"m 244 854 q 228 816 244 832 q 190 800 212 800 q 152 816 168 800 q 136 854 136 832 q 152 893 136 877 q 190 909 168 909 q 228 893 212 909 q 244 854 244 877 m 434 854 q 418 816 434 832 q 380 800 402 800 q 341 816 357 800 q 326 854 326 832 q 341 893 326 877 q 380 909 357 909 q 418 893 402 909 q 434 854 434 877 m 244 665 q 228 626 244 642 q 190 610 212 610 q 152 626 168 610 q 136 665 136 642 q 152 703 136 687 q 190 719 168 719 q 228 703 212 719 q 244 665 244 687 m 624 665 q 608 626 624 642 q 570 610 592 610 q 531 626 547 610 q 515 665 515 642 q 531 703 515 687 q 570 719 547 719 q 608 703 592 719 q 624 665 624 687 m 244 475 q 228 436 244 452 q 190 420 212 420 q 152 436 168 420 q 136 475 136 452 q 152 513 136 497 q 190 529 168 529 q 228 513 212 529 q 244 475 244 497 m 434 475 q 418 436 434 452 q 380 420 402 420 q 341 436 357 420 q 326 475 326 452 q 341 513 326 497 q 380 529 357 529 q 418 513 402 529 q 434 475 434 497 m 244 285 q 228 247 244 262 q 190 231 212 231 q 152 247 168 231 q 136 285 136 262 q 152 323 136 307 q 190 339 168 339 q 228 323 212 339 q 244 285 244 307 m 244 95 q 228 57 244 73 q 190 41 212 41 q 152 57 168 41 q 136 95 136 73 q 152 133 136 117 q 190 149 168 149 q 228 133 212 149 q 244 95 244 117 z "},"Q":{"ha":760,"x_min":136,"x_max":624,"o":"m 434 854 q 418 816 434 832 q 380 800 402 800 q 341 816 357 800 q 326 854 326 832 q 341 893 326 877 q 380 909 357 909 q 418 893 402 909 q 434 854 434 877 m 244 665 q 228 626 244 642 q 190 610 212 610 q 152 626 168 610 q 136 665 136 642 q 152 703 136 687 q 190 719 168 719 q 228 703 212 719 q 244 665 244 687 m 624 665 q 608 626 624 642 q 570 610 592 610 q 531 626 547 610 q 515 665 515 642 q 531 703 515 687 q 570 719 547 719 q 608 703 592 719 q 624 665 624 687 m 244 475 q 228 436 244 452 q 190 420 212 420 q 152 436 168 420 q 136 475 136 452 q 152 513 136 497 q 190 529 168 529 q 228 513 212 529 q 244 475 244 497 m 624 475 q 608 436 624 452 q 570 420 592 420 q 531 436 547 420 q 515 475 515 452 q 531 513 515 497 q 570 529 547 529 q 608 513 592 529 q 624 475 624 497 m 244 285 q 228 247 244 262 q 190 231 212 231 q 152 247 168 231 q 136 285 136 262 q 152 323 136 307 q 190 339 168 339 q 228 323 212 339 q 244 285 244 307 m 434 285 q 418 247 434 262 q 380 231 402 231 q 341 247 357 231 q 326 285 326 262 q 341 323 326 307 q 380 339 357 339 q 418 323 402 339 q 434 285 434 307 m 624 285 q 608 247 624 262 q 570 231 592 231 q 531 247 547 231 q 515 285 515 262 q 531 323 515 307 q 570 339 547 339 q 608 323 592 339 q 624 285 624 307 m 434 95 q 418 57 434 73 q 380 41 402 41 q 341 57 357 41 q 326 95 326 73 q 341 133 326 117 q 380 149 357 149 q 418 133 402 149 q 434 95 434 117 m 624 95 q 608 57 624 73 q 570 41 592 41 q 531 57 547 41 q 515 95 515 73 q 531 133 515 117 q 570 149 547 149 q 608 133 592 149 q 624 95 624 117 z "},"R":{"ha":760,"x_min":136,"x_max":624,"o":"m 244 854 q 228 816 244 832 q 190 800 212 800 q 152 816 168 800 q 136 854 136 832 q 152 893 136 877 q 190 909 168 909 q 228 893 212 909 q 244 854 244 877 m 434 854 q 418 816 434 832 q 380 800 402 800 q 341 816 357 800 q 326 854 326 832 q 341 893 326 877 q 380 909 357 909 q 418 893 402 909 q 434 854 434 877 m 244 665 q 228 626 244 642 q 190 610 212 610 q 152 626 168 610 q 136 665 136 642 q 152 703 136 687 q 190 719 168 719 q 228 703 212 719 q 244 665 244 687 m 624 665 q 608 626 624 642 q 570 610 592 610 q 531 626 547 610 q 515 665 515 642 q 531 703 515 687 q 570 719 547 719 q 608 703 592 719 q 624 665 624 687 m 244 475 q 228 436 244 452 q 190 420 212 420 q 152 436 168 420 q 136 475 136 452 q 152 513 136 497 q 190 529 168 529 q 228 513 212 529 q 244 475 244 497 m 434 475 q 418 436 434 452 q 380 420 402 420 q 341 436 357 420 q 326 475 326 452 q 341 513 326 497 q 380 529 357 529 q 418 513 402 529 q 434 475 434 497 m 244 285 q 228 247 244 262 q 190 231 212 231 q 152 247 168 231 q 136 285 136 262 q 152 323 136 307 q 190 339 168 339 q 228 323 212 339 q 244 285 244 307 m 624 285 q 608 247 624 262 q 570 231 592 231 q 531 247 547 231 q 515 285 515 262 q 531 323 515 307 q 570 339 547 339 q 608 323 592 339 q 624 285 624 307 m 244 95 q 228 57 244 73 q 190 41 212 41 q 152 57 168 41 q 136 95 136 73 q 152 133 136 117 q 190 149 168 149 q 228 133 212 149 q 244 95 244 117 m 624 95 q 608 57 624 73 q 570 41 592 41 q 531 57 547 41 q 515 95 515 73 q 531 133 515 117 q 570 149 547 149 q 608 133 592 149 q 624 95 624 117 z "},"S":{"ha":760,"x_min":136,"x_max":624,"o":"m 434 854 q 418 816 434 832 q 380 800 402 800 q 341 816 357 800 q 326 854 326 832 q 341 893 326 877 q 380 909 357 909 q 418 893 402 909 q 434 854 434 877 m 624 854 q 608 816 624 832 q 570 800 592 800 q 531 816 547 800 q 515 854 515 832 q 531 893 515 877 q 570 909 547 909 q 608 893 592 909 q 624 854 624 877 m 244 665 q 228 626 244 642 q 190 610 212 610 q 152 626 168 610 q 136 665 136 642 q 152 703 136 687 q 190 719 168 719 q 228 703 212 719 q 244 665 244 687 m 244 475 q 228 436 244 452 q 190 420 212 420 q 152 436 168 420 q 136 475 136 452 q 152 513 136 497 q 190 529 168 529 q 228 513 212 529 q 244 475 244 497 m 434 475 q 418 436 434 452 q 380 420 402 420 q 341 436 357 420 q 326 475 326 452 q 341 513 326 497 q 380 529 357 529 q 418 513 402 529 q 434 475 434 497 m 624 475 q 608 436 624 452 q 570 420 592 420 q 531 436 547 420 q 515 475 515 452 q 531 513 515 497 q 570 529 547 529 q 608 513 592 529 q 624 475 624 497 m 624 285 q 608 247 624 262 q 570 231 592 231 q 531 247 547 231 q 515 285 515 262 q 531 323 515 307 q 570 339 547 339 q 608 323 592 339 q 624 285 624 307 m 244 95 q 228 57 244 73 q 190 41 212 41 q 152 57 168 41 q 136 95 136 73 q 152 133 136 117 q 190 149 168 149 q 228 133 212 149 q 244 95 244 117 m 434 95 q 418 57 434 73 q 380 41 402 41 q 341 57 357 41 q 326 95 326 73 q 341 133 326 117 q 380 149 357 149 q 418 133 402 149 q 434 95 434 117 z "},"T":{"ha":760,"x_min":136,"x_max":624,"o":"m 244 854 q 228 816 244 832 q 190 800 212 800 q 152 816 168 800 q 136 854 136 832 q 152 893 136 877 q 190 909 168 909 q 228 893 212 909 q 244 854 244 877 m 434 854 q 418 816 434 832 q 380 800 402 800 q 341 816 357 800 q 326 854 326 832 q 341 893 326 877 q 380 909 357 909 q 418 893 402 909 q 434 854 434 877 m 624 854 q 608 816 624 832 q 570 800 592 800 q 531 816 547 800 q 515 854 515 832 q 531 893 515 877 q 570 909 547 909 q 608 893 592 909 q 624 854 624 877 m 434 665 q 418 626 434 642 q 380 610 402 610 q 341 626 357 610 q 326 665 326 642 q 341 703 326 687 q 380 719 357 719 q 418 703 402 719 q 434 665 434 687 m 434 475 q 418 436 434 452 q 380 420 402 420 q 341 436 357 420 q 326 475 326 452 q 341 513 326 497 q 380 529 357 529 q 418 513 402 529 q 434 475 434 497 m 434 285 q 418 247 434 262 q 380 231 402 231 q 341 247 357 231 q 326 285 326 262 q 341 323 326 307 q 380 339 357 339 q 418 323 402 339 q 434 285 434 307 m 434 95 q 418 57 434 73 q 380 41 402 41 q 341 57 357 41 q 326 95 326 73 q 341 133 326 117 q 380 149 357 149 q 418 133 402 149 q 434 95 434 117 z "},"U":{"ha":760,"x_min":136,"x_max":624,"o":"m 244 854 q 228 816 244 832 q 190 800 212 800 q 152 816 168 800 q 136 854 136 832 q 152 893 136 877 q 190 909 168 909 q 228 893 212 909 q 244 854 244 877 m 624 854 q 608 816 624 832 q 570 800 592 800 q 531 816 547 800 q 515 854 515 832 q 531 893 515 877 q 570 909 547 909 q 608 893 592 909 q 624 854 624 877 m 244 665 q 228 626 244 642 q 190 610 212 610 q 152 626 168 610 q 136 665 136 642 q 152 703 136 687 q 190 719 168 719 q 228 703 212 719 q 244 665 244 687 m 624 665 q 608 626 624 642 q 570 610 592 610 q 531 626 547 610 q 515 665 515 642 q 531 703 515 687 q 570 719 547 719 q 608 703 592 719 q 624 665 624 687 m 244 475 q 228 436 244 452 q 190 420 212 420 q 152 436 168 420 q 136 475 136 452 q 152 513 136 497 q 190 529 168 529 q 228 513 212 529 q 244 475 244 497 m 624 475 q 608 436 624 452 q 570 420 592 420 q 531 436 547 420 q 515 475 515 452 q 531 513 515 497 q 570 529 547 529 q 608 513 592 529 q 624 475 624 497 m 244 285 q 228 247 244 262 q 190 231 212 231 q 152 247 168 231 q 136 285 136 262 q 152 323 136 307 q 190 339 168 339 q 228 323 212 339 q 244 285 244 307 m 624 285 q 608 247 624 262 q 570 231 592 231 q 531 247 547 231 q 515 285 515 262 q 531 323 515 307 q 570 339 547 339 q 608 323 592 339 q 624 285 624 307 m 244 95 q 228 57 244 73 q 190 41 212 41 q 152 57 168 41 q 136 95 136 73 q 152 133 136 117 q 190 149 168 149 q 228 133 212 149 q 244 95 244 117 m 434 95 q 418 57 434 73 q 380 41 402 41 q 341 57 357 41 q 326 95 326 73 q 341 133 326 117 q 380 149 357 149 q 418 133 402 149 q 434 95 434 117 m 624 95 q 608 57 624 73 q 570 41 592 41 q 531 57 547 41 q 515 95 515 73 q 531 133 515 117 q 570 149 547 149 q 608 133 592 149 q 624 95 624 117 z "},"V":{"ha":760,"x_min":136,"x_max":624,"o":"m 244 854 q 228 816 244 832 q 190 800 212 800 q 152 816 168 800 q 136 854 136 832 q 152 893 136 877 q 190 909 168 909 q 228 893 212 909 q 244 854 244 877 m 624 854 q 608 816 624 832 q 570 800 592 800 q 531 816 547 800 q 515 854 515 832 q 531 893 515 877 q 570 909 547 909 q 608 893 592 909 q 624 854 624 877 m 244 665 q 228 626 244 642 q 190 610 212 610 q 152 626 168 610 q 136 665 136 642 q 152 703 136 687 q 190 719 168 719 q 228 703 212 719 q 244 665 244 687 m 624 665 q 608 626 624 642 q 570 610 592 610 q 531 626 547 610 q 515 665 515 642 q 531 703 515 687 q 570 719 547 719 q 608 703 592 719 q 624 665 624 687 m 244 475 q 228 436 244 452 q 190 420 212 420 q 152 436 168 420 q 136 475 136 452 q 152 513 136 497 q 190 529 168 529 q 228 513 212 529 q 244 475 244 497 m 624 475 q 608 436 624 452 q 570 420 592 420 q 531 436 547 420 q 515 475 515 452 q 531 513 515 497 q 570 529 547 529 q 608 513 592 529 q 624 475 624 497 m 434 285 q 418 247 434 262 q 380 231 402 231 q 341 247 357 231 q 326 285 326 262 q 341 323 326 307 q 380 339 357 339 q 418 323 402 339 q 434 285 434 307 m 434 95 q 418 57 434 73 q 380 41 402 41 q 341 57 357 41 q 326 95 326 73 q 341 133 326 117 q 380 149 357 149 q 418 133 402 149 q 434 95 434 117 z "},"W":{"ha":760,"x_min":136,"x_max":624,"o":"m 244 854 q 228 816 244 832 q 190 800 212 800 q 152 816 168 800 q 136 854 136 832 q 152 893 136 877 q 190 909 168 909 q 228 893 212 909 q 244 854 244 877 m 624 854 q 608 816 624 832 q 570 800 592 800 q 531 816 547 800 q 515 854 515 832 q 531 893 515 877 q 570 909 547 909 q 608 893 592 909 q 624 854 624 877 m 244 665 q 228 626 244 642 q 190 610 212 610 q 152 626 168 610 q 136 665 136 642 q 152 703 136 687 q 190 719 168 719 q 228 703 212 719 q 244 665 244 687 m 624 665 q 608 626 624 642 q 570 610 592 610 q 531 626 547 610 q 515 665 515 642 q 531 703 515 687 q 570 719 547 719 q 608 703 592 719 q 624 665 624 687 m 244 475 q 228 436 244 452 q 190 420 212 420 q 152 436 168 420 q 136 475 136 452 q 152 513 136 497 q 190 529 168 529 q 228 513 212 529 q 244 475 244 497 m 624 475 q 608 436 624 452 q 570 420 592 420 q 531 436 547 420 q 515 475 515 452 q 531 513 515 497 q 570 529 547 529 q 608 513 592 529 q 624 475 624 497 m 244 285 q 228 247 244 262 q 190 231 212 231 q 152 247 168 231 q 136 285 136 262 q 152 323 136 307 q 190 339 168 339 q 228 323 212 339 q 244 285 244 307 m 434 285 q 418 247 434 262 q 380 231 402 231 q 341 247 357 231 q 326 285 326 262 q 341 323 326 307 q 380 339 357 339 q 418 323 402 339 q 434 285 434 307 m 624 285 q 608 247 624 262 q 570 231 592 231 q 531 247 547 231 q 515 285 515 262 q 531 323 515 307 q 570 339 547 339 q 608 323 592 339 q 624 285 624 307 m 244 95 q 228 57 244 73 q 190 41 212 41 q 152 57 168 41 q 136 95 136 73 q 152 133 136 117 q 190 149 168 149 q 228 133 212 149 q 244 95 244 117 m 624 95 q 608 57 624 73 q 570 41 592 41 q 531 57 547 41 q 515 95 515 73 q 531 133 515 117 q 570 149 547 149 q 608 133 592 149 q 624 95 624 117 z "},"X":{"ha":760,"x_min":136,"x_max":624,"o":"m 244 854 q 228 816 244 832 q 190 800 212 800 q 152 816 168 800 q 136 854 136 832 q 152 893 136 877 q 190 909 168 909 q 228 893 212 909 q 244 854 244 877 m 624 854 q 608 816 624 832 q 570 800 592 800 q 531 816 547 800 q 515 854 515 832 q 531 893 515 877 q 570 909 547 909 q 608 893 592 909 q 624 854 624 877 m 244 665 q 228 626 244 642 q 190 610 212 610 q 152 626 168 610 q 136 665 136 642 q 152 703 136 687 q 190 719 168 719 q 228 703 212 719 q 244 665 244 687 m 624 665 q 608 626 624 642 q 570 610 592 610 q 531 626 547 610 q 515 665 515 642 q 531 703 515 687 q 570 719 547 719 q 608 703 592 719 q 624 665 624 687 m 434 475 q 418 436 434 452 q 380 420 402 420 q 341 436 357 420 q 326 475 326 452 q 341 513 326 497 q 380 529 357 529 q 418 513 402 529 q 434 475 434 497 m 244 285 q 228 247 244 262 q 190 231 212 231 q 152 247 168 231 q 136 285 136 262 q 152 323 136 307 q 190 339 168 339 q 228 323 212 339 q 244 285 244 307 m 624 285 q 608 247 624 262 q 570 231 592 231 q 531 247 547 231 q 515 285 515 262 q 531 323 515 307 q 570 339 547 339 q 608 323 592 339 q 624 285 624 307 m 244 95 q 228 57 244 73 q 190 41 212 41 q 152 57 168 41 q 136 95 136 73 q 152 133 136 117 q 190 149 168 149 q 228 133 212 149 q 244 95 244 117 m 624 95 q 608 57 624 73 q 570 41 592 41 q 531 57 547 41 q 515 95 515 73 q 531 133 515 117 q 570 149 547 149 q 608 133 592 149 q 624 95 624 117 z "},"Y":{"ha":760,"x_min":136,"x_max":624,"o":"m 244 854 q 228 816 244 832 q 190 800 212 800 q 152 816 168 800 q 136 854 136 832 q 152 893 136 877 q 190 909 168 909 q 228 893 212 909 q 244 854 244 877 m 624 854 q 608 816 624 832 q 570 800 592 800 q 531 816 547 800 q 515 854 515 832 q 531 893 515 877 q 570 909 547 909 q 608 893 592 909 q 624 854 624 877 m 244 665 q 228 626 244 642 q 190 610 212 610 q 152 626 168 610 q 136 665 136 642 q 152 703 136 687 q 190 719 168 719 q 228 703 212 719 q 244 665 244 687 m 624 665 q 608 626 624 642 q 570 610 592 610 q 531 626 547 610 q 515 665 515 642 q 531 703 515 687 q 570 719 547 719 q 608 703 592 719 q 624 665 624 687 m 434 475 q 418 436 434 452 q 380 420 402 420 q 341 436 357 420 q 326 475 326 452 q 341 513 326 497 q 380 529 357 529 q 418 513 402 529 q 434 475 434 497 m 434 285 q 418 247 434 262 q 380 231 402 231 q 341 247 357 231 q 326 285 326 262 q 341 323 326 307 q 380 339 357 339 q 418 323 402 339 q 434 285 434 307 m 434 95 q 418 57 434 73 q 380 41 402 41 q 341 57 357 41 q 326 95 326 73 q 341 133 326 117 q 380 149 357 149 q 418 133 402 149 q 434 95 434 117 z "},"Z":{"ha":760,"x_min":136,"x_max":624,"o":"m 244 854 q 228 816 244 832 q 190 800 212 800 q 152 816 168 800 q 136 854 136 832 q 152 893 136 877 q 190 909 168 909 q 228 893 212 909 q 244 854 244 877 m 434 854 q 418 816 434 832 q 380 800 402 800 q 341 816 357 800 q 326 854 326 832 q 341 893 326 877 q 380 909 357 909 q 418 893 402 909 q 434 854 434 877 m 624 854 q 608 816 624 832 q 570 800 592 800 q 531 816 547 800 q 515 854 515 832 q 531 893 515 877 q 570 909 547 909 q 608 893 592 909 q 624 854 624 877 m 624 665 q 608 626 624 642 q 570 610 592 610 q 531 626 547 610 q 515 665 515 642 q 531 703 515 687 q 570 719 547 719 q 608 703 592 719 q 624 665 624 687 m 434 475 q 418 436 434 452 q 380 420 402 420 q 341 436 357 420 q 326 475 326 452 q 341 513 326 497 q 380 529 357 529 q 418 513 402 529 q 434 475 434 497 m 244 285 q 228 247 244 262 q 190 231 212 231 q 152 247 168 231 q 136 285 136 262 q 152 323 136 307 q 190 339 168 339 q 228 323 212 339 q 244 285 244 307 m 244 95 q 228 57 244 73 q 190 41 212 41 q 152 57 168 41 q 136 95 136 73 q 152 133 136 117 q 190 149 168 149 q 228 133 212 149 q 244 95 244 117 m 434 95 q 418 57 434 73 q 380 41 402 41 q 341 57 357 41 q 326 95 326 73 q 341 133 326 117 q 380 149 357 149 q 418 133 402 149 q 434 95 434 117 m 624 95 q 608 57 624 73 q 570 41 592 41 q 531 57 547 41 q 515 95 515 73 q 531 133 515 117 q 570 149 547 149 q 608 133 592 149 q 624 95 624 117 z "},"[":{"ha":760,"x_min":136,"x_max":624,"o":"m 244 854 q 228 816 244 832 q 190 800 212 800 q 152 816 168 800 q 136 854 136 832 q 152 893 136 877 q 190 909 168 909 q 228 893 212 909 q 244 854 244 877 m 434 854 q 418 816 434 832 q 380 800 402 800 q 341 816 357 800 q 326 854 326 832 q 341 893 326 877 q 380 909 357 909 q 418 893 402 909 q 434 854 434 877 m 624 854 q 608 816 624 832 q 570 800 592 800 q 531 816 547 800 q 515 854 515 832 q 531 893 515 877 q 570 909 547 909 q 608 893 592 909 q 624 854 624 877 m 244 665 q 228 626 244 642 q 190 610 212 610 q 152 626 168 610 q 136 665 136 642 q 152 703 136 687 q 190 719 168 719 q 228 703 212 719 q 244 665 244 687 m 244 475 q 228 436 244 452 q 190 420 212 420 q 152 436 168 420 q 136 475 136 452 q 152 513 136 497 q 190 529 168 529 q 228 513 212 529 q 244 475 244 497 m 244 285 q 228 247 244 262 q 190 231 212 231 q 152 247 168 231 q 136 285 136 262 q 152 323 136 307 q 190 339 168 339 q 228 323 212 339 q 244 285 244 307 m 244 95 q 228 57 244 73 q 190 41 212 41 q 152 57 168 41 q 136 95 136 73 q 152 133 136 117 q 190 149 168 149 q 228 133 212 149 q 244 95 244 117 m 434 95 q 418 57 434 73 q 380 41 402 41 q 341 57 357 41 q 326 95 326 73 q 341 133 326 117 q 380 149 357 149 q 418 133 402 149 q 434 95 434 117 m 624 95 q 608 57 624 73 q 570 41 592 41 q 531 57 547 41 q 515 95 515 73 q 531 133 515 117 q 570 149 547 149 q 608 133 592 149 q 624 95 624 117 z "},"\\":{"ha":760,"x_min":136,"x_max":624,"o":"m 244 854 q 228 816 244 832 q 190 800 212 800 q 152 816 168 800 q 136 854 136 832 q 152 893 136 877 q 190 909 168 909 q 228 893 212 909 q 244 854 244 877 m 244 665 q 228 626 244 642 q 190 610 212 610 q 152 626 168 610 q 136 665 136 642 q 152 703 136 687 q 190 719 168 719 q 228 703 212 719 q 244 665 244 687 m 434 475 q 418 436 434 452 q 380 420 402 420 q 341 436 357 420 q 326 475 326 452 q 341 513 326 497 q 380 529 357 529 q 418 513 402 529 q 434 475 434 497 m 624 285 q 608 247 624 262 q 570 231 592 231 q 531 247 547 231 q 515 285 515 262 q 531 323 515 307 q 570 339 547 339 q 608 323 592 339 q 624 285 624 307 m 624 95 q 608 57 624 73 q 570 41 592 41 q 531 57 547 41 q 515 95 515 73 q 531 133 515 117 q 570 149 547 149 q 608 133 592 149 q 624 95 624 117 z "},"]":{"ha":760,"x_min":136,"x_max":624,"o":"m 244 854 q 228 816 244 832 q 190 800 212 800 q 152 816 168 800 q 136 854 136 832 q 152 893 136 877 q 190 909 168 909 q 228 893 212 909 q 244 854 244 877 m 434 854 q 418 816 434 832 q 380 800 402 800 q 341 816 357 800 q 326 854 326 832 q 341 893 326 877 q 380 909 357 909 q 418 893 402 909 q 434 854 434 877 m 624 854 q 608 816 624 832 q 570 800 592 800 q 531 816 547 800 q 515 854 515 832 q 531 893 515 877 q 570 909 547 909 q 608 893 592 909 q 624 854 624 877 m 624 665 q 608 626 624 642 q 570 610 592 610 q 531 626 547 610 q 515 665 515 642 q 531 703 515 687 q 570 719 547 719 q 608 703 592 719 q 624 665 624 687 m 624 475 q 608 436 624 452 q 570 420 592 420 q 531 436 547 420 q 515 475 515 452 q 531 513 515 497 q 570 529 547 529 q 608 513 592 529 q 624 475 624 497 m 624 285 q 608 247 624 262 q 570 231 592 231 q 531 247 547 231 q 515 285 515 262 q 531 323 515 307 q 570 339 547 339 q 608 323 592 339 q 624 285 624 307 m 244 95 q 228 57 244 73 q 190 41 212 41 q 152 57 168 41 q 136 95 136 73 q 152 133 136 117 q 190 149 168 149 q 228 133 212 149 q 244 95 244 117 m 434 95 q 418 57 434 73 q 380 41 402 41 q 341 57 357 41 q 326 95 326 73 q 341 133 326 117 q 380 149 357 149 q 418 133 402 149 q 434 95 434 117 m 624 95 q 608 57 624 73 q 570 41 592 41 q 531 57 547 41 q 515 95 515 73 q 531 133 515 117 q 570 149 547 149 q 608 133 592 149 q 624 95 624 117 z "},"^":{"ha":760,"x_min":136,"x_max":624,"o":"m 434 854 q 418 816 434 832 q 380 800 402 800 q 341 816 357 800 q 326 854 326 832 q 341 893 326 877 q 380 909 357 909 q 418 893 402 909 q 434 854 434 877 m 244 665 q 228 626 244 642 q 190 610 212 610 q 152 626 168 610 q 136 665 136 642 q 152 703 136 687 q 190 719 168 719 q 228 703 212 719 q 244 665 244 687 m 624 665 q 608 626 624 642 q 570 610 592 610 q 531 626 547 610 q 515 665 515 642 q 531 703 515 687 q 570 719 547 719 q 608 703 592 719 q 624 665 624 687 z "},"_":{"ha":760,"x_min":136,"x_max":624,"o":"m 244 95 q 228 57 244 73 q 190 41 212 41 q 152 57 168 41 q 136 95 136 73 q 152 133 136 117 q 190 149 168 149 q 228 133 212 149 q 244 95 244 117 m 434 95 q 418 57 434 73 q 380 41 402 41 q 341 57 357 41 q 326 95 326 73 q 341 133 326 117 q 380 149 357 149 q 418 133 402 149 q 434 95 434 117 m 624 95 q 608 57 624 73 q 570 41 592 41 q 531 57 547 41 q 515 95 515 73 q 531 133 515 117 q 570 149 547 149 q 608 133 592 149 q 624 95 624 117 z "},"a":{"ha":760,"x_min":136,"x_max":624,"o":"m 434 854 q 418 816 434 832 q 380 800 402 800 q 341 816 357 800 q 326 854 326 832 q 341 893 326 877 q 380 909 357 909 q 418 893 402 909 q 434 854 434 877 m 244 665 q 228 626 244 642 q 190 610 212 610 q 152 626 168 610 q 136 665 136 642 q 152 703 136 687 q 190 719 168 719 q 228 703 212 719 q 244 665 244 687 m 624 665 q 608 626 624 642 q 570 610 592 610 q 531 626 547 610 q 515 665 515 642 q 531 703 515 687 q 570 719 547 719 q 608 703 592 719 q 624 665 624 687 m 244 475 q 228 436 244 452 q 190 420 212 420 q 152 436 168 420 q 136 475 136 452 q 152 513 136 497 q 190 529 168 529 q 228 513 212 529 q 244 475 244 497 m 434 475 q 418 436 434 452 q 380 420 402 420 q 341 436 357 420 q 326 475 326 452 q 341 513 326 497 q 380 529 357 529 q 418 513 402 529 q 434 475 434 497 m 624 475 q 608 436 624 452 q 570 420 592 420 q 531 436 547 420 q 515 475 515 452 q 531 513 515 497 q 570 529 547 529 q 608 513 592 529 q 624 475 624 497 m 244 285 q 228 247 244 262 q 190 231 212 231 q 152 247 168 231 q 136 285 136 262 q 152 323 136 307 q 190 339 168 339 q 228 323 212 339 q 244 285 244 307 m 624 285 q 608 247 624 262 q 570 231 592 231 q 531 247 547 231 q 515 285 515 262 q 531 323 515 307 q 570 339 547 339 q 608 323 592 339 q 624 285 624 307 m 244 95 q 228 57 244 73 q 190 41 212 41 q 152 57 168 41 q 136 95 136 73 q 152 133 136 117 q 190 149 168 149 q 228 133 212 149 q 244 95 244 117 m 624 95 q 608 57 624 73 q 570 41 592 41 q 531 57 547 41 q 515 95 515 73 q 531 133 515 117 q 570 149 547 149 q 608 133 592 149 q 624 95 624 117 z "},"b":{"ha":760,"x_min":136,"x_max":624,"o":"m 244 854 q 228 816 244 832 q 190 800 212 800 q 152 816 168 800 q 136 854 136 832 q 152 893 136 877 q 190 909 168 909 q 228 893 212 909 q 244 854 244 877 m 434 854 q 418 816 434 832 q 380 800 402 800 q 341 816 357 800 q 326 854 326 832 q 341 893 326 877 q 380 909 357 909 q 418 893 402 909 q 434 854 434 877 m 244 665 q 228 626 244 642 q 190 610 212 610 q 152 626 168 610 q 136 665 136 642 q 152 703 136 687 q 190 719 168 719 q 228 703 212 719 q 244 665 244 687 m 624 665 q 608 626 624 642 q 570 610 592 610 q 531 626 547 610 q 515 665 515 642 q 531 703 515 687 q 570 719 547 719 q 608 703 592 719 q 624 665 624 687 m 244 475 q 228 436 244 452 q 190 420 212 420 q 152 436 168 420 q 136 475 136 452 q 152 513 136 497 q 190 529 168 529 q 228 513 212 529 q 244 475 244 497 m 434 475 q 418 436 434 452 q 380 420 402 420 q 341 436 357 420 q 326 475 326 452 q 341 513 326 497 q 380 529 357 529 q 418 513 402 529 q 434 475 434 497 m 244 285 q 228 247 244 262 q 190 231 212 231 q 152 247 168 231 q 136 285 136 262 q 152 323 136 307 q 190 339 168 339 q 228 323 212 339 q 244 285 244 307 m 624 285 q 608 247 624 262 q 570 231 592 231 q 531 247 547 231 q 515 285 515 262 q 531 323 515 307 q 570 339 547 339 q 608 323 592 339 q 624 285 624 307 m 244 95 q 228 57 244 73 q 190 41 212 41 q 152 57 168 41 q 136 95 136 73 q 152 133 136 117 q 190 149 168 149 q 228 133 212 149 q 244 95 244 117 m 434 95 q 418 57 434 73 q 380 41 402 41 q 341 57 357 41 q 326 95 326 73 q 341 133 326 117 q 380 149 357 149 q 418 133 402 149 q 434 95 434 117 z "},"c":{"ha":760,"x_min":136,"x_max":624,"o":"m 434 854 q 418 816 434 832 q 380 800 402 800 q 341 816 357 800 q 326 854 326 832 q 341 893 326 877 q 380 909 357 909 q 418 893 402 909 q 434 854 434 877 m 624 854 q 608 816 624 832 q 570 800 592 800 q 531 816 547 800 q 515 854 515 832 q 531 893 515 877 q 570 909 547 909 q 608 893 592 909 q 624 854 624 877 m 244 665 q 228 626 244 642 q 190 610 212 610 q 152 626 168 610 q 136 665 136 642 q 152 703 136 687 q 190 719 168 719 q 228 703 212 719 q 244 665 244 687 m 244 475 q 228 436 244 452 q 190 420 212 420 q 152 436 168 420 q 136 475 136 452 q 152 513 136 497 q 190 529 168 529 q 228 513 212 529 q 244 475 244 497 m 244 285 q 228 247 244 262 q 190 231 212 231 q 152 247 168 231 q 136 285 136 262 q 152 323 136 307 q 190 339 168 339 q 228 323 212 339 q 244 285 244 307 m 434 95 q 418 57 434 73 q 380 41 402 41 q 341 57 357 41 q 326 95 326 73 q 341 133 326 117 q 380 149 357 149 q 418 133 402 149 q 434 95 434 117 m 624 95 q 608 57 624 73 q 570 41 592 41 q 531 57 547 41 q 515 95 515 73 q 531 133 515 117 q 570 149 547 149 q 608 133 592 149 q 624 95 624 117 z "},"d":{"ha":760,"x_min":136,"x_max":624,"o":"m 244 854 q 228 816 244 832 q 190 800 212 800 q 152 816 168 800 q 136 854 136 832 q 152 893 136 877 q 190 909 168 909 q 228 893 212 909 q 244 854 244 877 m 434 854 q 418 816 434 832 q 380 800 402 800 q 341 816 357 800 q 326 854 326 832 q 341 893 326 877 q 380 909 357 909 q 418 893 402 909 q 434 854 434 877 m 244 665 q 228 626 244 642 q 190 610 212 610 q 152 626 168 610 q 136 665 136 642 q 152 703 136 687 q 190 719 168 719 q 228 703 212 719 q 244 665 244 687 m 624 665 q 608 626 624 642 q 570 610 592 610 q 531 626 547 610 q 515 665 515 642 q 531 703 515 687 q 570 719 547 719 q 608 703 592 719 q 624 665 624 687 m 244 475 q 228 436 244 452 q 190 420 212 420 q 152 436 168 420 q 136 475 136 452 q 152 513 136 497 q 190 529 168 529 q 228 513 212 529 q 244 475 244 497 m 624 475 q 608 436 624 452 q 570 420 592 420 q 531 436 547 420 q 515 475 515 452 q 531 513 515 497 q 570 529 547 529 q 608 513 592 529 q 624 475 624 497 m 244 285 q 228 247 244 262 q 190 231 212 231 q 152 247 168 231 q 136 285 136 262 q 152 323 136 307 q 190 339 168 339 q 228 323 212 339 q 244 285 244 307 m 624 285 q 608 247 624 262 q 570 231 592 231 q 531 247 547 231 q 515 285 515 262 q 531 323 515 307 q 570 339 547 339 q 608 323 592 339 q 624 285 624 307 m 244 95 q 228 57 244 73 q 190 41 212 41 q 152 57 168 41 q 136 95 136 73 q 152 133 136 117 q 190 149 168 149 q 228 133 212 149 q 244 95 244 117 m 434 95 q 418 57 434 73 q 380 41 402 41 q 341 57 357 41 q 326 95 326 73 q 341 133 326 117 q 380 149 357 149 q 418 133 402 149 q 434 95 434 117 z "},"e":{"ha":760,"x_min":136,"x_max":624,"o":"m 244 854 q 228 816 244 832 q 190 800 212 800 q 152 816 168 800 q 136 854 136 832 q 152 893 136 877 q 190 909 168 909 q 228 893 212 909 q 244 854 244 877 m 434 854 q 418 816 434 832 q 380 800 402 800 q 341 816 357 800 q 326 854 326 832 q 341 893 326 877 q 380 909 357 909 q 418 893 402 909 q 434 854 434 877 m 624 854 q 608 816 624 832 q 570 800 592 800 q 531 816 547 800 q 515 854 515 832 q 531 893 515 877 q 570 909 547 909 q 608 893 592 909 q 624 854 624 877 m 244 665 q 228 626 244 642 q 190 610 212 610 q 152 626 168 610 q 136 665 136 642 q 152 703 136 687 q 190 719 168 719 q 228 703 212 719 q 244 665 244 687 m 244 475 q 228 436 244 452 q 190 420 212 420 q 152 436 168 420 q 136 475 136 452 q 152 513 136 497 q 190 529 168 529 q 228 513 212 529 q 244 475 244 497 m 434 475 q 418 436 434 452 q 380 420 402 420 q 341 436 357 420 q 326 475 326 452 q 341 513 326 497 q 380 529 357 529 q 418 513 402 529 q 434 475 434 497 m 624 475 q 608 436 624 452 q 570 420 592 420 q 531 436 547 420 q 515 475 515 452 q 531 513 515 497 q 570 529 547 529 q 608 513 592 529 q 624 475 624 497 m 244 285 q 228 247 244 262 q 190 231 212 231 q 152 247 168 231 q 136 285 136 262 q 152 323 136 307 q 190 339 168 339 q 228 323 212 339 q 244 285 244 307 m 244 95 q 228 57 244 73 q 190 41 212 41 q 152 57 168 41 q 136 95 136 73 q 152 133 136 117 q 190 149 168 149 q 228 133 212 149 q 244 95 244 117 m 434 95 q 418 57 434 73 q 380 41 402 41 q 341 57 357 41 q 326 95 326 73 q 341 133 326 117 q 380 149 357 149 q 418 133 402 149 q 434 95 434 117 m 624 95 q 608 57 624 73 q 570 41 592 41 q 531 57 547 41 q 515 95 515 73 q 531 133 515 117 q 570 149 547 149 q 608 133 592 149 q 624 95 624 117 z "},"f":{"ha":760,"x_min":136,"x_max":624,"o":"m 244 854 q 228 816 244 832 q 190 800 212 800 q 152 816 168 800 q 136 854 136 832 q 152 893 136 877 q 190 909 168 909 q 228 893 212 909 q 244 854 244 877 m 434 854 q 418 816 434 832 q 380 800 402 800 q 341 816 357 800 q 326 854 326 832 q 341 893 326 877 q 380 909 357 909 q 418 893 402 909 q 434 854 434 877 m 624 854 q 608 816 624 832 q 570 800 592 800 q 531 816 547 800 q 515 854 515 832 q 531 893 515 877 q 570 909 547 909 q 608 893 592 909 q 624 854 624 877 m 244 665 q 228 626 244 642 q 190 610 212 610 q 152 626 168 610 q 136 665 136 642 q 152 703 136 687 q 190 719 168 719 q 228 703 212 719 q 244 665 244 687 m 244 475 q 228 436 244 452 q 190 420 212 420 q 152 436 168 420 q 136 475 136 452 q 152 513 136 497 q 190 529 168 529 q 228 513 212 529 q 244 475 244 497 m 434 475 q 418 436 434 452 q 380 420 402 420 q 341 436 357 420 q 326 475 326 452 q 341 513 326 497 q 380 529 357 529 q 418 513 402 529 q 434 475 434 497 m 624 475 q 608 436 624 452 q 570 420 592 420 q 531 436 547 420 q 515 475 515 452 q 531 513 515 497 q 570 529 547 529 q 608 513 592 529 q 624 475 624 497 m 244 285 q 228 247 244 262 q 190 231 212 231 q 152 247 168 231 q 136 285 136 262 q 152 323 136 307 q 190 339 168 339 q 228 323 212 339 q 244 285 244 307 m 244 95 q 228 57 244 73 q 190 41 212 41 q 152 57 168 41 q 136 95 136 73 q 152 133 136 117 q 190 149 168 149 q 228 133 212 149 q 244 95 244 117 z "},"g":{"ha":760,"x_min":136,"x_max":624,"o":"m 434 854 q 418 816 434 832 q 380 800 402 800 q 341 816 357 800 q 326 854 326 832 q 341 893 326 877 q 380 909 357 909 q 418 893 402 909 q 434 854 434 877 m 624 854 q 608 816 624 832 q 570 800 592 800 q 531 816 547 800 q 515 854 515 832 q 531 893 515 877 q 570 909 547 909 q 608 893 592 909 q 624 854 624 877 m 244 665 q 228 626 244 642 q 190 610 212 610 q 152 626 168 610 q 136 665 136 642 q 152 703 136 687 q 190 719 168 719 q 228 703 212 719 q 244 665 244 687 m 244 475 q 228 436 244 452 q 190 420 212 420 q 152 436 168 420 q 136 475 136 452 q 152 513 136 497 q 190 529 168 529 q 228 513 212 529 q 244 475 244 497 m 624 475 q 608 436 624 452 q 570 420 592 420 q 531 436 547 420 q 515 475 515 452 q 531 513 515 497 q 570 529 547 529 q 608 513 592 529 q 624 475 624 497 m 244 285 q 228 247 244 262 q 190 231 212 231 q 152 247 168 231 q 136 285 136 262 q 152 323 136 307 q 190 339 168 339 q 228 323 212 339 q 244 285 244 307 m 624 285 q 608 247 624 262 q 570 231 592 231 q 531 247 547 231 q 515 285 515 262 q 531 323 515 307 q 570 339 547 339 q 608 323 592 339 q 624 285 624 307 m 434 95 q 418 57 434 73 q 380 41 402 41 q 341 57 357 41 q 326 95 326 73 q 341 133 326 117 q 380 149 357 149 q 418 133 402 149 q 434 95 434 117 m 624 95 q 608 57 624 73 q 570 41 592 41 q 531 57 547 41 q 515 95 515 73 q 531 133 515 117 q 570 149 547 149 q 608 133 592 149 q 624 95 624 117 z "},"h":{"ha":760,"x_min":136,"x_max":624,"o":"m 244 854 q 228 816 244 832 q 190 800 212 800 q 152 816 168 800 q 136 854 136 832 q 152 893 136 877 q 190 909 168 909 q 228 893 212 909 q 244 854 244 877 m 624 854 q 608 816 624 832 q 570 800 592 800 q 531 816 547 800 q 515 854 515 832 q 531 893 515 877 q 570 909 547 909 q 608 893 592 909 q 624 854 624 877 m 244 665 q 228 626 244 642 q 190 610 212 610 q 152 626 168 610 q 136 665 136 642 q 152 703 136 687 q 190 719 168 719 q 228 703 212 719 q 244 665 244 687 m 624 665 q 608 626 624 642 q 570 610 592 610 q 531 626 547 610 q 515 665 515 642 q 531 703 515 687 q 570 719 547 719 q 608 703 592 719 q 624 665 624 687 m 244 475 q 228 436 244 452 q 190 420 212 420 q 152 436 168 420 q 136 475 136 452 q 152 513 136 497 q 190 529 168 529 q 228 513 212 529 q 244 475 244 497 m 434 475 q 418 436 434 452 q 380 420 402 420 q 341 436 357 420 q 326 475 326 452 q 341 513 326 497 q 380 529 357 529 q 418 513 402 529 q 434 475 434 497 m 624 475 q 608 436 624 452 q 570 420 592 420 q 531 436 547 420 q 515 475 515 452 q 531 513 515 497 q 570 529 547 529 q 608 513 592 529 q 624 475 624 497 m 244 285 q 228 247 244 262 q 190 231 212 231 q 152 247 168 231 q 136 285 136 262 q 152 323 136 307 q 190 339 168 339 q 228 323 212 339 q 244 285 244 307 m 624 285 q 608 247 624 262 q 570 231 592 231 q 531 247 547 231 q 515 285 515 262 q 531 323 515 307 q 570 339 547 339 q 608 323 592 339 q 624 285 624 307 m 244 95 q 228 57 244 73 q 190 41 212 41 q 152 57 168 41 q 136 95 136 73 q 152 133 136 117 q 190 149 168 149 q 228 133 212 149 q 244 95 244 117 m 624 95 q 608 57 624 73 q 570 41 592 41 q 531 57 547 41 q 515 95 515 73 q 531 133 515 117 q 570 149 547 149 q 608 133 592 149 q 624 95 624 117 z "},"i":{"ha":760,"x_min":136,"x_max":624,"o":"m 244 854 q 228 816 244 832 q 190 800 212 800 q 152 816 168 800 q 136 854 136 832 q 152 893 136 877 q 190 909 168 909 q 228 893 212 909 q 244 854 244 877 m 434 854 q 418 816 434 832 q 380 800 402 800 q 341 816 357 800 q 326 854 326 832 q 341 893 326 877 q 380 909 357 909 q 418 893 402 909 q 434 854 434 877 m 624 854 q 608 816 624 832 q 570 800 592 800 q 531 816 547 800 q 515 854 515 832 q 531 893 515 877 q 570 909 547 909 q 608 893 592 909 q 624 854 624 877 m 434 665 q 418 626 434 642 q 380 610 402 610 q 341 626 357 610 q 326 665 326 642 q 341 703 326 687 q 380 719 357 719 q 418 703 402 719 q 434 665 434 687 m 434 475 q 418 436 434 452 q 380 420 402 420 q 341 436 357 420 q 326 475 326 452 q 341 513 326 497 q 380 529 357 529 q 418 513 402 529 q 434 475 434 497 m 434 285 q 418 247 434 262 q 380 231 402 231 q 341 247 357 231 q 326 285 326 262 q 341 323 326 307 q 380 339 357 339 q 418 323 402 339 q 434 285 434 307 m 244 95 q 228 57 244 73 q 190 41 212 41 q 152 57 168 41 q 136 95 136 73 q 152 133 136 117 q 190 149 168 149 q 228 133 212 149 q 244 95 244 117 m 434 95 q 418 57 434 73 q 380 41 402 41 q 341 57 357 41 q 326 95 326 73 q 341 133 326 117 q 380 149 357 149 q 418 133 402 149 q 434 95 434 117 m 624 95 q 608 57 624 73 q 570 41 592 41 q 531 57 547 41 q 515 95 515 73 q 531 133 515 117 q 570 149 547 149 q 608 133 592 149 q 624 95 624 117 z "},"j":{"ha":760,"x_min":136,"x_max":624,"o":"m 434 854 q 418 816 434 832 q 380 800 402 800 q 341 816 357 800 q 326 854 326 832 q 341 893 326 877 q 380 909 357 909 q 418 893 402 909 q 434 854 434 877 m 624 854 q 608 816 624 832 q 570 800 592 800 q 531 816 547 800 q 515 854 515 832 q 531 893 515 877 q 570 909 547 909 q 608 893 592 909 q 624 854 624 877 m 624 665 q 608 626 624 642 q 570 610 592 610 q 531 626 547 610 q 515 665 515 642 q 531 703 515 687 q 570 719 547 719 q 608 703 592 719 q 624 665 624 687 m 624 475 q 608 436 624 452 q 570 420 592 420 q 531 436 547 420 q 515 475 515 452 q 531 513 515 497 q 570 529 547 529 q 608 513 592 529 q 624 475 624 497 m 244 285 q 228 247 244 262 q 190 231 212 231 q 152 247 168 231 q 136 285 136 262 q 152 323 136 307 q 190 339 168 339 q 228 323 212 339 q 244 285 244 307 m 624 285 q 608 247 624 262 q 570 231 592 231 q 531 247 547 231 q 515 285 515 262 q 531 323 515 307 q 570 339 547 339 q 608 323 592 339 q 624 285 624 307 m 434 95 q 418 57 434 73 q 380 41 402 41 q 341 57 357 41 q 326 95 326 73 q 341 133 326 117 q 380 149 357 149 q 418 133 402 149 q 434 95 434 117 z "},"k":{"ha":760,"x_min":136,"x_max":624,"o":"m 244 854 q 228 816 244 832 q 190 800 212 800 q 152 816 168 800 q 136 854 136 832 q 152 893 136 877 q 190 909 168 909 q 228 893 212 909 q 244 854 244 877 m 624 854 q 608 816 624 832 q 570 800 592 800 q 531 816 547 800 q 515 854 515 832 q 531 893 515 877 q 570 909 547 909 q 608 893 592 909 q 624 854 624 877 m 244 665 q 228 626 244 642 q 190 610 212 610 q 152 626 168 610 q 136 665 136 642 q 152 703 136 687 q 190 719 168 719 q 228 703 212 719 q 244 665 244 687 m 624 665 q 608 626 624 642 q 570 610 592 610 q 531 626 547 610 q 515 665 515 642 q 531 703 515 687 q 570 719 547 719 q 608 703 592 719 q 624 665 624 687 m 244 475 q 228 436 244 452 q 190 420 212 420 q 152 436 168 420 q 136 475 136 452 q 152 513 136 497 q 190 529 168 529 q 228 513 212 529 q 244 475 244 497 m 434 475 q 418 436 434 452 q 380 420 402 420 q 341 436 357 420 q 326 475 326 452 q 341 513 326 497 q 380 529 357 529 q 418 513 402 529 q 434 475 434 497 m 244 285 q 228 247 244 262 q 190 231 212 231 q 152 247 168 231 q 136 285 136 262 q 152 323 136 307 q 190 339 168 339 q 228 323 212 339 q 244 285 244 307 m 624 285 q 608 247 624 262 q 570 231 592 231 q 531 247 547 231 q 515 285 515 262 q 531 323 515 307 q 570 339 547 339 q 608 323 592 339 q 624 285 624 307 m 244 95 q 228 57 244 73 q 190 41 212 41 q 152 57 168 41 q 136 95 136 73 q 152 133 136 117 q 190 149 168 149 q 228 133 212 149 q 244 95 244 117 m 624 95 q 608 57 624 73 q 570 41 592 41 q 531 57 547 41 q 515 95 515 73 q 531 133 515 117 q 570 149 547 149 q 608 133 592 149 q 624 95 624 117 z "},"l":{"ha":760,"x_min":136,"x_max":624,"o":"m 244 854 q 228 816 244 832 q 190 800 212 800 q 152 816 168 800 q 136 854 136 832 q 152 893 136 877 q 190 909 168 909 q 228 893 212 909 q 244 854 244 877 m 244 665 q 228 626 244 642 q 190 610 212 610 q 152 626 168 610 q 136 665 136 642 q 152 703 136 687 q 190 719 168 719 q 228 703 212 719 q 244 665 244 687 m 244 475 q 228 436 244 452 q 190 420 212 420 q 152 436 168 420 q 136 475 136 452 q 152 513 136 497 q 190 529 168 529 q 228 513 212 529 q 244 475 244 497 m 244 285 q 228 247 244 262 q 190 231 212 231 q 152 247 168 231 q 136 285 136 262 q 152 323 136 307 q 190 339 168 339 q 228 323 212 339 q 244 285 244 307 m 244 95 q 228 57 244 73 q 190 41 212 41 q 152 57 168 41 q 136 95 136 73 q 152 133 136 117 q 190 149 168 149 q 228 133 212 149 q 244 95 244 117 m 434 95 q 418 57 434 73 q 380 41 402 41 q 341 57 357 41 q 326 95 326 73 q 341 133 326 117 q 380 149 357 149 q 418 133 402 149 q 434 95 434 117 m 624 95 q 608 57 624 73 q 570 41 592 41 q 531 57 547 41 q 515 95 515 73 q 531 133 515 117 q 570 149 547 149 q 608 133 592 149 q 624 95 624 117 z "},"m":{"ha":760,"x_min":136,"x_max":624,"o":"m 244 854 q 228 816 244 832 q 190 800 212 800 q 152 816 168 800 q 136 854 136 832 q 152 893 136 877 q 190 909 168 909 q 228 893 212 909 q 244 854 244 877 m 624 854 q 608 816 624 832 q 570 800 592 800 q 531 816 547 800 q 515 854 515 832 q 531 893 515 877 q 570 909 547 909 q 608 893 592 909 q 624 854 624 877 m 244 665 q 228 626 244 642 q 190 610 212 610 q 152 626 168 610 q 136 665 136 642 q 152 703 136 687 q 190 719 168 719 q 228 703 212 719 q 244 665 244 687 m 434 665 q 418 626 434 642 q 380 610 402 610 q 341 626 357 610 q 326 665 326 642 q 341 703 326 687 q 380 719 357 719 q 418 703 402 719 q 434 665 434 687 m 624 665 q 608 626 624 642 q 570 610 592 610 q 531 626 547 610 q 515 665 515 642 q 531 703 515 687 q 570 719 547 719 q 608 703 592 719 q 624 665 624 687 m 244 475 q 228 436 244 452 q 190 420 212 420 q 152 436 168 420 q 136 475 136 452 q 152 513 136 497 q 190 529 168 529 q 228 513 212 529 q 244 475 244 497 m 624 475 q 608 436 624 452 q 570 420 592 420 q 531 436 547 420 q 515 475 515 452 q 531 513 515 497 q 570 529 547 529 q 608 513 592 529 q 624 475 624 497 m 244 285 q 228 247 244 262 q 190 231 212 231 q 152 247 168 231 q 136 285 136 262 q 152 323 136 307 q 190 339 168 339 q 228 323 212 339 q 244 285 244 307 m 624 285 q 608 247 624 262 q 570 231 592 231 q 531 247 547 231 q 515 285 515 262 q 531 323 515 307 q 570 339 547 339 q 608 323 592 339 q 624 285 624 307 m 244 95 q 228 57 244 73 q 190 41 212 41 q 152 57 168 41 q 136 95 136 73 q 152 133 136 117 q 190 149 168 149 q 228 133 212 149 q 244 95 244 117 m 624 95 q 608 57 624 73 q 570 41 592 41 q 531 57 547 41 q 515 95 515 73 q 531 133 515 117 q 570 149 547 149 q 608 133 592 149 q 624 95 624 117 z "},"n":{"ha":760,"x_min":136,"x_max":624,"o":"m 244 854 q 228 816 244 832 q 190 800 212 800 q 152 816 168 800 q 136 854 136 832 q 152 893 136 877 q 190 909 168 909 q 228 893 212 909 q 244 854 244 877 m 434 854 q 418 816 434 832 q 380 800 402 800 q 341 816 357 800 q 326 854 326 832 q 341 893 326 877 q 380 909 357 909 q 418 893 402 909 q 434 854 434 877 m 244 665 q 228 626 244 642 q 190 610 212 610 q 152 626 168 610 q 136 665 136 642 q 152 703 136 687 q 190 719 168 719 q 228 703 212 719 q 244 665 244 687 m 624 665 q 608 626 624 642 q 570 610 592 610 q 531 626 547 610 q 515 665 515 642 q 531 703 515 687 q 570 719 547 719 q 608 703 592 719 q 624 665 624 687 m 244 475 q 228 436 244 452 q 190 420 212 420 q 152 436 168 420 q 136 475 136 452 q 152 513 136 497 q 190 529 168 529 q 228 513 212 529 q 244 475 244 497 m 624 475 q 608 436 624 452 q 570 420 592 420 q 531 436 547 420 q 515 475 515 452 q 531 513 515 497 q 570 529 547 529 q 608 513 592 529 q 624 475 624 497 m 244 285 q 228 247 244 262 q 190 231 212 231 q 152 247 168 231 q 136 285 136 262 q 152 323 136 307 q 190 339 168 339 q 228 323 212 339 q 244 285 244 307 m 624 285 q 608 247 624 262 q 570 231 592 231 q 531 247 547 231 q 515 285 515 262 q 531 323 515 307 q 570 339 547 339 q 608 323 592 339 q 624 285 624 307 m 244 95 q 228 57 244 73 q 190 41 212 41 q 152 57 168 41 q 136 95 136 73 q 152 133 136 117 q 190 149 168 149 q 228 133 212 149 q 244 95 244 117 m 624 95 q 608 57 624 73 q 570 41 592 41 q 531 57 547 41 q 515 95 515 73 q 531 133 515 117 q 570 149 547 149 q 608 133 592 149 q 624 95 624 117 z "},"o":{"ha":760,"x_min":136,"x_max":624,"o":"m 434 854 q 418 816 434 832 q 380 800 402 800 q 341 816 357 800 q 326 854 326 832 q 341 893 326 877 q 380 909 357 909 q 418 893 402 909 q 434 854 434 877 m 244 665 q 228 626 244 642 q 190 610 212 610 q 152 626 168 610 q 136 665 136 642 q 152 703 136 687 q 190 719 168 719 q 228 703 212 719 q 244 665 244 687 m 624 665 q 608 626 624 642 q 570 610 592 610 q 531 626 547 610 q 515 665 515 642 q 531 703 515 687 q 570 719 547 719 q 608 703 592 719 q 624 665 624 687 m 244 475 q 228 436 244 452 q 190 420 212 420 q 152 436 168 420 q 136 475 136 452 q 152 513 136 497 q 190 529 168 529 q 228 513 212 529 q 244 475 244 497 m 624 475 q 608 436 624 452 q 570 420 592 420 q 531 436 547 420 q 515 475 515 452 q 531 513 515 497 q 570 529 547 529 q 608 513 592 529 q 624 475 624 497 m 244 285 q 228 247 244 262 q 190 231 212 231 q 152 247 168 231 q 136 285 136 262 q 152 323 136 307 q 190 339 168 339 q 228 323 212 339 q 244 285 244 307 m 624 285 q 608 247 624 262 q 570 231 592 231 q 531 247 547 231 q 515 285 515 262 q 531 323 515 307 q 570 339 547 339 q 608 323 592 339 q 624 285 624 307 m 434 95 q 418 57 434 73 q 380 41 402 41 q 341 57 357 41 q 326 95 326 73 q 341 133 326 117 q 380 149 357 149 q 418 133 402 149 q 434 95 434 117 z "},"p":{"ha":760,"x_min":136,"x_max":624,"o":"m 244 854 q 228 816 244 832 q 190 800 212 800 q 152 816 168 800 q 136 854 136 832 q 152 893 136 877 q 190 909 168 909 q 228 893 212 909 q 244 854 244 877 m 434 854 q 418 816 434 832 q 380 800 402 800 q 341 816 357 800 q 326 854 326 832 q 341 893 326 877 q 380 909 357 909 q 418 893 402 909 q 434 854 434 877 m 244 665 q 228 626 244 642 q 190 610 212 610 q 152 626 168 610 q 136 665 136 642 q 152 703 136 687 q 190 719 168 719 q 228 703 212 719 q 244 665 244 687 m 624 665 q 608 626 624 642 q 570 610 592 610 q 531 626 547 610 q 515 665 515 642 q 531 703 515 687 q 570 719 547 719 q 608 703 592 719 q 624 665 624 687 m 244 475 q 228 436 244 452 q 190 420 212 420 q 152 436 168 420 q 136 475 136 452 q 152 513 136 497 q 190 529 168 529 q 228 513 212 529 q 244 475 244 497 m 434 475 q 418 436 434 452 q 380 420 402 420 q 341 436 357 420 q 326 475 326 452 q 341 513 326 497 q 380 529 357 529 q 418 513 402 529 q 434 475 434 497 m 244 285 q 228 247 244 262 q 190 231 212 231 q 152 247 168 231 q 136 285 136 262 q 152 323 136 307 q 190 339 168 339 q 228 323 212 339 q 244 285 244 307 m 244 95 q 228 57 244 73 q 190 41 212 41 q 152 57 168 41 q 136 95 136 73 q 152 133 136 117 q 190 149 168 149 q 228 133 212 149 q 244 95 244 117 z "},"q":{"ha":760,"x_min":136,"x_max":624,"o":"m 434 854 q 418 816 434 832 q 380 800 402 800 q 341 816 357 800 q 326 854 326 832 q 341 893 326 877 q 380 909 357 909 q 418 893 402 909 q 434 854 434 877 m 244 665 q 228 626 244 642 q 190 610 212 610 q 152 626 168 610 q 136 665 136 642 q 152 703 136 687 q 190 719 168 719 q 228 703 212 719 q 244 665 244 687 m 624 665 q 608 626 624 642 q 570 610 592 610 q 531 626 547 610 q 515 665 515 642 q 531 703 515 687 q 570 719 547 719 q 608 703 592 719 q 624 665 624 687 m 244 475 q 228 436 244 452 q 190 420 212 420 q 152 436 168 420 q 136 475 136 452 q 152 513 136 497 q 190 529 168 529 q 228 513 212 529 q 244 475 244 497 m 624 475 q 608 436 624 452 q 570 420 592 420 q 531 436 547 420 q 515 475 515 452 q 531 513 515 497 q 570 529 547 529 q 608 513 592 529 q 624 475 624 497 m 244 285 q 228 247 244 262 q 190 231 212 231 q 152 247 168 231 q 136 285 136 262 q 152 323 136 307 q 190 339 168 339 q 228 323 212 339 q 244 285 244 307 m 434 285 q 418 247 434 262 q 380 231 402 231 q 341 247 357 231 q 326 285 326 262 q 341 323 326 307 q 380 339 357 339 q 418 323 402 339 q 434 285 434 307 m 624 285 q 608 247 624 262 q 570 231 592 231 q 531 247 547 231 q 515 285 515 262 q 531 323 515 307 q 570 339 547 339 q 608 323 592 339 q 624 285 624 307 m 434 95 q 418 57 434 73 q 380 41 402 41 q 341 57 357 41 q 326 95 326 73 q 341 133 326 117 q 380 149 357 149 q 418 133 402 149 q 434 95 434 117 m 624 95 q 608 57 624 73 q 570 41 592 41 q 531 57 547 41 q 515 95 515 73 q 531 133 515 117 q 570 149 547 149 q 608 133 592 149 q 624 95 624 117 z "},"r":{"ha":760,"x_min":136,"x_max":624,"o":"m 244 854 q 228 816 244 832 q 190 800 212 800 q 152 816 168 800 q 136 854 136 832 q 152 893 136 877 q 190 909 168 909 q 228 893 212 909 q 244 854 244 877 m 434 854 q 418 816 434 832 q 380 800 402 800 q 341 816 357 800 q 326 854 326 832 q 341 893 326 877 q 380 909 357 909 q 418 893 402 909 q 434 854 434 877 m 244 665 q 228 626 244 642 q 190 610 212 610 q 152 626 168 610 q 136 665 136 642 q 152 703 136 687 q 190 719 168 719 q 228 703 212 719 q 244 665 244 687 m 624 665 q 608 626 624 642 q 570 610 592 610 q 531 626 547 610 q 515 665 515 642 q 531 703 515 687 q 570 719 547 719 q 608 703 592 719 q 624 665 624 687 m 244 475 q 228 436 244 452 q 190 420 212 420 q 152 436 168 420 q 136 475 136 452 q 152 513 136 497 q 190 529 168 529 q 228 513 212 529 q 244 475 244 497 m 434 475 q 418 436 434 452 q 380 420 402 420 q 341 436 357 420 q 326 475 326 452 q 341 513 326 497 q 380 529 357 529 q 418 513 402 529 q 434 475 434 497 m 244 285 q 228 247 244 262 q 190 231 212 231 q 152 247 168 231 q 136 285 136 262 q 152 323 136 307 q 190 339 168 339 q 228 323 212 339 q 244 285 244 307 m 624 285 q 608 247 624 262 q 570 231 592 231 q 531 247 547 231 q 515 285 515 262 q 531 323 515 307 q 570 339 547 339 q 608 323 592 339 q 624 285 624 307 m 244 95 q 228 57 244 73 q 190 41 212 41 q 152 57 168 41 q 136 95 136 73 q 152 133 136 117 q 190 149 168 149 q 228 133 212 149 q 244 95 244 117 m 624 95 q 608 57 624 73 q 570 41 592 41 q 531 57 547 41 q 515 95 515 73 q 531 133 515 117 q 570 149 547 149 q 608 133 592 149 q 624 95 624 117 z "},"s":{"ha":760,"x_min":136,"x_max":624,"o":"m 434 854 q 418 816 434 832 q 380 800 402 800 q 341 816 357 800 q 326 854 326 832 q 341 893 326 877 q 380 909 357 909 q 418 893 402 909 q 434 854 434 877 m 624 854 q 608 816 624 832 q 570 800 592 800 q 531 816 547 800 q 515 854 515 832 q 531 893 515 877 q 570 909 547 909 q 608 893 592 909 q 624 854 624 877 m 244 665 q 228 626 244 642 q 190 610 212 610 q 152 626 168 610 q 136 665 136 642 q 152 703 136 687 q 190 719 168 719 q 228 703 212 719 q 244 665 244 687 m 244 475 q 228 436 244 452 q 190 420 212 420 q 152 436 168 420 q 136 475 136 452 q 152 513 136 497 q 190 529 168 529 q 228 513 212 529 q 244 475 244 497 m 434 475 q 418 436 434 452 q 380 420 402 420 q 341 436 357 420 q 326 475 326 452 q 341 513 326 497 q 380 529 357 529 q 418 513 402 529 q 434 475 434 497 m 624 475 q 608 436 624 452 q 570 420 592 420 q 531 436 547 420 q 515 475 515 452 q 531 513 515 497 q 570 529 547 529 q 608 513 592 529 q 624 475 624 497 m 624 285 q 608 247 624 262 q 570 231 592 231 q 531 247 547 231 q 515 285 515 262 q 531 323 515 307 q 570 339 547 339 q 608 323 592 339 q 624 285 624 307 m 244 95 q 228 57 244 73 q 190 41 212 41 q 152 57 168 41 q 136 95 136 73 q 152 133 136 117 q 190 149 168 149 q 228 133 212 149 q 244 95 244 117 m 434 95 q 418 57 434 73 q 380 41 402 41 q 341 57 357 41 q 326 95 326 73 q 341 133 326 117 q 380 149 357 149 q 418 133 402 149 q 434 95 434 117 z "},"t":{"ha":760,"x_min":136,"x_max":624,"o":"m 244 854 q 228 816 244 832 q 190 800 212 800 q 152 816 168 800 q 136 854 136 832 q 152 893 136 877 q 190 909 168 909 q 228 893 212 909 q 244 854 244 877 m 434 854 q 418 816 434 832 q 380 800 402 800 q 341 816 357 800 q 326 854 326 832 q 341 893 326 877 q 380 909 357 909 q 418 893 402 909 q 434 854 434 877 m 624 854 q 608 816 624 832 q 570 800 592 800 q 531 816 547 800 q 515 854 515 832 q 531 893 515 877 q 570 909 547 909 q 608 893 592 909 q 624 854 624 877 m 434 665 q 418 626 434 642 q 380 610 402 610 q 341 626 357 610 q 326 665 326 642 q 341 703 326 687 q 380 719 357 719 q 418 703 402 719 q 434 665 434 687 m 434 475 q 418 436 434 452 q 380 420 402 420 q 341 436 357 420 q 326 475 326 452 q 341 513 326 497 q 380 529 357 529 q 418 513 402 529 q 434 475 434 497 m 434 285 q 418 247 434 262 q 380 231 402 231 q 341 247 357 231 q 326 285 326 262 q 341 323 326 307 q 380 339 357 339 q 418 323 402 339 q 434 285 434 307 m 434 95 q 418 57 434 73 q 380 41 402 41 q 341 57 357 41 q 326 95 326 73 q 341 133 326 117 q 380 149 357 149 q 418 133 402 149 q 434 95 434 117 z "},"u":{"ha":760,"x_min":136,"x_max":624,"o":"m 244 854 q 228 816 244 832 q 190 800 212 800 q 152 816 168 800 q 136 854 136 832 q 152 893 136 877 q 190 909 168 909 q 228 893 212 909 q 244 854 244 877 m 624 854 q 608 816 624 832 q 570 800 592 800 q 531 816 547 800 q 515 854 515 832 q 531 893 515 877 q 570 909 547 909 q 608 893 592 909 q 624 854 624 877 m 244 665 q 228 626 244 642 q 190 610 212 610 q 152 626 168 610 q 136 665 136 642 q 152 703 136 687 q 190 719 168 719 q 228 703 212 719 q 244 665 244 687 m 624 665 q 608 626 624 642 q 570 610 592 610 q 531 626 547 610 q 515 665 515 642 q 531 703 515 687 q 570 719 547 719 q 608 703 592 719 q 624 665 624 687 m 244 475 q 228 436 244 452 q 190 420 212 420 q 152 436 168 420 q 136 475 136 452 q 152 513 136 497 q 190 529 168 529 q 228 513 212 529 q 244 475 244 497 m 624 475 q 608 436 624 452 q 570 420 592 420 q 531 436 547 420 q 515 475 515 452 q 531 513 515 497 q 570 529 547 529 q 608 513 592 529 q 624 475 624 497 m 244 285 q 228 247 244 262 q 190 231 212 231 q 152 247 168 231 q 136 285 136 262 q 152 323 136 307 q 190 339 168 339 q 228 323 212 339 q 244 285 244 307 m 624 285 q 608 247 624 262 q 570 231 592 231 q 531 247 547 231 q 515 285 515 262 q 531 323 515 307 q 570 339 547 339 q 608 323 592 339 q 624 285 624 307 m 244 95 q 228 57 244 73 q 190 41 212 41 q 152 57 168 41 q 136 95 136 73 q 152 133 136 117 q 190 149 168 149 q 228 133 212 149 q 244 95 244 117 m 434 95 q 418 57 434 73 q 380 41 402 41 q 341 57 357 41 q 326 95 326 73 q 341 133 326 117 q 380 149 357 149 q 418 133 402 149 q 434 95 434 117 m 624 95 q 608 57 624 73 q 570 41 592 41 q 531 57 547 41 q 515 95 515 73 q 531 133 515 117 q 570 149 547 149 q 608 133 592 149 q 624 95 624 117 z "},"v":{"ha":760,"x_min":136,"x_max":624,"o":"m 244 854 q 228 816 244 832 q 190 800 212 800 q 152 816 168 800 q 136 854 136 832 q 152 893 136 877 q 190 909 168 909 q 228 893 212 909 q 244 854 244 877 m 624 854 q 608 816 624 832 q 570 800 592 800 q 531 816 547 800 q 515 854 515 832 q 531 893 515 877 q 570 909 547 909 q 608 893 592 909 q 624 854 624 877 m 244 665 q 228 626 244 642 q 190 610 212 610 q 152 626 168 610 q 136 665 136 642 q 152 703 136 687 q 190 719 168 719 q 228 703 212 719 q 244 665 244 687 m 624 665 q 608 626 624 642 q 570 610 592 610 q 531 626 547 610 q 515 665 515 642 q 531 703 515 687 q 570 719 547 719 q 608 703 592 719 q 624 665 624 687 m 244 475 q 228 436 244 452 q 190 420 212 420 q 152 436 168 420 q 136 475 136 452 q 152 513 136 497 q 190 529 168 529 q 228 513 212 529 q 244 475 244 497 m 624 475 q 608 436 624 452 q 570 420 592 420 q 531 436 547 420 q 515 475 515 452 q 531 513 515 497 q 570 529 547 529 q 608 513 592 529 q 624 475 624 497 m 434 285 q 418 247 434 262 q 380 231 402 231 q 341 247 357 231 q 326 285 326 262 q 341 323 326 307 q 380 339 357 339 q 418 323 402 339 q 434 285 434 307 m 434 95 q 418 57 434 73 q 380 41 402 41 q 341 57 357 41 q 326 95 326 73 q 341 133 326 117 q 380 149 357 149 q 418 133 402 149 q 434 95 434 117 z "},"w":{"ha":760,"x_min":136,"x_max":624,"o":"m 244 854 q 228 816 244 832 q 190 800 212 800 q 152 816 168 800 q 136 854 136 832 q 152 893 136 877 q 190 909 168 909 q 228 893 212 909 q 244 854 244 877 m 624 854 q 608 816 624 832 q 570 800 592 800 q 531 816 547 800 q 515 854 515 832 q 531 893 515 877 q 570 909 547 909 q 608 893 592 909 q 624 854 624 877 m 244 665 q 228 626 244 642 q 190 610 212 610 q 152 626 168 610 q 136 665 136 642 q 152 703 136 687 q 190 719 168 719 q 228 703 212 719 q 244 665 244 687 m 624 665 q 608 626 624 642 q 570 610 592 610 q 531 626 547 610 q 515 665 515 642 q 531 703 515 687 q 570 719 547 719 q 608 703 592 719 q 624 665 624 687 m 244 475 q 228 436 244 452 q 190 420 212 420 q 152 436 168 420 q 136 475 136 452 q 152 513 136 497 q 190 529 168 529 q 228 513 212 529 q 244 475 244 497 m 624 475 q 608 436 624 452 q 570 420 592 420 q 531 436 547 420 q 515 475 515 452 q 531 513 515 497 q 570 529 547 529 q 608 513 592 529 q 624 475 624 497 m 244 285 q 228 247 244 262 q 190 231 212 231 q 152 247 168 231 q 136 285 136 262 q 152 323 136 307 q 190 339 168 339 q 228 323 212 339 q 244 285 244 307 m 434 285 q 418 247 434 262 q 380 231 402 231 q 341 247 357 231 q 326 285 326 262 q 341 323 326 307 q 380 339 357 339 q 418 323 402 339 q 434 285 434 307 m 624 285 q 608 247 624 262 q 570 231 592 231 q 531 247 547 231 q 515 285 515 262 q 531 323 515 307 q 570 339 547 339 q 608 323 592 339 q 624 285 624 307 m 244 95 q 228 57 244 73 q 190 41 212 41 q 152 57 168 41 q 136 95 136 73 q 152 133 136 117 q 190 149 168 149 q 228 133 212 149 q 244 95 244 117 m 624 95 q 608 57 624 73 q 570 41 592 41 q 531 57 547 41 q 515 95 515 73 q 531 133 515 117 q 570 149 547 149 q 608 133 592 149 q 624 95 624 117 z "},"x":{"ha":760,"x_min":136,"x_max":624,"o":"m 244 854 q 228 816 244 832 q 190 800 212 800 q 152 816 168 800 q 136 854 136 832 q 152 893 136 877 q 190 909 168 909 q 228 893 212 909 q 244 854 244 877 m 624 854 q 608 816 624 832 q 570 800 592 800 q 531 816 547 800 q 515 854 515 832 q 531 893 515 877 q 570 909 547 909 q 608 893 592 909 q 624 854 624 877 m 244 665 q 228 626 244 642 q 190 610 212 610 q 152 626 168 610 q 136 665 136 642 q 152 703 136 687 q 190 719 168 719 q 228 703 212 719 q 244 665 244 687 m 624 665 q 608 626 624 642 q 570 610 592 610 q 531 626 547 610 q 515 665 515 642 q 531 703 515 687 q 570 719 547 719 q 608 703 592 719 q 624 665 624 687 m 434 475 q 418 436 434 452 q 380 420 402 420 q 341 436 357 420 q 326 475 326 452 q 341 513 326 497 q 380 529 357 529 q 418 513 402 529 q 434 475 434 497 m 244 285 q 228 247 244 262 q 190 231 212 231 q 152 247 168 231 q 136 285 136 262 q 152 323 136 307 q 190 339 168 339 q 228 323 212 339 q 244 285 244 307 m 624 285 q 608 247 624 262 q 570 231 592 231 q 531 247 547 231 q 515 285 515 262 q 531 323 515 307 q 570 339 547 339 q 608 323 592 339 q 624 285 624 307 m 244 95 q 228 57 244 73 q 190 41 212 41 q 152 57 168 41 q 136 95 136 73 q 152 133 136 117 q 190 149 168 149 q 228 133 212 149 q 244 95 244 117 m 624 95 q 608 57 624 73 q 570 41 592 41 q 531 57 547 41 q 515 95 515 73 q 531 133 515 117 q 570 149 547 149 q 608 133 592 149 q 624 95 624 117 z "},"y":{"ha":760,"x_min":136,"x_max":624,"o":"m 244 854 q 228 816 244 832 q 190 800 212 800 q 152 816 168 800 q 136 854 136 832 q 152 893 136 877 q 190 909 168 909 q 228 893 212 909 q 244 854 244 877 m 624 854 q 608 816 624 832 q 570 800 592 800 q 531 816 547 800 q 515 854 515 832 q 531 893 515 877 q 570 909 547 909 q 608 893 592 909 q 624 854 624 877 m 244 665 q 228 626 244 642 q 190 610 212 610 q 152 626 168 610 q 136 665 136 642 q 152 703 136 687 q 190 719 168 719 q 228 703 212 719 q 244 665 244 687 m 624 665 q 608 626 624 642 q 570 610 592 610 q 531 626 547 610 q 515 665 515 642 q 531 703 515 687 q 570 719 547 719 q 608 703 592 719 q 624 665 624 687 m 434 475 q 418 436 434 452 q 380 420 402 420 q 341 436 357 420 q 326 475 326 452 q 341 513 326 497 q 380 529 357 529 q 418 513 402 529 q 434 475 434 497 m 434 285 q 418 247 434 262 q 380 231 402 231 q 341 247 357 231 q 326 285 326 262 q 341 323 326 307 q 380 339 357 339 q 418 323 402 339 q 434 285 434 307 m 434 95 q 418 57 434 73 q 380 41 402 41 q 341 57 357 41 q 326 95 326 73 q 341 133 326 117 q 380 149 357 149 q 418 133 402 149 q 434 95 434 117 z "},"z":{"ha":760,"x_min":136,"x_max":624,"o":"m 244 854 q 228 816 244 832 q 190 800 212 800 q 152 816 168 800 q 136 854 136 832 q 152 893 136 877 q 190 909 168 909 q 228 893 212 909 q 244 854 244 877 m 434 854 q 418 816 434 832 q 380 800 402 800 q 341 816 357 800 q 326 854 326 832 q 341 893 326 877 q 380 909 357 909 q 418 893 402 909 q 434 854 434 877 m 624 854 q 608 816 624 832 q 570 800 592 800 q 531 816 547 800 q 515 854 515 832 q 531 893 515 877 q 570 909 547 909 q 608 893 592 909 q 624 854 624 877 m 624 665 q 608 626 624 642 q 570 610 592 610 q 531 626 547 610 q 515 665 515 642 q 531 703 515 687 q 570 719 547 719 q 608 703 592 719 q 624 665 624 687 m 434 475 q 418 436 434 452 q 380 420 402 420 q 341 436 357 420 q 326 475 326 452 q 341 513 326 497 q 380 529 357 529 q 418 513 402 529 q 434 475 434 497 m 244 285 q 228 247 244 262 q 190 231 212 231 q 152 247 168 231 q 136 285 136 262 q 152 323 136 307 q 190 339 168 339 q 228 323 212 339 q 244 285 244 307 m 244 95 q 228 57 244 73 q 190 41 212 41 q 152 57 168 41 q 136 95 136 73 q 152 133 136 117 q 190 149 168 149 q 228 133 212 149 q 244 95 244 117 m 434 95 q 418 57 434 73 q 380 41 402 41 q 341 57 357 41 q 326 95 326 73 q 341 133 326 117 q 380 149 357 149 q 418 133 402 149 q 434 95 434 117 m 624 95 q 608 57 624 73 q 570 41 592 41 q 531 57 547 41 q 515 95 515 73 q 531 133 515 117 q 570 149 547 149 q 608 133 592 149 q 624 95 624 117 z "},"{":{"ha":760,"x_min":136,"x_max":624,"o":"m 434 854 q 418 816 434 832 q 380 800 402 800 q 341 816 357 800 q 326 854 326 832 q 341 893 326 877 q 380 909 357 909 q 418 893 402 909 q 434 854 434 877 m 624 854 q 608 816 624 832 q 570 800 592 800 q 531 816 547 800 q 515 854 515 832 q 531 893 515 877 q 570 909 547 909 q 608 893 592 909 q 624 854 624 877 m 434 665 q 418 626 434 642 q 380 610 402 610 q 341 626 357 610 q 326 665 326 642 q 341 703 326 687 q 380 719 357 719 q 418 703 402 719 q 434 665 434 687 m 244 475 q 228 436 244 452 q 190 420 212 420 q 152 436 168 420 q 136 475 136 452 q 152 513 136 497 q 190 529 168 529 q 228 513 212 529 q 244 475 244 497 m 434 475 q 418 436 434 452 q 380 420 402 420 q 341 436 357 420 q 326 475 326 452 q 341 513 326 497 q 380 529 357 529 q 418 513 402 529 q 434 475 434 497 m 434 285 q 418 247 434 262 q 380 231 402 231 q 341 247 357 231 q 326 285 326 262 q 341 323 326 307 q 380 339 357 339 q 418 323 402 339 q 434 285 434 307 m 434 95 q 418 57 434 73 q 380 41 402 41 q 341 57 357 41 q 326 95 326 73 q 341 133 326 117 q 380 149 357 149 q 418 133 402 149 q 434 95 434 117 m 624 95 q 608 57 624 73 q 570 41 592 41 q 531 57 547 41 q 515 95 515 73 q 531 133 515 117 q 570 149 547 149 q 608 133 592 149 q 624 95 624 117 z "},"|":{"ha":760,"x_min":326,"x_max":434,"o":"m 434 854 q 418 816 434 832 q 380 800 402 800 q 341 816 357 800 q 326 854 326 832 q 341 893 326 877 q 380 909 357 909 q 418 893 402 909 q 434 854 434 877 m 434 665 q 418 626 434 642 q 380 610 402 610 q 341 626 357 610 q 326 665 326 642 q 341 703 326 687 q 380 719 357 719 q 418 703 402 719 q 434 665 434 687 m 434 475 q 418 436 434 452 q 380 420 402 420 q 341 436 357 420 q 326 475 326 452 q 341 513 326 497 q 380 529 357 529 q 418 513 402 529 q 434 475 434 497 m 434 285 q 418 247 434 262 q 380 231 402 231 q 341 247 357 231 q 326 285 326 262 q 341 323 326 307 q 380 339 357 339 q 418 323 402 339 q 434 285 434 307 m 434 95 q 418 57 434 73 q 380 41 402 41 q 341 57 357 41 q 326 95 326 73 q 341 133 326 117 q 380 149 357 149 q 418 133 402 149 q 434 95 434 117 z "},"}":{"ha":760,"x_min":136,"x_max":624,"o":"m 244 854 q 228 816 244 832 q 190 800 212 800 q 152 816 168 800 q 136 854 136 832 q 152 893 136 877 q 190 909 168 909 q 228 893 212 909 q 244 854 244 877 m 434 854 q 418 816 434 832 q 380 800 402 800 q 341 816 357 800 q 326 854 326 832 q 341 893 326 877 q 380 909 357 909 q 418 893 402 909 q 434 854 434 877 m 434 665 q 418 626 434 642 q 380 610 402 610 q 341 626 357 610 q 326 665 326 642 q 341 703 326 687 q 380 719 357 719 q 418 703 402 719 q 434 665 434 687 m 434 475 q 418 436 434 452 q 380 420 402 420 q 341 436 357 420 q 326 475 326 452 q 341 513 326 497 q 380 529 357 529 q 418 513 402 529 q 434 475 434 497 m 624 475 q 608 436 624 452 q 570 420 592 420 q 531 436 547 420 q 515 475 515 452 q 531 513 515 497 q 570 529 547 529 q 608 513 592 529 q 624 475 624 497 m 434 285 q 418 247 434 262 q 380 231 402 231 q 341 247 357 231 q 326 285 326 262 q 341 323 326 307 q 380 339 357 339 q 418 323 402 339 q 434 285 434 307 m 244 95 q 228 57 244 73 q 190 41 212 41 q 152 57 168 41 q 136 95 136 73 q 152 133 136 117 q 190 149 168 149 q 228 133 212 149 q 244 95 244 117 m 434 95 q 418 57 434 73 q 380 41 402 41 q 341 57 357 41 q 326 95 326 73 q 341 133 326 117 q 380 149 357 149 q 418 133 402 149 q 434 95 434 117 z "},"¢":{"ha":760,"x_min":136,"x_max":624,"o":"m 434 854 q 418 816 434 832 q 380 800 402 800 q 341 816 357 800 q 326 854 326 832 q 341 893 326 877 q 380 909 357 909 q 418 893 402 909 q 434 854 434 877 m 244 665 q 228 626 244 642 q 190 610 212 610 q 152 626 168 610 q 136 665 136 642 q 152 703 136 687 q 190 719 168 719 q 228 703 212 719 q 244 665 244 687 m 434 665 q 418 626 434 642 q 380 610 402 610 q 341 626 357 610 q 326 665 326 642 q 341 703 326 687 q 380 719 357 719 q 418 703 402 719 q 434 665 434 687 m 624 665 q 608 626 624 642 q 570 610 592 610 q 531 626 547 610 q 515 665 515 642 q 531 703 515 687 q 570 719 547 719 q 608 703 592 719 q 624 665 624 687 m 244 475 q 228 436 244 452 q 190 420 212 420 q 152 436 168 420 q 136 475 136 452 q 152 513 136 497 q 190 529 168 529 q 228 513 212 529 q 244 475 244 497 m 434 475 q 418 436 434 452 q 380 420 402 420 q 341 436 357 420 q 326 475 326 452 q 341 513 326 497 q 380 529 357 529 q 418 513 402 529 q 434 475 434 497 m 244 285 q 228 247 244 262 q 190 231 212 231 q 152 247 168 231 q 136 285 136 262 q 152 323 136 307 q 190 339 168 339 q 228 323 212 339 q 244 285 244 307 m 434 285 q 418 247 434 262 q 380 231 402 231 q 341 247 357 231 q 326 285 326 262 q 341 323 326 307 q 380 339 357 339 q 418 323 402 339 q 434 285 434 307 m 624 285 q 608 247 624 262 q 570 231 592 231 q 531 247 547 231 q 515 285 515 262 q 531 323 515 307 q 570 339 547 339 q 608 323 592 339 q 624 285 624 307 m 434 95 q 418 57 434 73 q 380 41 402 41 q 341 57 357 41 q 326 95 326 73 q 341 133 326 117 q 380 149 357 149 q 418 133 402 149 q 434 95 434 117 z "},"¦":{"ha":760,"x_min":326,"x_max":434,"o":"m 434 854 q 418 816 434 832 q 380 800 402 800 q 341 816 357 800 q 326 854 326 832 q 341 893 326 877 q 380 909 357 909 q 418 893 402 909 q 434 854 434 877 m 434 665 q 418 626 434 642 q 380 610 402 610 q 341 626 357 610 q 326 665 326 642 q 341 703 326 687 q 380 719 357 719 q 418 703 402 719 q 434 665 434 687 m 434 285 q 418 247 434 262 q 380 231 402 231 q 341 247 357 231 q 326 285 326 262 q 341 323 326 307 q 380 339 357 339 q 418 323 402 339 q 434 285 434 307 m 434 95 q 418 57 434 73 q 380 41 402 41 q 341 57 357 41 q 326 95 326 73 q 341 133 326 117 q 380 149 357 149 q 418 133 402 149 q 434 95 434 117 z "},"¬":{"ha":760,"x_min":136,"x_max":624,"o":"m 244 475 q 228 436 244 452 q 190 420 212 420 q 152 436 168 420 q 136 475 136 452 q 152 513 136 497 q 190 529 168 529 q 228 513 212 529 q 244 475 244 497 m 434 475 q 418 436 434 452 q 380 420 402 420 q 341 436 357 420 q 326 475 326 452 q 341 513 326 497 q 380 529 357 529 q 418 513 402 529 q 434 475 434 497 m 624 475 q 608 436 624 452 q 570 420 592 420 q 531 436 547 420 q 515 475 515 452 q 531 513 515 497 q 570 529 547 529 q 608 513 592 529 q 624 475 624 497 m 624 285 q 608 247 624 262 q 570 231 592 231 q 531 247 547 231 q 515 285 515 262 q 531 323 515 307 q 570 339 547 339 q 608 323 592 339 q 624 285 624 307 z "},"±":{"ha":760,"x_min":136,"x_max":624,"o":"m 434 854 q 418 816 434 832 q 380 800 402 800 q 341 816 357 800 q 326 854 326 832 q 341 893 326 877 q 380 909 357 909 q 418 893 402 909 q 434 854 434 877 m 244 665 q 228 626 244 642 q 190 610 212 610 q 152 626 168 610 q 136 665 136 642 q 152 703 136 687 q 190 719 168 719 q 228 703 212 719 q 244 665 244 687 m 434 665 q 418 626 434 642 q 380 610 402 610 q 341 626 357 610 q 326 665 326 642 q 341 703 326 687 q 380 719 357 719 q 418 703 402 719 q 434 665 434 687 m 624 665 q 608 626 624 642 q 570 610 592 610 q 531 626 547 610 q 515 665 515 642 q 531 703 515 687 q 570 719 547 719 q 608 703 592 719 q 624 665 624 687 m 434 475 q 418 436 434 452 q 380 420 402 420 q 341 436 357 420 q 326 475 326 452 q 341 513 326 497 q 380 529 357 529 q 418 513 402 529 q 434 475 434 497 m 244 95 q 228 57 244 73 q 190 41 212 41 q 152 57 168 41 q 136 95 136 73 q 152 133 136 117 q 190 149 168 149 q 228 133 212 149 q 244 95 244 117 m 434 95 q 418 57 434 73 q 380 41 402 41 q 341 57 357 41 q 326 95 326 73 q 341 133 326 117 q 380 149 357 149 q 418 133 402 149 q 434 95 434 117 m 624 95 q 608 57 624 73 q 570 41 592 41 q 531 57 547 41 q 515 95 515 73 q 531 133 515 117 q 570 149 547 149 q 608 133 592 149 q 624 95 624 117 z "},"µ":{"ha":760,"x_min":136,"x_max":624,"o":"m 244 854 q 228 816 244 832 q 190 800 212 800 q 152 816 168 800 q 136 854 136 832 q 152 893 136 877 q 190 909 168 909 q 228 893 212 909 q 244 854 244 877 m 624 854 q 608 816 624 832 q 570 800 592 800 q 531 816 547 800 q 515 854 515 832 q 531 893 515 877 q 570 909 547 909 q 608 893 592 909 q 624 854 624 877 m 244 665 q 228 626 244 642 q 190 610 212 610 q 152 626 168 610 q 136 665 136 642 q 152 703 136 687 q 190 719 168 719 q 228 703 212 719 q 244 665 244 687 m 624 665 q 608 626 624 642 q 570 610 592 610 q 531 626 547 610 q 515 665 515 642 q 531 703 515 687 q 570 719 547 719 q 608 703 592 719 q 624 665 624 687 m 244 475 q 228 436 244 452 q 190 420 212 420 q 152 436 168 420 q 136 475 136 452 q 152 513 136 497 q 190 529 168 529 q 228 513 212 529 q 244 475 244 497 m 624 475 q 608 436 624 452 q 570 420 592 420 q 531 436 547 420 q 515 475 515 452 q 531 513 515 497 q 570 529 547 529 q 608 513 592 529 q 624 475 624 497 m 244 285 q 228 247 244 262 q 190 231 212 231 q 152 247 168 231 q 136 285 136 262 q 152 323 136 307 q 190 339 168 339 q 228 323 212 339 q 244 285 244 307 m 434 285 q 418 247 434 262 q 380 231 402 231 q 341 247 357 231 q 326 285 326 262 q 341 323 326 307 q 380 339 357 339 q 418 323 402 339 q 434 285 434 307 m 244 95 q 228 57 244 73 q 190 41 212 41 q 152 57 168 41 q 136 95 136 73 q 152 133 136 117 q 190 149 168 149 q 228 133 212 149 q 244 95 244 117 z "},"·":{"ha":760,"x_min":326,"x_max":434,"o":"m 434 475 q 418 436 434 452 q 380 420 402 420 q 341 436 357 420 q 326 475 326 452 q 341 513 326 497 q 380 529 357 529 q 418 513 402 529 q 434 475 434 497 z "},"∙":{"ha":760,"x_min":326,"x_max":434,"o":"m 434 475 q 418 436 434 452 q 380 420 402 420 q 341 436 357 420 q 326 475 326 452 q 341 513 326 497 q 380 529 357 529 q 418 513 402 529 q 434 475 434 497 z "},"×":{"ha":760,"x_min":136,"x_max":624,"o":"m 244 665 q 228 626 244 642 q 190 610 212 610 q 152 626 168 610 q 136 665 136 642 q 152 703 136 687 q 190 719 168 719 q 228 703 212 719 q 244 665 244 687 m 624 665 q 608 626 624 642 q 570 610 592 610 q 531 626 547 610 q 515 665 515 642 q 531 703 515 687 q 570 719 547 719 q 608 703 592 719 q 624 665 624 687 m 434 475 q 418 436 434 452 q 380 420 402 420 q 341 436 357 420 q 326 475 326 452 q 341 513 326 497 q 380 529 357 529 q 418 513 402 529 q 434 475 434 497 m 244 285 q 228 247 244 262 q 190 231 212 231 q 152 247 168 231 q 136 285 136 262 q 152 323 136 307 q 190 339 168 339 q 228 323 212 339 q 244 285 244 307 m 624 285 q 608 247 624 262 q 570 231 592 231 q 531 247 547 231 q 515 285 515 262 q 531 323 515 307 q 570 339 547 339 q 608 323 592 339 q 624 285 624 307 z "},"÷":{"ha":760,"x_min":136,"x_max":624,"o":"m 434 854 q 418 816 434 832 q 380 800 402 800 q 341 816 357 800 q 326 854 326 832 q 341 893 326 877 q 380 909 357 909 q 418 893 402 909 q 434 854 434 877 m 244 475 q 228 436 244 452 q 190 420 212 420 q 152 436 168 420 q 136 475 136 452 q 152 513 136 497 q 190 529 168 529 q 228 513 212 529 q 244 475 244 497 m 434 475 q 418 436 434 452 q 380 420 402 420 q 341 436 357 420 q 326 475 326 452 q 341 513 326 497 q 380 529 357 529 q 418 513 402 529 q 434 475 434 497 m 624 475 q 608 436 624 452 q 570 420 592 420 q 531 436 547 420 q 515 475 515 452 q 531 513 515 497 q 570 529 547 529 q 608 513 592 529 q 624 475 624 497 m 434 95 q 418 57 434 73 q 380 41 402 41 q 341 57 357 41 q 326 95 326 73 q 341 133 326 117 q 380 149 357 149 q 418 133 402 149 q 434 95 434 117 z "},"–":{"ha":760,"x_min":136,"x_max":624,"o":"m 244 475 q 228 436 244 452 q 190 420 212 420 q 152 436 168 420 q 136 475 136 452 q 152 513 136 497 q 190 529 168 529 q 228 513 212 529 q 244 475 244 497 m 434 475 q 418 436 434 452 q 380 420 402 420 q 341 436 357 420 q 326 475 326 452 q 341 513 326 497 q 380 529 357 529 q 418 513 402 529 q 434 475 434 497 m 624 475 q 608 436 624 452 q 570 420 592 420 q 531 436 547 420 q 515 475 515 452 q 531 513 515 497 q 570 529 547 529 q 608 513 592 529 q 624 475 624 497 z "},"—":{"ha":760,"x_min":136,"x_max":624,"o":"m 244 475 q 228 436 244 452 q 190 420 212 420 q 152 436 168 420 q 136 475 136 452 q 152 513 136 497 q 190 529 168 529 q 228 513 212 529 q 244 475 244 497 m 434 475 q 418 436 434 452 q 380 420 402 420 q 341 436 357 420 q 326 475 326 452 q 341 513 326 497 q 380 529 357 529 q 418 513 402 529 q 434 475 434 497 m 624 475 q 608 436 624 452 q 570 420 592 420 q 531 436 547 420 q 515 475 515 452 q 531 513 515 497 q 570 529 547 529 q 608 513 592 529 q 624 475 624 497 z "},"‘":{"ha":760,"x_min":326,"x_max":434,"o":"m 434 854 q 418 816 434 832 q 380 800 402 800 q 341 816 357 800 q 326 854 326 832 q 341 893 326 877 q 380 909 357 909 q 418 893 402 909 q 434 854 434 877 m 434 665 q 418 626 434 642 q 380 610 402 610 q 341 626 357 610 q 326 665 326 642 q 341 703 326 687 q 380 719 357 719 q 418 703 402 719 q 434 665 434 687 z "},"’":{"ha":760,"x_min":326,"x_max":434,"o":"m 434 854 q 418 816 434 832 q 380 800 402 800 q 341 816 357 800 q 326 854 326 832 q 341 893 326 877 q 380 909 357 909 q 418 893 402 909 q 434 854 434 877 m 434 665 q 418 626 434 642 q 380 610 402 610 q 341 626 357 610 q 326 665 326 642 q 341 703 326 687 q 380 719 357 719 q 418 703 402 719 q 434 665 434 687 z "},"‚":{"ha":760,"x_min":326,"x_max":434,"o":"m 434 285 q 418 247 434 262 q 380 231 402 231 q 341 247 357 231 q 326 285 326 262 q 341 323 326 307 q 380 339 357 339 q 418 323 402 339 q 434 285 434 307 m 434 95 q 418 57 434 73 q 380 41 402 41 q 341 57 357 41 q 326 95 326 73 q 341 133 326 117 q 380 149 357 149 q 418 133 402 149 q 434 95 434 117 z "},"“":{"ha":760,"x_min":136,"x_max":624,"o":"m 244 854 q 228 816 244 832 q 190 800 212 800 q 152 816 168 800 q 136 854 136 832 q 152 893 136 877 q 190 909 168 909 q 228 893 212 909 q 244 854 244 877 m 624 854 q 608 816 624 832 q 570 800 592 800 q 531 816 547 800 q 515 854 515 832 q 531 893 515 877 q 570 909 547 909 q 608 893 592 909 q 624 854 624 877 m 244 665 q 228 626 244 642 q 190 610 212 610 q 152 626 168 610 q 136 665 136 642 q 152 703 136 687 q 190 719 168 719 q 228 703 212 719 q 244 665 244 687 m 624 665 q 608 626 624 642 q 570 610 592 610 q 531 626 547 610 q 515 665 515 642 q 531 703 515 687 q 570 719 547 719 q 608 703 592 719 q 624 665 624 687 z "},"”":{"ha":760,"x_min":136,"x_max":624,"o":"m 244 854 q 228 816 244 832 q 190 800 212 800 q 152 816 168 800 q 136 854 136 832 q 152 893 136 877 q 190 909 168 909 q 228 893 212 909 q 244 854 244 877 m 624 854 q 608 816 624 832 q 570 800 592 800 q 531 816 547 800 q 515 854 515 832 q 531 893 515 877 q 570 909 547 909 q 608 893 592 909 q 624 854 624 877 m 244 665 q 228 626 244 642 q 190 610 212 610 q 152 626 168 610 q 136 665 136 642 q 152 703 136 687 q 190 719 168 719 q 228 703 212 719 q 244 665 244 687 m 624 665 q 608 626 624 642 q 570 610 592 610 q 531 626 547 610 q 515 665 515 642 q 531 703 515 687 q 570 719 547 719 q 608 703 592 719 q 624 665 624 687 z "},"„":{"ha":760,"x_min":136,"x_max":624,"o":"m 244 285 q 228 247 244 262 q 190 231 212 231 q 152 247 168 231 q 136 285 136 262 q 152 323 136 307 q 190 339 168 339 q 228 323 212 339 q 244 285 244 307 m 624 285 q 608 247 624 262 q 570 231 592 231 q 531 247 547 231 q 515 285 515 262 q 531 323 515 307 q 570 339 547 339 q 608 323 592 339 q 624 285 624 307 m 244 95 q 228 57 244 73 q 190 41 212 41 q 152 57 168 41 q 136 95 136 73 q 152 133 136 117 q 190 149 168 149 q 228 133 212 149 q 244 95 244 117 m 624 95 q 608 57 624 73 q 570 41 592 41 q 531 57 547 41 q 515 95 515 73 q 531 133 515 117 q 570 149 547 149 q 608 133 592 149 q 624 95 624 117 z "},"†":{"ha":760,"x_min":136,"x_max":624,"o":"m 434 854 q 418 816 434 832 q 380 800 402 800 q 341 816 357 800 q 326 854 326 832 q 341 893 326 877 q 380 909 357 909 q 418 893 402 909 q 434 854 434 877 m 244 665 q 228 626 244 642 q 190 610 212 610 q 152 626 168 610 q 136 665 136 642 q 152 703 136 687 q 190 719 168 719 q 228 703 212 719 q 244 665 244 687 m 434 665 q 418 626 434 642 q 380 610 402 610 q 341 626 357 610 q 326 665 326 642 q 341 703 326 687 q 380 719 357 719 q 418 703 402 719 q 434 665 434 687 m 624 665 q 608 626 624 642 q 570 610 592 610 q 531 626 547 610 q 515 665 515 642 q 531 703 515 687 q 570 719 547 719 q 608 703 592 719 q 624 665 624 687 m 434 475 q 418 436 434 452 q 380 420 402 420 q 341 436 357 420 q 326 475 326 452 q 341 513 326 497 q 380 529 357 529 q 418 513 402 529 q 434 475 434 497 m 434 285 q 418 247 434 262 q 380 231 402 231 q 341 247 357 231 q 326 285 326 262 q 341 323 326 307 q 380 339 357 339 q 418 323 402 339 q 434 285 434 307 m 434 95 q 418 57 434 73 q 380 41 402 41 q 341 57 357 41 q 326 95 326 73 q 341 133 326 117 q 380 149 357 149 q 418 133 402 149 q 434 95 434 117 z "},"‡":{"ha":760,"x_min":136,"x_max":624,"o":"m 434 854 q 418 816 434 832 q 380 800 402 800 q 341 816 357 800 q 326 854 326 832 q 341 893 326 877 q 380 909 357 909 q 418 893 402 909 q 434 854 434 877 m 244 665 q 228 626 244 642 q 190 610 212 610 q 152 626 168 610 q 136 665 136 642 q 152 703 136 687 q 190 719 168 719 q 228 703 212 719 q 244 665 244 687 m 434 665 q 418 626 434 642 q 380 610 402 610 q 341 626 357 610 q 326 665 326 642 q 341 703 326 687 q 380 719 357 719 q 418 703 402 719 q 434 665 434 687 m 624 665 q 608 626 624 642 q 570 610 592 610 q 531 626 547 610 q 515 665 515 642 q 531 703 515 687 q 570 719 547 719 q 608 703 592 719 q 624 665 624 687 m 434 475 q 418 436 434 452 q 380 420 402 420 q 341 436 357 420 q 326 475 326 452 q 341 513 326 497 q 380 529 357 529 q 418 513 402 529 q 434 475 434 497 m 244 285 q 228 247 244 262 q 190 231 212 231 q 152 247 168 231 q 136 285 136 262 q 152 323 136 307 q 190 339 168 339 q 228 323 212 339 q 244 285 244 307 m 434 285 q 418 247 434 262 q 380 231 402 231 q 341 247 357 231 q 326 285 326 262 q 341 323 326 307 q 380 339 357 339 q 418 323 402 339 q 434 285 434 307 m 624 285 q 608 247 624 262 q 570 231 592 231 q 531 247 547 231 q 515 285 515 262 q 531 323 515 307 q 570 339 547 339 q 608 323 592 339 q 624 285 624 307 m 434 95 q 418 57 434 73 q 380 41 402 41 q 341 57 357 41 q 326 95 326 73 q 341 133 326 117 q 380 149 357 149 q 418 133 402 149 q 434 95 434 117 z "},"⁄":{"ha":760,"x_min":136,"x_max":624,"o":"m 624 854 q 608 816 624 832 q 570 800 592 800 q 531 816 547 800 q 515 854 515 832 q 531 893 515 877 q 570 909 547 909 q 608 893 592 909 q 624 854 624 877 m 624 665 q 608 626 624 642 q 570 610 592 610 q 531 626 547 610 q 515 665 515 642 q 531 703 515 687 q 570 719 547 719 q 608 703 592 719 q 624 665 624 687 m 434 475 q 418 436 434 452 q 380 420 402 420 q 341 436 357 420 q 326 475 326 452 q 341 513 326 497 q 380 529 357 529 q 418 513 402 529 q 434 475 434 497 m 244 285 q 228 247 244 262 q 190 231 212 231 q 152 247 168 231 q 136 285 136 262 q 152 323 136 307 q 190 339 168 339 q 228 323 212 339 q 244 285 244 307 m 244 95 q 228 57 244 73 q 190 41 212 41 q 152 57 168 41 q 136 95 136 73 q 152 133 136 117 q 190 149 168 149 q 228 133 212 149 q 244 95 244 117 z "},"∕":{"ha":760,"x_min":136,"x_max":624,"o":"m 624 854 q 608 816 624 832 q 570 800 592 800 q 531 816 547 800 q 515 854 515 832 q 531 893 515 877 q 570 909 547 909 q 608 893 592 909 q 624 854 624 877 m 624 665 q 608 626 624 642 q 570 610 592 610 q 531 626 547 610 q 515 665 515 642 q 531 703 515 687 q 570 719 547 719 q 608 703 592 719 q 624 665 624 687 m 434 475 q 418 436 434 452 q 380 420 402 420 q 341 436 357 420 q 326 475 326 452 q 341 513 326 497 q 380 529 357 529 q 418 513 402 529 q 434 475 434 497 m 244 285 q 228 247 244 262 q 190 231 212 231 q 152 247 168 231 q 136 285 136 262 q 152 323 136 307 q 190 339 168 339 q 228 323 212 339 q 244 285 244 307 m 244 95 q 228 57 244 73 q 190 41 212 41 q 152 57 168 41 q 136 95 136 73 q 152 133 136 117 q 190 149 168 149 q 228 133 212 149 q 244 95 244 117 z "},"−":{"ha":760,"x_min":136,"x_max":624,"o":"m 244 475 q 228 436 244 452 q 190 420 212 420 q 152 436 168 420 q 136 475 136 452 q 152 513 136 497 q 190 529 168 529 q 228 513 212 529 q 244 475 244 497 m 434 475 q 418 436 434 452 q 380 420 402 420 q 341 436 357 420 q 326 475 326 452 q 341 513 326 497 q 380 529 357 529 q 418 513 402 529 q 434 475 434 497 m 624 475 q 608 436 624 452 q 570 420 592 420 q 531 436 547 420 q 515 475 515 452 q 531 513 515 497 q 570 529 547 529 q 608 513 592 529 q 624 475 624 497 z "},"≤":{"ha":760,"x_min":136,"x_max":624,"o":"m 434 854 q 418 816 434 832 q 380 800 402 800 q 341 816 357 800 q 326 854 326 832 q 341 893 326 877 q 380 909 357 909 q 418 893 402 909 q 434 854 434 877 m 624 854 q 608 816 624 832 q 570 800 592 800 q 531 816 547 800 q 515 854 515 832 q 531 893 515 877 q 570 909 547 909 q 608 893 592 909 q 624 854 624 877 m 244 665 q 228 626 244 642 q 190 610 212 610 q 152 626 168 610 q 136 665 136 642 q 152 703 136 687 q 190 719 168 719 q 228 703 212 719 q 244 665 244 687 m 434 475 q 418 436 434 452 q 380 420 402 420 q 341 436 357 420 q 326 475 326 452 q 341 513 326 497 q 380 529 357 529 q 418 513 402 529 q 434 475 434 497 m 624 475 q 608 436 624 452 q 570 420 592 420 q 531 436 547 420 q 515 475 515 452 q 531 513 515 497 q 570 529 547 529 q 608 513 592 529 q 624 475 624 497 m 244 95 q 228 57 244 73 q 190 41 212 41 q 152 57 168 41 q 136 95 136 73 q 152 133 136 117 q 190 149 168 149 q 228 133 212 149 q 244 95 244 117 m 434 95 q 418 57 434 73 q 380 41 402 41 q 341 57 357 41 q 326 95 326 73 q 341 133 326 117 q 380 149 357 149 q 418 133 402 149 q 434 95 434 117 m 624 95 q 608 57 624 73 q 570 41 592 41 q 531 57 547 41 q 515 95 515 73 q 531 133 515 117 q 570 149 547 149 q 608 133 592 149 q 624 95 624 117 z "},"≥":{"ha":760,"x_min":136,"x_max":624,"o":"m 244 854 q 228 816 244 832 q 190 800 212 800 q 152 816 168 800 q 136 854 136 832 q 152 893 136 877 q 190 909 168 909 q 228 893 212 909 q 244 854 244 877 m 434 854 q 418 816 434 832 q 380 800 402 800 q 341 816 357 800 q 326 854 326 832 q 341 893 326 877 q 380 909 357 909 q 418 893 402 909 q 434 854 434 877 m 624 665 q 608 626 624 642 q 570 610 592 610 q 531 626 547 610 q 515 665 515 642 q 531 703 515 687 q 570 719 547 719 q 608 703 592 719 q 624 665 624 687 m 244 475 q 228 436 244 452 q 190 420 212 420 q 152 436 168 420 q 136 475 136 452 q 152 513 136 497 q 190 529 168 529 q 228 513 212 529 q 244 475 244 497 m 434 475 q 418 436 434 452 q 380 420 402 420 q 341 436 357 420 q 326 475 326 452 q 341 513 326 497 q 380 529 357 529 q 418 513 402 529 q 434 475 434 497 m 244 95 q 228 57 244 73 q 190 41 212 41 q 152 57 168 41 q 136 95 136 73 q 152 133 136 117 q 190 149 168 149 q 228 133 212 149 q 244 95 244 117 m 434 95 q 418 57 434 73 q 380 41 402 41 q 341 57 357 41 q 326 95 326 73 q 341 133 326 117 q 380 149 357 149 q 418 133 402 149 q 434 95 434 117 m 624 95 q 608 57 624 73 q 570 41 592 41 q 531 57 547 41 q 515 95 515 73 q 531 133 515 117 q 570 149 547 149 q 608 133 592 149 q 624 95 624 117 z "},"¯":{"ha":760,"x_min":136,"x_max":624,"o":"m 244 854 q 228 816 244 832 q 190 800 212 800 q 152 816 168 800 q 136 854 136 832 q 152 893 136 877 q 190 909 168 909 q 228 893 212 909 q 244 854 244 877 m 434 854 q 418 816 434 832 q 380 800 402 800 q 341 816 357 800 q 326 854 326 832 q 341 893 326 877 q 380 909 357 909 q 418 893 402 909 q 434 854 434 877 m 624 854 q 608 816 624 832 q 570 800 592 800 q 531 816 547 800 q 515 854 515 832 q 531 893 515 877 q 570 909 547 909 q 608 893 592 909 q 624 854 624 877 z "},"Ā":{"ha":760,"x_min":136,"x_max":624,"o":"m 244 854 q 228 816 244 832 q 190 800 212 800 q 152 816 168 800 q 136 854 136 832 q 152 893 136 877 q 190 909 168 909 q 228 893 212 909 q 244 854 244 877 m 434 854 q 418 816 434 832 q 380 800 402 800 q 341 816 357 800 q 326 854 326 832 q 341 893 326 877 q 380 909 357 909 q 418 893 402 909 q 434 854 434 877 m 624 854 q 608 816 624 832 q 570 800 592 800 q 531 816 547 800 q 515 854 515 832 q 531 893 515 877 q 570 909 547 909 q 608 893 592 909 q 624 854 624 877 m 434 665 q 418 626 434 642 q 380 610 402 610 q 341 626 357 610 q 326 665 326 642 q 341 703 326 687 q 380 719 357 719 q 418 703 402 719 q 434 665 434 687 m 244 475 q 228 436 244 452 q 190 420 212 420 q 152 436 168 420 q 136 475 136 452 q 152 513 136 497 q 190 529 168 529 q 228 513 212 529 q 244 475 244 497 m 624 475 q 608 436 624 452 q 570 420 592 420 q 531 436 547 420 q 515 475 515 452 q 531 513 515 497 q 570 529 547 529 q 608 513 592 529 q 624 475 624 497 m 244 285 q 228 247 244 262 q 190 231 212 231 q 152 247 168 231 q 136 285 136 262 q 152 323 136 307 q 190 339 168 339 q 228 323 212 339 q 244 285 244 307 m 434 285 q 418 247 434 262 q 380 231 402 231 q 341 247 357 231 q 326 285 326 262 q 341 323 326 307 q 380 339 357 339 q 418 323 402 339 q 434 285 434 307 m 624 285 q 608 247 624 262 q 570 231 592 231 q 531 247 547 231 q 515 285 515 262 q 531 323 515 307 q 570 339 547 339 q 608 323 592 339 q 624 285 624 307 m 244 95 q 228 57 244 73 q 190 41 212 41 q 152 57 168 41 q 136 95 136 73 q 152 133 136 117 q 190 149 168 149 q 228 133 212 149 q 244 95 244 117 m 624 95 q 608 57 624 73 q 570 41 592 41 q 531 57 547 41 q 515 95 515 73 q 531 133 515 117 q 570 149 547 149 q 608 133 592 149 q 624 95 624 117 z "},"ā":{"ha":760,"x_min":136,"x_max":624,"o":"m 244 854 q 228 816 244 832 q 190 800 212 800 q 152 816 168 800 q 136 854 136 832 q 152 893 136 877 q 190 909 168 909 q 228 893 212 909 q 244 854 244 877 m 434 854 q 418 816 434 832 q 380 800 402 800 q 341 816 357 800 q 326 854 326 832 q 341 893 326 877 q 380 909 357 909 q 418 893 402 909 q 434 854 434 877 m 624 854 q 608 816 624 832 q 570 800 592 800 q 531 816 547 800 q 515 854 515 832 q 531 893 515 877 q 570 909 547 909 q 608 893 592 909 q 624 854 624 877 m 434 665 q 418 626 434 642 q 380 610 402 610 q 341 626 357 610 q 326 665 326 642 q 341 703 326 687 q 380 719 357 719 q 418 703 402 719 q 434 665 434 687 m 244 475 q 228 436 244 452 q 190 420 212 420 q 152 436 168 420 q 136 475 136 452 q 152 513 136 497 q 190 529 168 529 q 228 513 212 529 q 244 475 244 497 m 624 475 q 608 436 624 452 q 570 420 592 420 q 531 436 547 420 q 515 475 515 452 q 531 513 515 497 q 570 529 547 529 q 608 513 592 529 q 624 475 624 497 m 244 285 q 228 247 244 262 q 190 231 212 231 q 152 247 168 231 q 136 285 136 262 q 152 323 136 307 q 190 339 168 339 q 228 323 212 339 q 244 285 244 307 m 434 285 q 418 247 434 262 q 380 231 402 231 q 341 247 357 231 q 326 285 326 262 q 341 323 326 307 q 380 339 357 339 q 418 323 402 339 q 434 285 434 307 m 624 285 q 608 247 624 262 q 570 231 592 231 q 531 247 547 231 q 515 285 515 262 q 531 323 515 307 q 570 339 547 339 q 608 323 592 339 q 624 285 624 307 m 244 95 q 228 57 244 73 q 190 41 212 41 q 152 57 168 41 q 136 95 136 73 q 152 133 136 117 q 190 149 168 149 q 228 133 212 149 q 244 95 244 117 m 624 95 q 608 57 624 73 q 570 41 592 41 q 531 57 547 41 q 515 95 515 73 q 531 133 515 117 q 570 149 547 149 q 608 133 592 149 q 624 95 624 117 z "},"Ī":{"ha":760,"x_min":136,"x_max":624,"o":"m 244 854 q 228 816 244 832 q 190 800 212 800 q 152 816 168 800 q 136 854 136 832 q 152 893 136 877 q 190 909 168 909 q 228 893 212 909 q 244 854 244 877 m 434 854 q 418 816 434 832 q 380 800 402 800 q 341 816 357 800 q 326 854 326 832 q 341 893 326 877 q 380 909 357 909 q 418 893 402 909 q 434 854 434 877 m 624 854 q 608 816 624 832 q 570 800 592 800 q 531 816 547 800 q 515 854 515 832 q 531 893 515 877 q 570 909 547 909 q 608 893 592 909 q 624 854 624 877 m 244 475 q 228 436 244 452 q 190 420 212 420 q 152 436 168 420 q 136 475 136 452 q 152 513 136 497 q 190 529 168 529 q 228 513 212 529 q 244 475 244 497 m 434 475 q 418 436 434 452 q 380 420 402 420 q 341 436 357 420 q 326 475 326 452 q 341 513 326 497 q 380 529 357 529 q 418 513 402 529 q 434 475 434 497 m 624 475 q 608 436 624 452 q 570 420 592 420 q 531 436 547 420 q 515 475 515 452 q 531 513 515 497 q 570 529 547 529 q 608 513 592 529 q 624 475 624 497 m 434 285 q 418 247 434 262 q 380 231 402 231 q 341 247 357 231 q 326 285 326 262 q 341 323 326 307 q 380 339 357 339 q 418 323 402 339 q 434 285 434 307 m 244 95 q 228 57 244 73 q 190 41 212 41 q 152 57 168 41 q 136 95 136 73 q 152 133 136 117 q 190 149 168 149 q 228 133 212 149 q 244 95 244 117 m 434 95 q 418 57 434 73 q 380 41 402 41 q 341 57 357 41 q 326 95 326 73 q 341 133 326 117 q 380 149 357 149 q 418 133 402 149 q 434 95 434 117 m 624 95 q 608 57 624 73 q 570 41 592 41 q 531 57 547 41 q 515 95 515 73 q 531 133 515 117 q 570 149 547 149 q 608 133 592 149 q 624 95 624 117 z "},"ī":{"ha":760,"x_min":136,"x_max":624,"o":"m 244 854 q 228 816 244 832 q 190 800 212 800 q 152 816 168 800 q 136 854 136 832 q 152 893 136 877 q 190 909 168 909 q 228 893 212 909 q 244 854 244 877 m 434 854 q 418 816 434 832 q 380 800 402 800 q 341 816 357 800 q 326 854 326 832 q 341 893 326 877 q 380 909 357 909 q 418 893 402 909 q 434 854 434 877 m 624 854 q 608 816 624 832 q 570 800 592 800 q 531 816 547 800 q 515 854 515 832 q 531 893 515 877 q 570 909 547 909 q 608 893 592 909 q 624 854 624 877 m 244 475 q 228 436 244 452 q 190 420 212 420 q 152 436 168 420 q 136 475 136 452 q 152 513 136 497 q 190 529 168 529 q 228 513 212 529 q 244 475 244 497 m 434 475 q 418 436 434 452 q 380 420 402 420 q 341 436 357 420 q 326 475 326 452 q 341 513 326 497 q 380 529 357 529 q 418 513 402 529 q 434 475 434 497 m 624 475 q 608 436 624 452 q 570 420 592 420 q 531 436 547 420 q 515 475 515 452 q 531 513 515 497 q 570 529 547 529 q 608 513 592 529 q 624 475 624 497 m 434 285 q 418 247 434 262 q 380 231 402 231 q 341 247 357 231 q 326 285 326 262 q 341 323 326 307 q 380 339 357 339 q 418 323 402 339 q 434 285 434 307 m 244 95 q 228 57 244 73 q 190 41 212 41 q 152 57 168 41 q 136 95 136 73 q 152 133 136 117 q 190 149 168 149 q 228 133 212 149 q 244 95 244 117 m 434 95 q 418 57 434 73 q 380 41 402 41 q 341 57 357 41 q 326 95 326 73 q 341 133 326 117 q 380 149 357 149 q 418 133 402 149 q 434 95 434 117 m 624 95 q 608 57 624 73 q 570 41 592 41 q 531 57 547 41 q 515 95 515 73 q 531 133 515 117 q 570 149 547 149 q 608 133 592 149 q 624 95 624 117 z "},"Ō":{"ha":760,"x_min":136,"x_max":624,"o":"m 244 854 q 228 816 244 832 q 190 800 212 800 q 152 816 168 800 q 136 854 136 832 q 152 893 136 877 q 190 909 168 909 q 228 893 212 909 q 244 854 244 877 m 434 854 q 418 816 434 832 q 380 800 402 800 q 341 816 357 800 q 326 854 326 832 q 341 893 326 877 q 380 909 357 909 q 418 893 402 909 q 434 854 434 877 m 624 854 q 608 816 624 832 q 570 800 592 800 q 531 816 547 800 q 515 854 515 832 q 531 893 515 877 q 570 909 547 909 q 608 893 592 909 q 624 854 624 877 m 434 475 q 418 436 434 452 q 380 420 402 420 q 341 436 357 420 q 326 475 326 452 q 341 513 326 497 q 380 529 357 529 q 418 513 402 529 q 434 475 434 497 m 244 285 q 228 247 244 262 q 190 231 212 231 q 152 247 168 231 q 136 285 136 262 q 152 323 136 307 q 190 339 168 339 q 228 323 212 339 q 244 285 244 307 m 624 285 q 608 247 624 262 q 570 231 592 231 q 531 247 547 231 q 515 285 515 262 q 531 323 515 307 q 570 339 547 339 q 608 323 592 339 q 624 285 624 307 m 434 95 q 418 57 434 73 q 380 41 402 41 q 341 57 357 41 q 326 95 326 73 q 341 133 326 117 q 380 149 357 149 q 418 133 402 149 q 434 95 434 117 m 244 475 q 228 436 244 452 q 190 420 212 420 q 152 436 168 420 q 136 475 136 452 q 152 513 136 497 q 190 529 168 529 q 228 513 212 529 q 244 475 244 497 m 624 475 q 608 436 624 452 q 570 420 592 420 q 531 436 547 420 q 515 475 515 452 q 531 513 515 497 q 570 529 547 529 q 608 513 592 529 q 624 475 624 497 m 244 95 q 228 57 244 73 q 190 41 212 41 q 152 57 168 41 q 136 95 136 73 q 152 133 136 117 q 190 149 168 149 q 228 133 212 149 q 244 95 244 117 m 624 95 q 608 57 624 73 q 570 41 592 41 q 531 57 547 41 q 515 95 515 73 q 531 133 515 117 q 570 149 547 149 q 608 133 592 149 q 624 95 624 117 z "},"ō":{"ha":760,"x_min":136,"x_max":624,"o":"m 244 854 q 228 816 244 832 q 190 800 212 800 q 152 816 168 800 q 136 854 136 832 q 152 893 136 877 q 190 909 168 909 q 228 893 212 909 q 244 854 244 877 m 434 854 q 418 816 434 832 q 380 800 402 800 q 341 816 357 800 q 326 854 326 832 q 341 893 326 877 q 380 909 357 909 q 418 893 402 909 q 434 854 434 877 m 624 854 q 608 816 624 832 q 570 800 592 800 q 531 816 547 800 q 515 854 515 832 q 531 893 515 877 q 570 909 547 909 q 608 893 592 909 q 624 854 624 877 m 434 475 q 418 436 434 452 q 380 420 402 420 q 341 436 357 420 q 326 475 326 452 q 341 513 326 497 q 380 529 357 529 q 418 513 402 529 q 434 475 434 497 m 244 285 q 228 247 244 262 q 190 231 212 231 q 152 247 168 231 q 136 285 136 262 q 152 323 136 307 q 190 339 168 339 q 228 323 212 339 q 244 285 244 307 m 624 285 q 608 247 624 262 q 570 231 592 231 q 531 247 547 231 q 515 285 515 262 q 531 323 515 307 q 570 339 547 339 q 608 323 592 339 q 624 285 624 307 m 434 95 q 418 57 434 73 q 380 41 402 41 q 341 57 357 41 q 326 95 326 73 q 341 133 326 117 q 380 149 357 149 q 418 133 402 149 q 434 95 434 117 m 244 475 q 228 436 244 452 q 190 420 212 420 q 152 436 168 420 q 136 475 136 452 q 152 513 136 497 q 190 529 168 529 q 228 513 212 529 q 244 475 244 497 m 624 475 q 608 436 624 452 q 570 420 592 420 q 531 436 547 420 q 515 475 515 452 q 531 513 515 497 q 570 529 547 529 q 608 513 592 529 q 624 475 624 497 m 244 95 q 228 57 244 73 q 190 41 212 41 q 152 57 168 41 q 136 95 136 73 q 152 133 136 117 q 190 149 168 149 q 228 133 212 149 q 244 95 244 117 m 624 95 q 608 57 624 73 q 570 41 592 41 q 531 57 547 41 q 515 95 515 73 q 531 133 515 117 q 570 149 547 149 q 608 133 592 149 q 624 95 624 117 z "},"Ū":{"ha":760,"x_min":136,"x_max":624,"o":"m 244 854 q 228 816 244 832 q 190 800 212 800 q 152 816 168 800 q 136 854 136 832 q 152 893 136 877 q 190 909 168 909 q 228 893 212 909 q 244 854 244 877 m 434 854 q 418 816 434 832 q 380 800 402 800 q 341 816 357 800 q 326 854 326 832 q 341 893 326 877 q 380 909 357 909 q 418 893 402 909 q 434 854 434 877 m 624 854 q 608 816 624 832 q 570 800 592 800 q 531 816 547 800 q 515 854 515 832 q 531 893 515 877 q 570 909 547 909 q 608 893 592 909 q 624 854 624 877 m 244 475 q 228 436 244 452 q 190 420 212 420 q 152 436 168 420 q 136 475 136 452 q 152 513 136 497 q 190 529 168 529 q 228 513 212 529 q 244 475 244 497 m 624 475 q 608 436 624 452 q 570 420 592 420 q 531 436 547 420 q 515 475 515 452 q 531 513 515 497 q 570 529 547 529 q 608 513 592 529 q 624 475 624 497 m 244 285 q 228 247 244 262 q 190 231 212 231 q 152 247 168 231 q 136 285 136 262 q 152 323 136 307 q 190 339 168 339 q 228 323 212 339 q 244 285 244 307 m 624 285 q 608 247 624 262 q 570 231 592 231 q 531 247 547 231 q 515 285 515 262 q 531 323 515 307 q 570 339 547 339 q 608 323 592 339 q 624 285 624 307 m 244 95 q 228 57 244 73 q 190 41 212 41 q 152 57 168 41 q 136 95 136 73 q 152 133 136 117 q 190 149 168 149 q 228 133 212 149 q 244 95 244 117 m 434 95 q 418 57 434 73 q 380 41 402 41 q 341 57 357 41 q 326 95 326 73 q 341 133 326 117 q 380 149 357 149 q 418 133 402 149 q 434 95 434 117 m 624 95 q 608 57 624 73 q 570 41 592 41 q 531 57 547 41 q 515 95 515 73 q 531 133 515 117 q 570 149 547 149 q 608 133 592 149 q 624 95 624 117 z "},"ū":{"ha":760,"x_min":136,"x_max":624,"o":"m 244 854 q 228 816 244 832 q 190 800 212 800 q 152 816 168 800 q 136 854 136 832 q 152 893 136 877 q 190 909 168 909 q 228 893 212 909 q 244 854 244 877 m 434 854 q 418 816 434 832 q 380 800 402 800 q 341 816 357 800 q 326 854 326 832 q 341 893 326 877 q 380 909 357 909 q 418 893 402 909 q 434 854 434 877 m 624 854 q 608 816 624 832 q 570 800 592 800 q 531 816 547 800 q 515 854 515 832 q 531 893 515 877 q 570 909 547 909 q 608 893 592 909 q 624 854 624 877 m 244 475 q 228 436 244 452 q 190 420 212 420 q 152 436 168 420 q 136 475 136 452 q 152 513 136 497 q 190 529 168 529 q 228 513 212 529 q 244 475 244 497 m 624 475 q 608 436 624 452 q 570 420 592 420 q 531 436 547 420 q 515 475 515 452 q 531 513 515 497 q 570 529 547 529 q 608 513 592 529 q 624 475 624 497 m 244 285 q 228 247 244 262 q 190 231 212 231 q 152 247 168 231 q 136 285 136 262 q 152 323 136 307 q 190 339 168 339 q 228 323 212 339 q 244 285 244 307 m 624 285 q 608 247 624 262 q 570 231 592 231 q 531 247 547 231 q 515 285 515 262 q 531 323 515 307 q 570 339 547 339 q 608 323 592 339 q 624 285 624 307 m 244 95 q 228 57 244 73 q 190 41 212 41 q 152 57 168 41 q 136 95 136 73 q 152 133 136 117 q 190 149 168 149 q 228 133 212 149 q 244 95 244 117 m 434 95 q 418 57 434 73 q 380 41 402 41 q 341 57 357 41 q 326 95 326 73 q 341 133 326 117 q 380 149 357 149 q 418 133 402 149 q 434 95 434 117 m 624 95 q 608 57 624 73 q 570 41 592 41 q 531 57 547 41 q 515 95 515 73 q 531 133 515 117 q 570 149 547 149 q 608 133 592 149 q 624 95 624 117 z "},"Ȳ":{"ha":760,"x_min":136,"x_max":624,"o":"m 244 854 q 228 816 244 832 q 190 800 212 800 q 152 816 168 800 q 136 854 136 832 q 152 893 136 877 q 190 909 168 909 q 228 893 212 909 q 244 854 244 877 m 434 854 q 418 816 434 832 q 380 800 402 800 q 341 816 357 800 q 326 854 326 832 q 341 893 326 877 q 380 909 357 909 q 418 893 402 909 q 434 854 434 877 m 624 854 q 608 816 624 832 q 570 800 592 800 q 531 816 547 800 q 515 854 515 832 q 531 893 515 877 q 570 909 547 909 q 608 893 592 909 q 624 854 624 877 m 244 475 q 228 436 244 452 q 190 420 212 420 q 152 436 168 420 q 136 475 136 452 q 152 513 136 497 q 190 529 168 529 q 228 513 212 529 q 244 475 244 497 m 624 475 q 608 436 624 452 q 570 420 592 420 q 531 436 547 420 q 515 475 515 452 q 531 513 515 497 q 570 529 547 529 q 608 513 592 529 q 624 475 624 497 m 434 285 q 418 247 434 262 q 380 231 402 231 q 341 247 357 231 q 326 285 326 262 q 341 323 326 307 q 380 339 357 339 q 418 323 402 339 q 434 285 434 307 m 434 95 q 418 57 434 73 q 380 41 402 41 q 341 57 357 41 q 326 95 326 73 q 341 133 326 117 q 380 149 357 149 q 418 133 402 149 q 434 95 434 117 z "},"ȳ":{"ha":760,"x_min":136,"x_max":624,"o":"m 244 854 q 228 816 244 832 q 190 800 212 800 q 152 816 168 800 q 136 854 136 832 q 152 893 136 877 q 190 909 168 909 q 228 893 212 909 q 244 854 244 877 m 434 854 q 418 816 434 832 q 380 800 402 800 q 341 816 357 800 q 326 854 326 832 q 341 893 326 877 q 380 909 357 909 q 418 893 402 909 q 434 854 434 877 m 624 854 q 608 816 624 832 q 570 800 592 800 q 531 816 547 800 q 515 854 515 832 q 531 893 515 877 q 570 909 547 909 q 608 893 592 909 q 624 854 624 877 m 244 475 q 228 436 244 452 q 190 420 212 420 q 152 436 168 420 q 136 475 136 452 q 152 513 136 497 q 190 529 168 529 q 228 513 212 529 q 244 475 244 497 m 624 475 q 608 436 624 452 q 570 420 592 420 q 531 436 547 420 q 515 475 515 452 q 531 513 515 497 q 570 529 547 529 q 608 513 592 529 q 624 475 624 497 m 434 285 q 418 247 434 262 q 380 231 402 231 q 341 247 357 231 q 326 285 326 262 q 341 323 326 307 q 380 339 357 339 q 418 323 402 339 q 434 285 434 307 m 434 95 q 418 57 434 73 q 380 41 402 41 q 341 57 357 41 q 326 95 326 73 q 341 133 326 117 q 380 149 357 149 q 418 133 402 149 q 434 95 434 117 z "},"&":{"ha":760,"x_min":136,"x_max":624,"o":"m 434 854 q 418 816 434 832 q 380 800 402 800 q 341 816 357 800 q 326 854 326 832 q 341 893 326 877 q 380 909 357 909 q 418 893 402 909 q 434 854 434 877 m 244 665 q 228 626 244 642 q 190 610 212 610 q 152 626 168 610 q 136 665 136 642 q 152 703 136 687 q 190 719 168 719 q 228 703 212 719 q 244 665 244 687 m 624 665 q 608 626 624 642 q 570 610 592 610 q 531 626 547 610 q 515 665 515 642 q 531 703 515 687 q 570 719 547 719 q 608 703 592 719 q 624 665 624 687 m 434 475 q 418 436 434 452 q 380 420 402 420 q 341 436 357 420 q 326 475 326 452 q 341 513 326 497 q 380 529 357 529 q 418 513 402 529 q 434 475 434 497 m 244 285 q 228 247 244 262 q 190 231 212 231 q 152 247 168 231 q 136 285 136 262 q 152 323 136 307 q 190 339 168 339 q 228 323 212 339 q 244 285 244 307 m 624 285 q 608 247 624 262 q 570 231 592 231 q 531 247 547 231 q 515 285 515 262 q 531 323 515 307 q 570 339 547 339 q 608 323 592 339 q 624 285 624 307 m 434 95 q 418 57 434 73 q 380 41 402 41 q 341 57 357 41 q 326 95 326 73 q 341 133 326 117 q 380 149 357 149 q 418 133 402 149 q 434 95 434 117 m 624 95 q 608 57 624 73 q 570 41 592 41 q 531 57 547 41 q 515 95 515 73 q 531 133 515 117 q 570 149 547 149 q 608 133 592 149 q 624 95 624 117 m 244 854 q 228 816 244 832 q 190 800 212 800 q 152 816 168 800 q 136 854 136 832 q 152 893 136 877 q 190 909 168 909 q 228 893 212 909 q 244 854 244 877 z "},"Ø":{"ha":760,"x_min":136,"x_max":624,"o":"m 434 854 q 418 816 434 832 q 380 800 402 800 q 341 816 357 800 q 326 854 326 832 q 341 893 326 877 q 380 909 357 909 q 418 893 402 909 q 434 854 434 877 m 244 665 q 228 626 244 642 q 190 610 212 610 q 152 626 168 610 q 136 665 136 642 q 152 703 136 687 q 190 719 168 719 q 228 703 212 719 q 244 665 244 687 m 624 665 q 608 626 624 642 q 570 610 592 610 q 531 626 547 610 q 515 665 515 642 q 531 703 515 687 q 570 719 547 719 q 608 703 592 719 q 624 665 624 687 m 244 475 q 228 436 244 452 q 190 420 212 420 q 152 436 168 420 q 136 475 136 452 q 152 513 136 497 q 190 529 168 529 q 228 513 212 529 q 244 475 244 497 m 434 475 q 418 436 434 452 q 380 420 402 420 q 341 436 357 420 q 326 475 326 452 q 341 513 326 497 q 380 529 357 529 q 418 513 402 529 q 434 475 434 497 m 624 475 q 608 436 624 452 q 570 420 592 420 q 531 436 547 420 q 515 475 515 452 q 531 513 515 497 q 570 529 547 529 q 608 513 592 529 q 624 475 624 497 m 244 285 q 228 247 244 262 q 190 231 212 231 q 152 247 168 231 q 136 285 136 262 q 152 323 136 307 q 190 339 168 339 q 228 323 212 339 q 244 285 244 307 m 624 285 q 608 247 624 262 q 570 231 592 231 q 531 247 547 231 q 515 285 515 262 q 531 323 515 307 q 570 339 547 339 q 608 323 592 339 q 624 285 624 307 m 434 95 q 418 57 434 73 q 380 41 402 41 q 341 57 357 41 q 326 95 326 73 q 341 133 326 117 q 380 149 357 149 q 418 133 402 149 q 434 95 434 117 z "},"ø":{"ha":760,"x_min":136,"x_max":624,"o":"m 434 854 q 418 816 434 832 q 380 800 402 800 q 341 816 357 800 q 326 854 326 832 q 341 893 326 877 q 380 909 357 909 q 418 893 402 909 q 434 854 434 877 m 244 665 q 228 626 244 642 q 190 610 212 610 q 152 626 168 610 q 136 665 136 642 q 152 703 136 687 q 190 719 168 719 q 228 703 212 719 q 244 665 244 687 m 624 665 q 608 626 624 642 q 570 610 592 610 q 531 626 547 610 q 515 665 515 642 q 531 703 515 687 q 570 719 547 719 q 608 703 592 719 q 624 665 624 687 m 244 475 q 228 436 244 452 q 190 420 212 420 q 152 436 168 420 q 136 475 136 452 q 152 513 136 497 q 190 529 168 529 q 228 513 212 529 q 244 475 244 497 m 434 475 q 418 436 434 452 q 380 420 402 420 q 341 436 357 420 q 326 475 326 452 q 341 513 326 497 q 380 529 357 529 q 418 513 402 529 q 434 475 434 497 m 624 475 q 608 436 624 452 q 570 420 592 420 q 531 436 547 420 q 515 475 515 452 q 531 513 515 497 q 570 529 547 529 q 608 513 592 529 q 624 475 624 497 m 244 285 q 228 247 244 262 q 190 231 212 231 q 152 247 168 231 q 136 285 136 262 q 152 323 136 307 q 190 339 168 339 q 228 323 212 339 q 244 285 244 307 m 624 285 q 608 247 624 262 q 570 231 592 231 q 531 247 547 231 q 515 285 515 262 q 531 323 515 307 q 570 339 547 339 q 608 323 592 339 q 624 285 624 307 m 434 95 q 418 57 434 73 q 380 41 402 41 q 341 57 357 41 q 326 95 326 73 q 341 133 326 117 q 380 149 357 149 q 418 133 402 149 q 434 95 434 117 z "},"Þ":{"ha":760,"x_min":136,"x_max":624,"o":"m 244 854 q 228 816 244 832 q 190 800 212 800 q 152 816 168 800 q 136 854 136 832 q 152 893 136 877 q 190 909 168 909 q 228 893 212 909 q 244 854 244 877 m 244 665 q 228 626 244 642 q 190 610 212 610 q 152 626 168 610 q 136 665 136 642 q 152 703 136 687 q 190 719 168 719 q 228 703 212 719 q 244 665 244 687 m 434 665 q 418 626 434 642 q 380 610 402 610 q 341 626 357 610 q 326 665 326 642 q 341 703 326 687 q 380 719 357 719 q 418 703 402 719 q 434 665 434 687 m 624 665 q 608 626 624 642 q 570 610 592 610 q 531 626 547 610 q 515 665 515 642 q 531 703 515 687 q 570 719 547 719 q 608 703 592 719 q 624 665 624 687 m 244 475 q 228 436 244 452 q 190 420 212 420 q 152 436 168 420 q 136 475 136 452 q 152 513 136 497 q 190 529 168 529 q 228 513 212 529 q 244 475 244 497 m 624 475 q 608 436 624 452 q 570 420 592 420 q 531 436 547 420 q 515 475 515 452 q 531 513 515 497 q 570 529 547 529 q 608 513 592 529 q 624 475 624 497 m 244 285 q 228 247 244 262 q 190 231 212 231 q 152 247 168 231 q 136 285 136 262 q 152 323 136 307 q 190 339 168 339 q 228 323 212 339 q 244 285 244 307 m 434 285 q 418 247 434 262 q 380 231 402 231 q 341 247 357 231 q 326 285 326 262 q 341 323 326 307 q 380 339 357 339 q 418 323 402 339 q 434 285 434 307 m 624 285 q 608 247 624 262 q 570 231 592 231 q 531 247 547 231 q 515 285 515 262 q 531 323 515 307 q 570 339 547 339 q 608 323 592 339 q 624 285 624 307 m 244 95 q 228 57 244 73 q 190 41 212 41 q 152 57 168 41 q 136 95 136 73 q 152 133 136 117 q 190 149 168 149 q 228 133 212 149 q 244 95 244 117 z "},"þ":{"ha":760,"x_min":136,"x_max":624,"o":"m 244 854 q 228 816 244 832 q 190 800 212 800 q 152 816 168 800 q 136 854 136 832 q 152 893 136 877 q 190 909 168 909 q 228 893 212 909 q 244 854 244 877 m 244 665 q 228 626 244 642 q 190 610 212 610 q 152 626 168 610 q 136 665 136 642 q 152 703 136 687 q 190 719 168 719 q 228 703 212 719 q 244 665 244 687 m 434 665 q 418 626 434 642 q 380 610 402 610 q 341 626 357 610 q 326 665 326 642 q 341 703 326 687 q 380 719 357 719 q 418 703 402 719 q 434 665 434 687 m 624 665 q 608 626 624 642 q 570 610 592 610 q 531 626 547 610 q 515 665 515 642 q 531 703 515 687 q 570 719 547 719 q 608 703 592 719 q 624 665 624 687 m 244 475 q 228 436 244 452 q 190 420 212 420 q 152 436 168 420 q 136 475 136 452 q 152 513 136 497 q 190 529 168 529 q 228 513 212 529 q 244 475 244 497 m 624 475 q 608 436 624 452 q 570 420 592 420 q 531 436 547 420 q 515 475 515 452 q 531 513 515 497 q 570 529 547 529 q 608 513 592 529 q 624 475 624 497 m 244 285 q 228 247 244 262 q 190 231 212 231 q 152 247 168 231 q 136 285 136 262 q 152 323 136 307 q 190 339 168 339 q 228 323 212 339 q 244 285 244 307 m 434 285 q 418 247 434 262 q 380 231 402 231 q 341 247 357 231 q 326 285 326 262 q 341 323 326 307 q 380 339 357 339 q 418 323 402 339 q 434 285 434 307 m 624 285 q 608 247 624 262 q 570 231 592 231 q 531 247 547 231 q 515 285 515 262 q 531 323 515 307 q 570 339 547 339 q 608 323 592 339 q 624 285 624 307 m 244 95 q 228 57 244 73 q 190 41 212 41 q 152 57 168 41 q 136 95 136 73 q 152 133 136 117 q 190 149 168 149 q 228 133 212 149 q 244 95 244 117 z "},"¨":{"ha":760,"x_min":136,"x_max":624,"o":"m 244 854 q 228 816 244 832 q 190 800 212 800 q 152 816 168 800 q 136 854 136 832 q 152 893 136 877 q 190 909 168 909 q 228 893 212 909 q 244 854 244 877 m 624 854 q 608 816 624 832 q 570 800 592 800 q 531 816 547 800 q 515 854 515 832 q 531 893 515 877 q 570 909 547 909 q 608 893 592 909 q 624 854 624 877 z "},"Ä":{"ha":760,"x_min":136,"x_max":624,"o":"m 244 854 q 228 816 244 832 q 190 800 212 800 q 152 816 168 800 q 136 854 136 832 q 152 893 136 877 q 190 909 168 909 q 228 893 212 909 q 244 854 244 877 m 624 854 q 608 816 624 832 q 570 800 592 800 q 531 816 547 800 q 515 854 515 832 q 531 893 515 877 q 570 909 547 909 q 608 893 592 909 q 624 854 624 877 m 434 665 q 418 626 434 642 q 380 610 402 610 q 341 626 357 610 q 326 665 326 642 q 341 703 326 687 q 380 719 357 719 q 418 703 402 719 q 434 665 434 687 m 244 475 q 228 436 244 452 q 190 420 212 420 q 152 436 168 420 q 136 475 136 452 q 152 513 136 497 q 190 529 168 529 q 228 513 212 529 q 244 475 244 497 m 624 475 q 608 436 624 452 q 570 420 592 420 q 531 436 547 420 q 515 475 515 452 q 531 513 515 497 q 570 529 547 529 q 608 513 592 529 q 624 475 624 497 m 244 285 q 228 247 244 262 q 190 231 212 231 q 152 247 168 231 q 136 285 136 262 q 152 323 136 307 q 190 339 168 339 q 228 323 212 339 q 244 285 244 307 m 434 285 q 418 247 434 262 q 380 231 402 231 q 341 247 357 231 q 326 285 326 262 q 341 323 326 307 q 380 339 357 339 q 418 323 402 339 q 434 285 434 307 m 624 285 q 608 247 624 262 q 570 231 592 231 q 531 247 547 231 q 515 285 515 262 q 531 323 515 307 q 570 339 547 339 q 608 323 592 339 q 624 285 624 307 m 244 95 q 228 57 244 73 q 190 41 212 41 q 152 57 168 41 q 136 95 136 73 q 152 133 136 117 q 190 149 168 149 q 228 133 212 149 q 244 95 244 117 m 624 95 q 608 57 624 73 q 570 41 592 41 q 531 57 547 41 q 515 95 515 73 q 531 133 515 117 q 570 149 547 149 q 608 133 592 149 q 624 95 624 117 z "},"ä":{"ha":760,"x_min":136,"x_max":624,"o":"m 244 854 q 228 816 244 832 q 190 800 212 800 q 152 816 168 800 q 136 854 136 832 q 152 893 136 877 q 190 909 168 909 q 228 893 212 909 q 244 854 244 877 m 624 854 q 608 816 624 832 q 570 800 592 800 q 531 816 547 800 q 515 854 515 832 q 531 893 515 877 q 570 909 547 909 q 608 893 592 909 q 624 854 624 877 m 434 665 q 418 626 434 642 q 380 610 402 610 q 341 626 357 610 q 326 665 326 642 q 341 703 326 687 q 380 719 357 719 q 418 703 402 719 q 434 665 434 687 m 244 475 q 228 436 244 452 q 190 420 212 420 q 152 436 168 420 q 136 475 136 452 q 152 513 136 497 q 190 529 168 529 q 228 513 212 529 q 244 475 244 497 m 624 475 q 608 436 624 452 q 570 420 592 420 q 531 436 547 420 q 515 475 515 452 q 531 513 515 497 q 570 529 547 529 q 608 513 592 529 q 624 475 624 497 m 244 285 q 228 247 244 262 q 190 231 212 231 q 152 247 168 231 q 136 285 136 262 q 152 323 136 307 q 190 339 168 339 q 228 323 212 339 q 244 285 244 307 m 434 285 q 418 247 434 262 q 380 231 402 231 q 341 247 357 231 q 326 285 326 262 q 341 323 326 307 q 380 339 357 339 q 418 323 402 339 q 434 285 434 307 m 624 285 q 608 247 624 262 q 570 231 592 231 q 531 247 547 231 q 515 285 515 262 q 531 323 515 307 q 570 339 547 339 q 608 323 592 339 q 624 285 624 307 m 244 95 q 228 57 244 73 q 190 41 212 41 q 152 57 168 41 q 136 95 136 73 q 152 133 136 117 q 190 149 168 149 q 228 133 212 149 q 244 95 244 117 m 624 95 q 608 57 624 73 q 570 41 592 41 q 531 57 547 41 q 515 95 515 73 q 531 133 515 117 q 570 149 547 149 q 608 133 592 149 q 624 95 624 117 z "},"Ï":{"ha":760,"x_min":136,"x_max":624,"o":"m 244 854 q 228 816 244 832 q 190 800 212 800 q 152 816 168 800 q 136 854 136 832 q 152 893 136 877 q 190 909 168 909 q 228 893 212 909 q 244 854 244 877 m 624 854 q 608 816 624 832 q 570 800 592 800 q 531 816 547 800 q 515 854 515 832 q 531 893 515 877 q 570 909 547 909 q 608 893 592 909 q 624 854 624 877 m 244 475 q 228 436 244 452 q 190 420 212 420 q 152 436 168 420 q 136 475 136 452 q 152 513 136 497 q 190 529 168 529 q 228 513 212 529 q 244 475 244 497 m 434 475 q 418 436 434 452 q 380 420 402 420 q 341 436 357 420 q 326 475 326 452 q 341 513 326 497 q 380 529 357 529 q 418 513 402 529 q 434 475 434 497 m 624 475 q 608 436 624 452 q 570 420 592 420 q 531 436 547 420 q 515 475 515 452 q 531 513 515 497 q 570 529 547 529 q 608 513 592 529 q 624 475 624 497 m 434 285 q 418 247 434 262 q 380 231 402 231 q 341 247 357 231 q 326 285 326 262 q 341 323 326 307 q 380 339 357 339 q 418 323 402 339 q 434 285 434 307 m 244 95 q 228 57 244 73 q 190 41 212 41 q 152 57 168 41 q 136 95 136 73 q 152 133 136 117 q 190 149 168 149 q 228 133 212 149 q 244 95 244 117 m 434 95 q 418 57 434 73 q 380 41 402 41 q 341 57 357 41 q 326 95 326 73 q 341 133 326 117 q 380 149 357 149 q 418 133 402 149 q 434 95 434 117 m 624 95 q 608 57 624 73 q 570 41 592 41 q 531 57 547 41 q 515 95 515 73 q 531 133 515 117 q 570 149 547 149 q 608 133 592 149 q 624 95 624 117 z "},"ï":{"ha":760,"x_min":136,"x_max":624,"o":"m 244 854 q 228 816 244 832 q 190 800 212 800 q 152 816 168 800 q 136 854 136 832 q 152 893 136 877 q 190 909 168 909 q 228 893 212 909 q 244 854 244 877 m 624 854 q 608 816 624 832 q 570 800 592 800 q 531 816 547 800 q 515 854 515 832 q 531 893 515 877 q 570 909 547 909 q 608 893 592 909 q 624 854 624 877 m 244 475 q 228 436 244 452 q 190 420 212 420 q 152 436 168 420 q 136 475 136 452 q 152 513 136 497 q 190 529 168 529 q 228 513 212 529 q 244 475 244 497 m 434 475 q 418 436 434 452 q 380 420 402 420 q 341 436 357 420 q 326 475 326 452 q 341 513 326 497 q 380 529 357 529 q 418 513 402 529 q 434 475 434 497 m 624 475 q 608 436 624 452 q 570 420 592 420 q 531 436 547 420 q 515 475 515 452 q 531 513 515 497 q 570 529 547 529 q 608 513 592 529 q 624 475 624 497 m 434 285 q 418 247 434 262 q 380 231 402 231 q 341 247 357 231 q 326 285 326 262 q 341 323 326 307 q 380 339 357 339 q 418 323 402 339 q 434 285 434 307 m 244 95 q 228 57 244 73 q 190 41 212 41 q 152 57 168 41 q 136 95 136 73 q 152 133 136 117 q 190 149 168 149 q 228 133 212 149 q 244 95 244 117 m 434 95 q 418 57 434 73 q 380 41 402 41 q 341 57 357 41 q 326 95 326 73 q 341 133 326 117 q 380 149 357 149 q 418 133 402 149 q 434 95 434 117 m 624 95 q 608 57 624 73 q 570 41 592 41 q 531 57 547 41 q 515 95 515 73 q 531 133 515 117 q 570 149 547 149 q 608 133 592 149 q 624 95 624 117 z "},"Ö":{"ha":760,"x_min":136,"x_max":624,"o":"m 244 854 q 228 816 244 832 q 190 800 212 800 q 152 816 168 800 q 136 854 136 832 q 152 893 136 877 q 190 909 168 909 q 228 893 212 909 q 244 854 244 877 m 624 854 q 608 816 624 832 q 570 800 592 800 q 531 816 547 800 q 515 854 515 832 q 531 893 515 877 q 570 909 547 909 q 608 893 592 909 q 624 854 624 877 m 434 475 q 418 436 434 452 q 380 420 402 420 q 341 436 357 420 q 326 475 326 452 q 341 513 326 497 q 380 529 357 529 q 418 513 402 529 q 434 475 434 497 m 244 285 q 228 247 244 262 q 190 231 212 231 q 152 247 168 231 q 136 285 136 262 q 152 323 136 307 q 190 339 168 339 q 228 323 212 339 q 244 285 244 307 m 624 285 q 608 247 624 262 q 570 231 592 231 q 531 247 547 231 q 515 285 515 262 q 531 323 515 307 q 570 339 547 339 q 608 323 592 339 q 624 285 624 307 m 434 95 q 418 57 434 73 q 380 41 402 41 q 341 57 357 41 q 326 95 326 73 q 341 133 326 117 q 380 149 357 149 q 418 133 402 149 q 434 95 434 117 m 244 475 q 228 436 244 452 q 190 420 212 420 q 152 436 168 420 q 136 475 136 452 q 152 513 136 497 q 190 529 168 529 q 228 513 212 529 q 244 475 244 497 m 624 475 q 608 436 624 452 q 570 420 592 420 q 531 436 547 420 q 515 475 515 452 q 531 513 515 497 q 570 529 547 529 q 608 513 592 529 q 624 475 624 497 m 244 95 q 228 57 244 73 q 190 41 212 41 q 152 57 168 41 q 136 95 136 73 q 152 133 136 117 q 190 149 168 149 q 228 133 212 149 q 244 95 244 117 m 624 95 q 608 57 624 73 q 570 41 592 41 q 531 57 547 41 q 515 95 515 73 q 531 133 515 117 q 570 149 547 149 q 608 133 592 149 q 624 95 624 117 z "},"ö":{"ha":760,"x_min":136,"x_max":624,"o":"m 244 854 q 228 816 244 832 q 190 800 212 800 q 152 816 168 800 q 136 854 136 832 q 152 893 136 877 q 190 909 168 909 q 228 893 212 909 q 244 854 244 877 m 624 854 q 608 816 624 832 q 570 800 592 800 q 531 816 547 800 q 515 854 515 832 q 531 893 515 877 q 570 909 547 909 q 608 893 592 909 q 624 854 624 877 m 434 475 q 418 436 434 452 q 380 420 402 420 q 341 436 357 420 q 326 475 326 452 q 341 513 326 497 q 380 529 357 529 q 418 513 402 529 q 434 475 434 497 m 244 285 q 228 247 244 262 q 190 231 212 231 q 152 247 168 231 q 136 285 136 262 q 152 323 136 307 q 190 339 168 339 q 228 323 212 339 q 244 285 244 307 m 624 285 q 608 247 624 262 q 570 231 592 231 q 531 247 547 231 q 515 285 515 262 q 531 323 515 307 q 570 339 547 339 q 608 323 592 339 q 624 285 624 307 m 434 95 q 418 57 434 73 q 380 41 402 41 q 341 57 357 41 q 326 95 326 73 q 341 133 326 117 q 380 149 357 149 q 418 133 402 149 q 434 95 434 117 m 244 475 q 228 436 244 452 q 190 420 212 420 q 152 436 168 420 q 136 475 136 452 q 152 513 136 497 q 190 529 168 529 q 228 513 212 529 q 244 475 244 497 m 624 475 q 608 436 624 452 q 570 420 592 420 q 531 436 547 420 q 515 475 515 452 q 531 513 515 497 q 570 529 547 529 q 608 513 592 529 q 624 475 624 497 m 244 95 q 228 57 244 73 q 190 41 212 41 q 152 57 168 41 q 136 95 136 73 q 152 133 136 117 q 190 149 168 149 q 228 133 212 149 q 244 95 244 117 m 624 95 q 608 57 624 73 q 570 41 592 41 q 531 57 547 41 q 515 95 515 73 q 531 133 515 117 q 570 149 547 149 q 608 133 592 149 q 624 95 624 117 z "},"Ü":{"ha":760,"x_min":136,"x_max":624,"o":"m 244 854 q 228 816 244 832 q 190 800 212 800 q 152 816 168 800 q 136 854 136 832 q 152 893 136 877 q 190 909 168 909 q 228 893 212 909 q 244 854 244 877 m 624 854 q 608 816 624 832 q 570 800 592 800 q 531 816 547 800 q 515 854 515 832 q 531 893 515 877 q 570 909 547 909 q 608 893 592 909 q 624 854 624 877 m 244 475 q 228 436 244 452 q 190 420 212 420 q 152 436 168 420 q 136 475 136 452 q 152 513 136 497 q 190 529 168 529 q 228 513 212 529 q 244 475 244 497 m 624 475 q 608 436 624 452 q 570 420 592 420 q 531 436 547 420 q 515 475 515 452 q 531 513 515 497 q 570 529 547 529 q 608 513 592 529 q 624 475 624 497 m 244 285 q 228 247 244 262 q 190 231 212 231 q 152 247 168 231 q 136 285 136 262 q 152 323 136 307 q 190 339 168 339 q 228 323 212 339 q 244 285 244 307 m 624 285 q 608 247 624 262 q 570 231 592 231 q 531 247 547 231 q 515 285 515 262 q 531 323 515 307 q 570 339 547 339 q 608 323 592 339 q 624 285 624 307 m 244 95 q 228 57 244 73 q 190 41 212 41 q 152 57 168 41 q 136 95 136 73 q 152 133 136 117 q 190 149 168 149 q 228 133 212 149 q 244 95 244 117 m 434 95 q 418 57 434 73 q 380 41 402 41 q 341 57 357 41 q 326 95 326 73 q 341 133 326 117 q 380 149 357 149 q 418 133 402 149 q 434 95 434 117 m 624 95 q 608 57 624 73 q 570 41 592 41 q 531 57 547 41 q 515 95 515 73 q 531 133 515 117 q 570 149 547 149 q 608 133 592 149 q 624 95 624 117 z "},"ü":{"ha":760,"x_min":136,"x_max":624,"o":"m 244 854 q 228 816 244 832 q 190 800 212 800 q 152 816 168 800 q 136 854 136 832 q 152 893 136 877 q 190 909 168 909 q 228 893 212 909 q 244 854 244 877 m 624 854 q 608 816 624 832 q 570 800 592 800 q 531 816 547 800 q 515 854 515 832 q 531 893 515 877 q 570 909 547 909 q 608 893 592 909 q 624 854 624 877 m 244 475 q 228 436 244 452 q 190 420 212 420 q 152 436 168 420 q 136 475 136 452 q 152 513 136 497 q 190 529 168 529 q 228 513 212 529 q 244 475 244 497 m 624 475 q 608 436 624 452 q 570 420 592 420 q 531 436 547 420 q 515 475 515 452 q 531 513 515 497 q 570 529 547 529 q 608 513 592 529 q 624 475 624 497 m 244 285 q 228 247 244 262 q 190 231 212 231 q 152 247 168 231 q 136 285 136 262 q 152 323 136 307 q 190 339 168 339 q 228 323 212 339 q 244 285 244 307 m 624 285 q 608 247 624 262 q 570 231 592 231 q 531 247 547 231 q 515 285 515 262 q 531 323 515 307 q 570 339 547 339 q 608 323 592 339 q 624 285 624 307 m 244 95 q 228 57 244 73 q 190 41 212 41 q 152 57 168 41 q 136 95 136 73 q 152 133 136 117 q 190 149 168 149 q 228 133 212 149 q 244 95 244 117 m 434 95 q 418 57 434 73 q 380 41 402 41 q 341 57 357 41 q 326 95 326 73 q 341 133 326 117 q 380 149 357 149 q 418 133 402 149 q 434 95 434 117 m 624 95 q 608 57 624 73 q 570 41 592 41 q 531 57 547 41 q 515 95 515 73 q 531 133 515 117 q 570 149 547 149 q 608 133 592 149 q 624 95 624 117 z "},"Ÿ":{"ha":760,"x_min":136,"x_max":624,"o":"m 244 854 q 228 816 244 832 q 190 800 212 800 q 152 816 168 800 q 136 854 136 832 q 152 893 136 877 q 190 909 168 909 q 228 893 212 909 q 244 854 244 877 m 624 854 q 608 816 624 832 q 570 800 592 800 q 531 816 547 800 q 515 854 515 832 q 531 893 515 877 q 570 909 547 909 q 608 893 592 909 q 624 854 624 877 m 244 475 q 228 436 244 452 q 190 420 212 420 q 152 436 168 420 q 136 475 136 452 q 152 513 136 497 q 190 529 168 529 q 228 513 212 529 q 244 475 244 497 m 624 475 q 608 436 624 452 q 570 420 592 420 q 531 436 547 420 q 515 475 515 452 q 531 513 515 497 q 570 529 547 529 q 608 513 592 529 q 624 475 624 497 m 434 285 q 418 247 434 262 q 380 231 402 231 q 341 247 357 231 q 326 285 326 262 q 341 323 326 307 q 380 339 357 339 q 418 323 402 339 q 434 285 434 307 m 434 95 q 418 57 434 73 q 380 41 402 41 q 341 57 357 41 q 326 95 326 73 q 341 133 326 117 q 380 149 357 149 q 418 133 402 149 q 434 95 434 117 z "},"ÿ":{"ha":760,"x_min":136,"x_max":624,"o":"m 244 854 q 228 816 244 832 q 190 800 212 800 q 152 816 168 800 q 136 854 136 832 q 152 893 136 877 q 190 909 168 909 q 228 893 212 909 q 244 854 244 877 m 624 854 q 608 816 624 832 q 570 800 592 800 q 531 816 547 800 q 515 854 515 832 q 531 893 515 877 q 570 909 547 909 q 608 893 592 909 q 624 854 624 877 m 244 475 q 228 436 244 452 q 190 420 212 420 q 152 436 168 420 q 136 475 136 452 q 152 513 136 497 q 190 529 168 529 q 228 513 212 529 q 244 475 244 497 m 624 475 q 608 436 624 452 q 570 420 592 420 q 531 436 547 420 q 515 475 515 452 q 531 513 515 497 q 570 529 547 529 q 608 513 592 529 q 624 475 624 497 m 434 285 q 418 247 434 262 q 380 231 402 231 q 341 247 357 231 q 326 285 326 262 q 341 323 326 307 q 380 339 357 339 q 418 323 402 339 q 434 285 434 307 m 434 95 q 418 57 434 73 q 380 41 402 41 q 341 57 357 41 q 326 95 326 73 q 341 133 326 117 q 380 149 357 149 q 418 133 402 149 q 434 95 434 117 z "},"˙":{"ha":760,"x_min":326,"x_max":434,"o":"m 434 854 q 418 816 434 832 q 380 800 402 800 q 341 816 357 800 q 326 854 326 832 q 341 893 326 877 q 380 909 357 909 q 418 893 402 909 q 434 854 434 877 z "},"Ċ":{"ha":760,"x_min":136,"x_max":624,"o":"m 434 854 q 418 816 434 832 q 380 800 402 800 q 341 816 357 800 q 326 854 326 832 q 341 893 326 877 q 380 909 357 909 q 418 893 402 909 q 434 854 434 877 m 434 665 q 418 626 434 642 q 380 610 402 610 q 341 626 357 610 q 326 665 326 642 q 341 703 326 687 q 380 719 357 719 q 418 703 402 719 q 434 665 434 687 m 624 665 q 608 626 624 642 q 570 610 592 610 q 531 626 547 610 q 515 665 515 642 q 531 703 515 687 q 570 719 547 719 q 608 703 592 719 q 624 665 624 687 m 244 475 q 228 436 244 452 q 190 420 212 420 q 152 436 168 420 q 136 475 136 452 q 152 513 136 497 q 190 529 168 529 q 228 513 212 529 q 244 475 244 497 m 244 285 q 228 247 244 262 q 190 231 212 231 q 152 247 168 231 q 136 285 136 262 q 152 323 136 307 q 190 339 168 339 q 228 323 212 339 q 244 285 244 307 m 434 95 q 418 57 434 73 q 380 41 402 41 q 341 57 357 41 q 326 95 326 73 q 341 133 326 117 q 380 149 357 149 q 418 133 402 149 q 434 95 434 117 m 624 95 q 608 57 624 73 q 570 41 592 41 q 531 57 547 41 q 515 95 515 73 q 531 133 515 117 q 570 149 547 149 q 608 133 592 149 q 624 95 624 117 z "},"ċ":{"ha":760,"x_min":136,"x_max":624,"o":"m 434 854 q 418 816 434 832 q 380 800 402 800 q 341 816 357 800 q 326 854 326 832 q 341 893 326 877 q 380 909 357 909 q 418 893 402 909 q 434 854 434 877 m 434 665 q 418 626 434 642 q 380 610 402 610 q 341 626 357 610 q 326 665 326 642 q 341 703 326 687 q 380 719 357 719 q 418 703 402 719 q 434 665 434 687 m 624 665 q 608 626 624 642 q 570 610 592 610 q 531 626 547 610 q 515 665 515 642 q 531 703 515 687 q 570 719 547 719 q 608 703 592 719 q 624 665 624 687 m 244 475 q 228 436 244 452 q 190 420 212 420 q 152 436 168 420 q 136 475 136 452 q 152 513 136 497 q 190 529 168 529 q 228 513 212 529 q 244 475 244 497 m 244 285 q 228 247 244 262 q 190 231 212 231 q 152 247 168 231 q 136 285 136 262 q 152 323 136 307 q 190 339 168 339 q 228 323 212 339 q 244 285 244 307 m 434 95 q 418 57 434 73 q 380 41 402 41 q 341 57 357 41 q 326 95 326 73 q 341 133 326 117 q 380 149 357 149 q 418 133 402 149 q 434 95 434 117 m 624 95 q 608 57 624 73 q 570 41 592 41 q 531 57 547 41 q 515 95 515 73 q 531 133 515 117 q 570 149 547 149 q 608 133 592 149 q 624 95 624 117 z "},"Ġ":{"ha":760,"x_min":136,"x_max":624,"o":"m 434 854 q 418 816 434 832 q 380 800 402 800 q 341 816 357 800 q 326 854 326 832 q 341 893 326 877 q 380 909 357 909 q 418 893 402 909 q 434 854 434 877 m 434 665 q 418 626 434 642 q 380 610 402 610 q 341 626 357 610 q 326 665 326 642 q 341 703 326 687 q 380 719 357 719 q 418 703 402 719 q 434 665 434 687 m 624 665 q 608 626 624 642 q 570 610 592 610 q 531 626 547 610 q 515 665 515 642 q 531 703 515 687 q 570 719 547 719 q 608 703 592 719 q 624 665 624 687 m 244 475 q 228 436 244 452 q 190 420 212 420 q 152 436 168 420 q 136 475 136 452 q 152 513 136 497 q 190 529 168 529 q 228 513 212 529 q 244 475 244 497 m 244 285 q 228 247 244 262 q 190 231 212 231 q 152 247 168 231 q 136 285 136 262 q 152 323 136 307 q 190 339 168 339 q 228 323 212 339 q 244 285 244 307 m 434 95 q 418 57 434 73 q 380 41 402 41 q 341 57 357 41 q 326 95 326 73 q 341 133 326 117 q 380 149 357 149 q 418 133 402 149 q 434 95 434 117 m 624 95 q 608 57 624 73 q 570 41 592 41 q 531 57 547 41 q 515 95 515 73 q 531 133 515 117 q 570 149 547 149 q 608 133 592 149 q 624 95 624 117 m 624 285 q 608 247 624 262 q 570 231 592 231 q 531 247 547 231 q 515 285 515 262 q 531 323 515 307 q 570 339 547 339 q 608 323 592 339 q 624 285 624 307 z "},"ġ":{"ha":760,"x_min":136,"x_max":624,"o":"m 434 854 q 418 816 434 832 q 380 800 402 800 q 341 816 357 800 q 326 854 326 832 q 341 893 326 877 q 380 909 357 909 q 418 893 402 909 q 434 854 434 877 m 434 665 q 418 626 434 642 q 380 610 402 610 q 341 626 357 610 q 326 665 326 642 q 341 703 326 687 q 380 719 357 719 q 418 703 402 719 q 434 665 434 687 m 624 665 q 608 626 624 642 q 570 610 592 610 q 531 626 547 610 q 515 665 515 642 q 531 703 515 687 q 570 719 547 719 q 608 703 592 719 q 624 665 624 687 m 244 475 q 228 436 244 452 q 190 420 212 420 q 152 436 168 420 q 136 475 136 452 q 152 513 136 497 q 190 529 168 529 q 228 513 212 529 q 244 475 244 497 m 244 285 q 228 247 244 262 q 190 231 212 231 q 152 247 168 231 q 136 285 136 262 q 152 323 136 307 q 190 339 168 339 q 228 323 212 339 q 244 285 244 307 m 434 95 q 418 57 434 73 q 380 41 402 41 q 341 57 357 41 q 326 95 326 73 q 341 133 326 117 q 380 149 357 149 q 418 133 402 149 q 434 95 434 117 m 624 95 q 608 57 624 73 q 570 41 592 41 q 531 57 547 41 q 515 95 515 73 q 531 133 515 117 q 570 149 547 149 q 608 133 592 149 q 624 95 624 117 m 624 285 q 608 247 624 262 q 570 231 592 231 q 531 247 547 231 q 515 285 515 262 q 531 323 515 307 q 570 339 547 339 q 608 323 592 339 q 624 285 624 307 z "},"Ȧ":{"ha":760,"x_min":136,"x_max":624,"o":"m 434 854 q 418 816 434 832 q 380 800 402 800 q 341 816 357 800 q 326 854 326 832 q 341 893 326 877 q 380 909 357 909 q 418 893 402 909 q 434 854 434 877 m 434 665 q 418 626 434 642 q 380 610 402 610 q 341 626 357 610 q 326 665 326 642 q 341 703 326 687 q 380 719 357 719 q 418 703 402 719 q 434 665 434 687 m 244 475 q 228 436 244 452 q 190 420 212 420 q 152 436 168 420 q 136 475 136 452 q 152 513 136 497 q 190 529 168 529 q 228 513 212 529 q 244 475 244 497 m 624 475 q 608 436 624 452 q 570 420 592 420 q 531 436 547 420 q 515 475 515 452 q 531 513 515 497 q 570 529 547 529 q 608 513 592 529 q 624 475 624 497 m 244 285 q 228 247 244 262 q 190 231 212 231 q 152 247 168 231 q 136 285 136 262 q 152 323 136 307 q 190 339 168 339 q 228 323 212 339 q 244 285 244 307 m 434 285 q 418 247 434 262 q 380 231 402 231 q 341 247 357 231 q 326 285 326 262 q 341 323 326 307 q 380 339 357 339 q 418 323 402 339 q 434 285 434 307 m 624 285 q 608 247 624 262 q 570 231 592 231 q 531 247 547 231 q 515 285 515 262 q 531 323 515 307 q 570 339 547 339 q 608 323 592 339 q 624 285 624 307 m 244 95 q 228 57 244 73 q 190 41 212 41 q 152 57 168 41 q 136 95 136 73 q 152 133 136 117 q 190 149 168 149 q 228 133 212 149 q 244 95 244 117 m 624 95 q 608 57 624 73 q 570 41 592 41 q 531 57 547 41 q 515 95 515 73 q 531 133 515 117 q 570 149 547 149 q 608 133 592 149 q 624 95 624 117 z "},"ȧ":{"ha":760,"x_min":136,"x_max":624,"o":"m 434 854 q 418 816 434 832 q 380 800 402 800 q 341 816 357 800 q 326 854 326 832 q 341 893 326 877 q 380 909 357 909 q 418 893 402 909 q 434 854 434 877 m 434 665 q 418 626 434 642 q 380 610 402 610 q 341 626 357 610 q 326 665 326 642 q 341 703 326 687 q 380 719 357 719 q 418 703 402 719 q 434 665 434 687 m 244 475 q 228 436 244 452 q 190 420 212 420 q 152 436 168 420 q 136 475 136 452 q 152 513 136 497 q 190 529 168 529 q 228 513 212 529 q 244 475 244 497 m 624 475 q 608 436 624 452 q 570 420 592 420 q 531 436 547 420 q 515 475 515 452 q 531 513 515 497 q 570 529 547 529 q 608 513 592 529 q 624 475 624 497 m 244 285 q 228 247 244 262 q 190 231 212 231 q 152 247 168 231 q 136 285 136 262 q 152 323 136 307 q 190 339 168 339 q 228 323 212 339 q 244 285 244 307 m 434 285 q 418 247 434 262 q 380 231 402 231 q 341 247 357 231 q 326 285 326 262 q 341 323 326 307 q 380 339 357 339 q 418 323 402 339 q 434 285 434 307 m 624 285 q 608 247 624 262 q 570 231 592 231 q 531 247 547 231 q 515 285 515 262 q 531 323 515 307 q 570 339 547 339 q 608 323 592 339 q 624 285 624 307 m 244 95 q 228 57 244 73 q 190 41 212 41 q 152 57 168 41 q 136 95 136 73 q 152 133 136 117 q 190 149 168 149 q 228 133 212 149 q 244 95 244 117 m 624 95 q 608 57 624 73 q 570 41 592 41 q 531 57 547 41 q 515 95 515 73 q 531 133 515 117 q 570 149 547 149 q 608 133 592 149 q 624 95 624 117 z "},"Ȯ":{"ha":760,"x_min":136,"x_max":624,"o":"m 434 854 q 418 816 434 832 q 380 800 402 800 q 341 816 357 800 q 326 854 326 832 q 341 893 326 877 q 380 909 357 909 q 418 893 402 909 q 434 854 434 877 m 434 475 q 418 436 434 452 q 380 420 402 420 q 341 436 357 420 q 326 475 326 452 q 341 513 326 497 q 380 529 357 529 q 418 513 402 529 q 434 475 434 497 m 244 285 q 228 247 244 262 q 190 231 212 231 q 152 247 168 231 q 136 285 136 262 q 152 323 136 307 q 190 339 168 339 q 228 323 212 339 q 244 285 244 307 m 624 285 q 608 247 624 262 q 570 231 592 231 q 531 247 547 231 q 515 285 515 262 q 531 323 515 307 q 570 339 547 339 q 608 323 592 339 q 624 285 624 307 m 434 95 q 418 57 434 73 q 380 41 402 41 q 341 57 357 41 q 326 95 326 73 q 341 133 326 117 q 380 149 357 149 q 418 133 402 149 q 434 95 434 117 m 244 475 q 228 436 244 452 q 190 420 212 420 q 152 436 168 420 q 136 475 136 452 q 152 513 136 497 q 190 529 168 529 q 228 513 212 529 q 244 475 244 497 m 624 475 q 608 436 624 452 q 570 420 592 420 q 531 436 547 420 q 515 475 515 452 q 531 513 515 497 q 570 529 547 529 q 608 513 592 529 q 624 475 624 497 m 244 95 q 228 57 244 73 q 190 41 212 41 q 152 57 168 41 q 136 95 136 73 q 152 133 136 117 q 190 149 168 149 q 228 133 212 149 q 244 95 244 117 m 624 95 q 608 57 624 73 q 570 41 592 41 q 531 57 547 41 q 515 95 515 73 q 531 133 515 117 q 570 149 547 149 q 608 133 592 149 q 624 95 624 117 z "},"ȯ":{"ha":760,"x_min":136,"x_max":624,"o":"m 434 854 q 418 816 434 832 q 380 800 402 800 q 341 816 357 800 q 326 854 326 832 q 341 893 326 877 q 380 909 357 909 q 418 893 402 909 q 434 854 434 877 m 434 475 q 418 436 434 452 q 380 420 402 420 q 341 436 357 420 q 326 475 326 452 q 341 513 326 497 q 380 529 357 529 q 418 513 402 529 q 434 475 434 497 m 244 285 q 228 247 244 262 q 190 231 212 231 q 152 247 168 231 q 136 285 136 262 q 152 323 136 307 q 190 339 168 339 q 228 323 212 339 q 244 285 244 307 m 624 285 q 608 247 624 262 q 570 231 592 231 q 531 247 547 231 q 515 285 515 262 q 531 323 515 307 q 570 339 547 339 q 608 323 592 339 q 624 285 624 307 m 434 95 q 418 57 434 73 q 380 41 402 41 q 341 57 357 41 q 326 95 326 73 q 341 133 326 117 q 380 149 357 149 q 418 133 402 149 q 434 95 434 117 m 244 475 q 228 436 244 452 q 190 420 212 420 q 152 436 168 420 q 136 475 136 452 q 152 513 136 497 q 190 529 168 529 q 228 513 212 529 q 244 475 244 497 m 624 475 q 608 436 624 452 q 570 420 592 420 q 531 436 547 420 q 515 475 515 452 q 531 513 515 497 q 570 529 547 529 q 608 513 592 529 q 624 475 624 497 m 244 95 q 228 57 244 73 q 190 41 212 41 q 152 57 168 41 q 136 95 136 73 q 152 133 136 117 q 190 149 168 149 q 228 133 212 149 q 244 95 244 117 m 624 95 q 608 57 624 73 q 570 41 592 41 q 531 57 547 41 q 515 95 515 73 q 531 133 515 117 q 570 149 547 149 q 608 133 592 149 q 624 95 624 117 z "},"¸":{"ha":760,"x_min":326,"x_max":434,"o":"m 434 95 q 418 57 434 73 q 380 41 402 41 q 341 57 357 41 q 326 95 326 73 q 341 133 326 117 q 380 149 357 149 q 418 133 402 149 q 434 95 434 117 z "},"Ç":{"ha":760,"x_min":136,"x_max":624,"o":"m 434 854 q 418 816 434 832 q 380 800 402 800 q 341 816 357 800 q 326 854 326 832 q 341 893 326 877 q 380 909 357 909 q 418 893 402 909 q 434 854 434 877 m 624 854 q 608 816 624 832 q 570 800 592 800 q 531 816 547 800 q 515 854 515 832 q 531 893 515 877 q 570 909 547 909 q 608 893 592 909 q 624 854 624 877 m 244 665 q 228 626 244 642 q 190 610 212 610 q 152 626 168 610 q 136 665 136 642 q 152 703 136 687 q 190 719 168 719 q 228 703 212 719 q 244 665 244 687 m 244 475 q 228 436 244 452 q 190 420 212 420 q 152 436 168 420 q 136 475 136 452 q 152 513 136 497 q 190 529 168 529 q 228 513 212 529 q 244 475 244 497 m 434 285 q 418 247 434 262 q 380 231 402 231 q 341 247 357 231 q 326 285 326 262 q 341 323 326 307 q 380 339 357 339 q 418 323 402 339 q 434 285 434 307 m 624 285 q 608 247 624 262 q 570 231 592 231 q 531 247 547 231 q 515 285 515 262 q 531 323 515 307 q 570 339 547 339 q 608 323 592 339 q 624 285 624 307 m 434 95 q 418 57 434 73 q 380 41 402 41 q 341 57 357 41 q 326 95 326 73 q 341 133 326 117 q 380 149 357 149 q 418 133 402 149 q 434 95 434 117 z "},"ç":{"ha":760,"x_min":136,"x_max":624,"o":"m 434 854 q 418 816 434 832 q 380 800 402 800 q 341 816 357 800 q 326 854 326 832 q 341 893 326 877 q 380 909 357 909 q 418 893 402 909 q 434 854 434 877 m 624 854 q 608 816 624 832 q 570 800 592 800 q 531 816 547 800 q 515 854 515 832 q 531 893 515 877 q 570 909 547 909 q 608 893 592 909 q 624 854 624 877 m 244 665 q 228 626 244 642 q 190 610 212 610 q 152 626 168 610 q 136 665 136 642 q 152 703 136 687 q 190 719 168 719 q 228 703 212 719 q 244 665 244 687 m 244 475 q 228 436 244 452 q 190 420 212 420 q 152 436 168 420 q 136 475 136 452 q 152 513 136 497 q 190 529 168 529 q 228 513 212 529 q 244 475 244 497 m 434 285 q 418 247 434 262 q 380 231 402 231 q 341 247 357 231 q 326 285 326 262 q 341 323 326 307 q 380 339 357 339 q 418 323 402 339 q 434 285 434 307 m 624 285 q 608 247 624 262 q 570 231 592 231 q 531 247 547 231 q 515 285 515 262 q 531 323 515 307 q 570 339 547 339 q 608 323 592 339 q 624 285 624 307 m 434 95 q 418 57 434 73 q 380 41 402 41 q 341 57 357 41 q 326 95 326 73 q 341 133 326 117 q 380 149 357 149 q 418 133 402 149 q 434 95 434 117 z "},"Ģ":{"ha":760,"x_min":136,"x_max":624,"o":"m 434 854 q 418 816 434 832 q 380 800 402 800 q 341 816 357 800 q 326 854 326 832 q 341 893 326 877 q 380 909 357 909 q 418 893 402 909 q 434 854 434 877 m 624 854 q 608 816 624 832 q 570 800 592 800 q 531 816 547 800 q 515 854 515 832 q 531 893 515 877 q 570 909 547 909 q 608 893 592 909 q 624 854 624 877 m 244 665 q 228 626 244 642 q 190 610 212 610 q 152 626 168 610 q 136 665 136 642 q 152 703 136 687 q 190 719 168 719 q 228 703 212 719 q 244 665 244 687 m 244 475 q 228 436 244 452 q 190 420 212 420 q 152 436 168 420 q 136 475 136 452 q 152 513 136 497 q 190 529 168 529 q 228 513 212 529 q 244 475 244 497 m 434 285 q 418 247 434 262 q 380 231 402 231 q 341 247 357 231 q 326 285 326 262 q 341 323 326 307 q 380 339 357 339 q 418 323 402 339 q 434 285 434 307 m 624 285 q 608 247 624 262 q 570 231 592 231 q 531 247 547 231 q 515 285 515 262 q 531 323 515 307 q 570 339 547 339 q 608 323 592 339 q 624 285 624 307 m 434 95 q 418 57 434 73 q 380 41 402 41 q 341 57 357 41 q 326 95 326 73 q 341 133 326 117 q 380 149 357 149 q 418 133 402 149 q 434 95 434 117 m 624 475 q 608 436 624 452 q 570 420 592 420 q 531 436 547 420 q 515 475 515 452 q 531 513 515 497 q 570 529 547 529 q 608 513 592 529 q 624 475 624 497 z "},"ģ":{"ha":760,"x_min":136,"x_max":624,"o":"m 434 854 q 418 816 434 832 q 380 800 402 800 q 341 816 357 800 q 326 854 326 832 q 341 893 326 877 q 380 909 357 909 q 418 893 402 909 q 434 854 434 877 m 624 854 q 608 816 624 832 q 570 800 592 800 q 531 816 547 800 q 515 854 515 832 q 531 893 515 877 q 570 909 547 909 q 608 893 592 909 q 624 854 624 877 m 244 665 q 228 626 244 642 q 190 610 212 610 q 152 626 168 610 q 136 665 136 642 q 152 703 136 687 q 190 719 168 719 q 228 703 212 719 q 244 665 244 687 m 244 475 q 228 436 244 452 q 190 420 212 420 q 152 436 168 420 q 136 475 136 452 q 152 513 136 497 q 190 529 168 529 q 228 513 212 529 q 244 475 244 497 m 434 285 q 418 247 434 262 q 380 231 402 231 q 341 247 357 231 q 326 285 326 262 q 341 323 326 307 q 380 339 357 339 q 418 323 402 339 q 434 285 434 307 m 624 285 q 608 247 624 262 q 570 231 592 231 q 531 247 547 231 q 515 285 515 262 q 531 323 515 307 q 570 339 547 339 q 608 323 592 339 q 624 285 624 307 m 434 95 q 418 57 434 73 q 380 41 402 41 q 341 57 357 41 q 326 95 326 73 q 341 133 326 117 q 380 149 357 149 q 418 133 402 149 q 434 95 434 117 m 624 475 q 608 436 624 452 q 570 420 592 420 q 531 436 547 420 q 515 475 515 452 q 531 513 515 497 q 570 529 547 529 q 608 513 592 529 q 624 475 624 497 z "},"Ļ":{"ha":760,"x_min":136,"x_max":624,"o":"m 244 854 q 228 816 244 832 q 190 800 212 800 q 152 816 168 800 q 136 854 136 832 q 152 893 136 877 q 190 909 168 909 q 228 893 212 909 q 244 854 244 877 m 244 665 q 228 626 244 642 q 190 610 212 610 q 152 626 168 610 q 136 665 136 642 q 152 703 136 687 q 190 719 168 719 q 228 703 212 719 q 244 665 244 687 m 244 475 q 228 436 244 452 q 190 420 212 420 q 152 436 168 420 q 136 475 136 452 q 152 513 136 497 q 190 529 168 529 q 228 513 212 529 q 244 475 244 497 m 244 285 q 228 247 244 262 q 190 231 212 231 q 152 247 168 231 q 136 285 136 262 q 152 323 136 307 q 190 339 168 339 q 228 323 212 339 q 244 285 244 307 m 434 95 q 418 57 434 73 q 380 41 402 41 q 341 57 357 41 q 326 95 326 73 q 341 133 326 117 q 380 149 357 149 q 418 133 402 149 q 434 95 434 117 m 434 285 q 418 247 434 262 q 380 231 402 231 q 341 247 357 231 q 326 285 326 262 q 341 323 326 307 q 380 339 357 339 q 418 323 402 339 q 434 285 434 307 m 624 285 q 608 247 624 262 q 570 231 592 231 q 531 247 547 231 q 515 285 515 262 q 531 323 515 307 q 570 339 547 339 q 608 323 592 339 q 624 285 624 307 z "},"ļ":{"ha":760,"x_min":136,"x_max":624,"o":"m 244 854 q 228 816 244 832 q 190 800 212 800 q 152 816 168 800 q 136 854 136 832 q 152 893 136 877 q 190 909 168 909 q 228 893 212 909 q 244 854 244 877 m 244 665 q 228 626 244 642 q 190 610 212 610 q 152 626 168 610 q 136 665 136 642 q 152 703 136 687 q 190 719 168 719 q 228 703 212 719 q 244 665 244 687 m 244 475 q 228 436 244 452 q 190 420 212 420 q 152 436 168 420 q 136 475 136 452 q 152 513 136 497 q 190 529 168 529 q 228 513 212 529 q 244 475 244 497 m 244 285 q 228 247 244 262 q 190 231 212 231 q 152 247 168 231 q 136 285 136 262 q 152 323 136 307 q 190 339 168 339 q 228 323 212 339 q 244 285 244 307 m 434 95 q 418 57 434 73 q 380 41 402 41 q 341 57 357 41 q 326 95 326 73 q 341 133 326 117 q 380 149 357 149 q 418 133 402 149 q 434 95 434 117 m 434 285 q 418 247 434 262 q 380 231 402 231 q 341 247 357 231 q 326 285 326 262 q 341 323 326 307 q 380 339 357 339 q 418 323 402 339 q 434 285 434 307 m 624 285 q 608 247 624 262 q 570 231 592 231 q 531 247 547 231 q 515 285 515 262 q 531 323 515 307 q 570 339 547 339 q 608 323 592 339 q 624 285 624 307 z "},"Ţ":{"ha":760,"x_min":136,"x_max":624,"o":"m 244 854 q 228 816 244 832 q 190 800 212 800 q 152 816 168 800 q 136 854 136 832 q 152 893 136 877 q 190 909 168 909 q 228 893 212 909 q 244 854 244 877 m 434 854 q 418 816 434 832 q 380 800 402 800 q 341 816 357 800 q 326 854 326 832 q 341 893 326 877 q 380 909 357 909 q 418 893 402 909 q 434 854 434 877 m 624 854 q 608 816 624 832 q 570 800 592 800 q 531 816 547 800 q 515 854 515 832 q 531 893 515 877 q 570 909 547 909 q 608 893 592 909 q 624 854 624 877 m 434 665 q 418 626 434 642 q 380 610 402 610 q 341 626 357 610 q 326 665 326 642 q 341 703 326 687 q 380 719 357 719 q 418 703 402 719 q 434 665 434 687 m 434 475 q 418 436 434 452 q 380 420 402 420 q 341 436 357 420 q 326 475 326 452 q 341 513 326 497 q 380 529 357 529 q 418 513 402 529 q 434 475 434 497 m 434 95 q 418 57 434 73 q 380 41 402 41 q 341 57 357 41 q 326 95 326 73 q 341 133 326 117 q 380 149 357 149 q 418 133 402 149 q 434 95 434 117 z "},"ţ":{"ha":760,"x_min":136,"x_max":624,"o":"m 244 854 q 228 816 244 832 q 190 800 212 800 q 152 816 168 800 q 136 854 136 832 q 152 893 136 877 q 190 909 168 909 q 228 893 212 909 q 244 854 244 877 m 434 854 q 418 816 434 832 q 380 800 402 800 q 341 816 357 800 q 326 854 326 832 q 341 893 326 877 q 380 909 357 909 q 418 893 402 909 q 434 854 434 877 m 624 854 q 608 816 624 832 q 570 800 592 800 q 531 816 547 800 q 515 854 515 832 q 531 893 515 877 q 570 909 547 909 q 608 893 592 909 q 624 854 624 877 m 434 665 q 418 626 434 642 q 380 610 402 610 q 341 626 357 610 q 326 665 326 642 q 341 703 326 687 q 380 719 357 719 q 418 703 402 719 q 434 665 434 687 m 434 475 q 418 436 434 452 q 380 420 402 420 q 341 436 357 420 q 326 475 326 452 q 341 513 326 497 q 380 529 357 529 q 418 513 402 529 q 434 475 434 497 m 434 95 q 418 57 434 73 q 380 41 402 41 q 341 57 357 41 q 326 95 326 73 q 341 133 326 117 q 380 149 357 149 q 418 133 402 149 q 434 95 434 117 z "},"Ț":{"ha":760,"x_min":136,"x_max":624,"o":"m 244 854 q 228 816 244 832 q 190 800 212 800 q 152 816 168 800 q 136 854 136 832 q 152 893 136 877 q 190 909 168 909 q 228 893 212 909 q 244 854 244 877 m 434 854 q 418 816 434 832 q 380 800 402 800 q 341 816 357 800 q 326 854 326 832 q 341 893 326 877 q 380 909 357 909 q 418 893 402 909 q 434 854 434 877 m 624 854 q 608 816 624 832 q 570 800 592 800 q 531 816 547 800 q 515 854 515 832 q 531 893 515 877 q 570 909 547 909 q 608 893 592 909 q 624 854 624 877 m 434 665 q 418 626 434 642 q 380 610 402 610 q 341 626 357 610 q 326 665 326 642 q 341 703 326 687 q 380 719 357 719 q 418 703 402 719 q 434 665 434 687 m 434 475 q 418 436 434 452 q 380 420 402 420 q 341 436 357 420 q 326 475 326 452 q 341 513 326 497 q 380 529 357 529 q 418 513 402 529 q 434 475 434 497 m 434 95 q 418 57 434 73 q 380 41 402 41 q 341 57 357 41 q 326 95 326 73 q 341 133 326 117 q 380 149 357 149 q 418 133 402 149 q 434 95 434 117 z "},"ț":{"ha":760,"x_min":136,"x_max":624,"o":"m 244 854 q 228 816 244 832 q 190 800 212 800 q 152 816 168 800 q 136 854 136 832 q 152 893 136 877 q 190 909 168 909 q 228 893 212 909 q 244 854 244 877 m 434 854 q 418 816 434 832 q 380 800 402 800 q 341 816 357 800 q 326 854 326 832 q 341 893 326 877 q 380 909 357 909 q 418 893 402 909 q 434 854 434 877 m 624 854 q 608 816 624 832 q 570 800 592 800 q 531 816 547 800 q 515 854 515 832 q 531 893 515 877 q 570 909 547 909 q 608 893 592 909 q 624 854 624 877 m 434 665 q 418 626 434 642 q 380 610 402 610 q 341 626 357 610 q 326 665 326 642 q 341 703 326 687 q 380 719 357 719 q 418 703 402 719 q 434 665 434 687 m 434 475 q 418 436 434 452 q 380 420 402 420 q 341 436 357 420 q 326 475 326 452 q 341 513 326 497 q 380 529 357 529 q 418 513 402 529 q 434 475 434 497 m 434 95 q 418 57 434 73 q 380 41 402 41 q 341 57 357 41 q 326 95 326 73 q 341 133 326 117 q 380 149 357 149 q 418 133 402 149 q 434 95 434 117 z "},"ǀ":{"ha":760,"x_min":326,"x_max":434,"o":"m 434 854 q 418 816 434 832 q 380 800 402 800 q 341 816 357 800 q 326 854 326 832 q 341 893 326 877 q 380 909 357 909 q 418 893 402 909 q 434 854 434 877 m 434 665 q 418 626 434 642 q 380 610 402 610 q 341 626 357 610 q 326 665 326 642 q 341 703 326 687 q 380 719 357 719 q 418 703 402 719 q 434 665 434 687 m 434 475 q 418 436 434 452 q 380 420 402 420 q 341 436 357 420 q 326 475 326 452 q 341 513 326 497 q 380 529 357 529 q 418 513 402 529 q 434 475 434 497 m 434 285 q 418 247 434 262 q 380 231 402 231 q 341 247 357 231 q 326 285 326 262 q 341 323 326 307 q 380 339 357 339 q 418 323 402 339 q 434 285 434 307 m 434 95 q 418 57 434 73 q 380 41 402 41 q 341 57 357 41 q 326 95 326 73 q 341 133 326 117 q 380 149 357 149 q 418 133 402 149 q 434 95 434 117 z "},"ǁ":{"ha":760,"x_min":136,"x_max":624,"o":"m 244 854 q 228 816 244 832 q 190 800 212 800 q 152 816 168 800 q 136 854 136 832 q 152 893 136 877 q 190 909 168 909 q 228 893 212 909 q 244 854 244 877 m 624 854 q 608 816 624 832 q 570 800 592 800 q 531 816 547 800 q 515 854 515 832 q 531 893 515 877 q 570 909 547 909 q 608 893 592 909 q 624 854 624 877 m 244 665 q 228 626 244 642 q 190 610 212 610 q 152 626 168 610 q 136 665 136 642 q 152 703 136 687 q 190 719 168 719 q 228 703 212 719 q 244 665 244 687 m 624 665 q 608 626 624 642 q 570 610 592 610 q 531 626 547 610 q 515 665 515 642 q 531 703 515 687 q 570 719 547 719 q 608 703 592 719 q 624 665 624 687 m 244 475 q 228 436 244 452 q 190 420 212 420 q 152 436 168 420 q 136 475 136 452 q 152 513 136 497 q 190 529 168 529 q 228 513 212 529 q 244 475 244 497 m 624 475 q 608 436 624 452 q 570 420 592 420 q 531 436 547 420 q 515 475 515 452 q 531 513 515 497 q 570 529 547 529 q 608 513 592 529 q 624 475 624 497 m 244 285 q 228 247 244 262 q 190 231 212 231 q 152 247 168 231 q 136 285 136 262 q 152 323 136 307 q 190 339 168 339 q 228 323 212 339 q 244 285 244 307 m 624 285 q 608 247 624 262 q 570 231 592 231 q 531 247 547 231 q 515 285 515 262 q 531 323 515 307 q 570 339 547 339 q 608 323 592 339 q 624 285 624 307 m 244 95 q 228 57 244 73 q 190 41 212 41 q 152 57 168 41 q 136 95 136 73 q 152 133 136 117 q 190 149 168 149 q 228 133 212 149 q 244 95 244 117 m 624 95 q 608 57 624 73 q 570 41 592 41 q 531 57 547 41 q 515 95 515 73 q 531 133 515 117 q 570 149 547 149 q 608 133 592 149 q 624 95 624 117 z "}}}
